<?xml version="1.0" encoding="utf-8"?>
<!-- Generator: Adobe Illustrator 16.0.0, SVG Export Plug-In . SVG Version: 6.00 Build 0)  -->
<!DOCTYPE svg PUBLIC "-//W3C//DTD SVG 1.1//EN" "http://www.w3.org/Graphics/SVG/1.1/DTD/svg11.dtd">
<svg version="1.1" id="Layer_1" xmlns="http://www.w3.org/2000/svg" xmlns:xlink="http://www.w3.org/1999/xlink" x="0px" y="0px"
	 width="100px" height="100px" viewBox="0 0 100 100" enable-background="new 0 0 100 100" xml:space="preserve">
<g>
	<path fill="#231F20" d="M56.854,51.256c0.197-0.092,0.357-0.236,0.473-0.41c0.115-0.172,0.188-0.383,0.188-0.609
		c-0.002-0.303-0.131-0.574-0.324-0.768c-0.195-0.195-0.465-0.322-0.77-0.324h-19c-0.024,0-0.024,0-0.047,0
		c-0.023,0-0.047,0-0.071,0h-0.014l-0.014,0.002c-0.151,0.01-0.292,0.053-0.415,0.117c-0.185,0.098-0.332,0.242-0.437,0.414
		s-0.169,0.371-0.169,0.586c0,0.023,0.001,0.049,0.003,0.076l0.001,0.014l0.001,0.012c0.04,0.291,0.193,0.531,0.389,0.703
		c0.197,0.17,0.448,0.281,0.732,0.285c0.017,0,0.031-0.002,0.047-0.002H56.42C56.576,51.352,56.725,51.314,56.854,51.256z"/>
	<path fill="#231F20" d="M25.614,67.787l0.001,0.014c0.039,0.281,0.184,0.518,0.377,0.688c0.194,0.17,0.446,0.281,0.729,0.281
		c0.026,0,0.053-0.002,0.079-0.006h16.307c0.013,0,0.024,0.002,0.036,0.002c0.153,0,0.298-0.037,0.426-0.096
		c0.192-0.088,0.35-0.227,0.466-0.395c0.116-0.17,0.191-0.377,0.191-0.604c0-0.156-0.037-0.303-0.098-0.434
		c-0.092-0.197-0.235-0.357-0.41-0.473c-0.174-0.113-0.383-0.186-0.609-0.186h-16.31c-0.047,0-0.07,0-0.094,0s-0.048,0-0.07,0
		h-0.031l-0.029,0.004c-0.278,0.041-0.512,0.186-0.682,0.381c-0.169,0.195-0.282,0.451-0.283,0.738c0,0.02,0.001,0.045,0.002,0.07
		L25.614,67.787z"/>
	<path fill="#231F20" d="M37.255,44.223h19.329c0.15,0,0.291-0.035,0.418-0.09c0.189-0.086,0.352-0.217,0.475-0.387
		c0.121-0.17,0.203-0.381,0.203-0.617V31.904c0-0.156-0.037-0.303-0.096-0.432c-0.088-0.195-0.225-0.357-0.393-0.479
		s-0.375-0.203-0.607-0.205H37.255c-0.023,0-0.047,0-0.07,0.002h-0.031l-0.03,0.004c-0.28,0.039-0.518,0.186-0.687,0.381
		c-0.168,0.195-0.275,0.449-0.276,0.729v11.225c0.001,0.305,0.131,0.576,0.325,0.77C36.681,44.092,36.952,44.221,37.255,44.223z
		 M38.35,32.996h17.117v9.041H38.35V32.996z"/>
	<path fill="#231F20" d="M79.283,38.074c-0.689-0.686-1.643-1.119-2.684-1.119h-2.352v-8.156c0-1.041-0.436-1.99-1.125-2.678
		S71.482,25,70.441,25H23.378c-1.043,0-1.991,0.434-2.674,1.123c-0.685,0.688-1.112,1.639-1.112,2.676v42.402
		c0,1.049,0.428,2,1.112,2.686C21.389,74.574,22.338,75,23.378,75h51.213h1.699H76.6c0.047,0,0.092,0,0.141,0h0.693v-0.104
		c0.82-0.18,1.549-0.629,2.078-1.256c0.555-0.654,0.896-1.508,0.896-2.439V40.754C80.408,39.713,79.973,38.764,79.283,38.074z
		 M78.219,71.201c0,0.447-0.182,0.848-0.475,1.141c-0.295,0.295-0.697,0.475-1.145,0.475h-0.26c-0.232-0.02-0.477-0.076-0.779-0.217
		c-0.16-0.08-0.312-0.178-0.457-0.311c-0.219-0.201-0.426-0.482-0.586-0.941c-0.16-0.461-0.27-1.1-0.27-1.982V39.162H76.6
		c0.451,0,0.854,0.178,1.146,0.465s0.471,0.68,0.473,1.127V71.201z M23.378,27.209h47.061c0.451,0,0.854,0.178,1.146,0.465
		s0.471,0.68,0.473,1.125v9.084c-0.01,0.039-0.018,0.082-0.018,0.129s0.008,0.09,0.018,0.127v30.145v1.084
		c0,0.955,0.129,1.768,0.355,2.455c0.119,0.367,0.268,0.695,0.436,0.994H23.378c-0.449,0-0.843-0.18-1.132-0.471
		c-0.288-0.293-0.465-0.695-0.465-1.145V28.799c0-0.449,0.176-0.842,0.462-1.129C22.531,27.385,22.926,27.209,23.378,27.209z"/>
	<path fill="#231F20" d="M25.614,61.977l0.001,0.014c0.039,0.281,0.184,0.516,0.377,0.686c0.194,0.17,0.447,0.281,0.729,0.281
		c0.027,0,0.054-0.002,0.079-0.006h16.31l0,0c0.012,0.002,0.025,0.002,0.037,0.002c0.152,0,0.297-0.035,0.425-0.094
		c0.192-0.088,0.35-0.227,0.465-0.396c0.115-0.168,0.19-0.377,0.19-0.602c0-0.156-0.037-0.305-0.098-0.436
		c-0.092-0.195-0.235-0.355-0.409-0.471c-0.175-0.113-0.384-0.186-0.61-0.188h-16.31c-0.047,0-0.07,0-0.094,0s-0.048,0-0.07,0
		h-0.032l-0.03,0.006c-0.143,0.021-0.273,0.072-0.387,0.139c-0.171,0.104-0.309,0.244-0.409,0.41
		c-0.101,0.164-0.166,0.359-0.167,0.572c0,0.02,0.001,0.043,0.003,0.07L25.614,61.977z"/>
	<path fill="#231F20" d="M67.65,66.766c-0.176-0.113-0.385-0.186-0.609-0.186H50.732c-0.023,0-0.048,0-0.094,0
		c-0.024,0-0.024,0-0.047,0h-0.03l-0.027,0.004c-0.272,0.035-0.51,0.17-0.683,0.357s-0.289,0.439-0.289,0.723
		c0,0.035,0.003,0.07,0.007,0.105l0,0c0,0,0.001,0.014,0.001,0.021c0.002,0.004,0.002,0.008,0.002,0.008v0.004
		c0.027,0.277,0.165,0.516,0.351,0.682c0.194,0.174,0.448,0.285,0.731,0.285c0.025,0,0.053-0.002,0.078-0.006h16.307
		c0.012,0,0.023,0.002,0.035,0.002c0.154,0,0.299-0.037,0.426-0.096c0.193-0.088,0.35-0.227,0.467-0.395
		c0.115-0.17,0.191-0.377,0.191-0.604c0-0.156-0.037-0.305-0.098-0.434C67.967,67.041,67.824,66.881,67.65,66.766z"/>
	<path fill="#231F20" d="M67.65,60.955c-0.174-0.113-0.383-0.186-0.609-0.188H50.732c-0.023,0-0.048,0-0.094,0
		c-0.024,0-0.024,0-0.047,0h-0.03l-0.029,0.004c-0.28,0.041-0.515,0.182-0.685,0.371c-0.168,0.189-0.283,0.434-0.285,0.715
		c0,0.033,0.003,0.066,0.007,0.102l0,0c0,0,0.001,0.018,0.003,0.027c0,0.004,0,0.006,0,0.006l0.001,0.002
		c0.028,0.277,0.166,0.512,0.35,0.678c0.194,0.174,0.449,0.283,0.731,0.285c0.025,0,0.053-0.002,0.078-0.006l0,0h16.309l0,0
		c0.012,0.002,0.025,0.002,0.035,0.002c0.154,0,0.299-0.035,0.426-0.094c0.191-0.088,0.35-0.227,0.465-0.396
		c0.115-0.168,0.191-0.377,0.191-0.602c0-0.156-0.037-0.307-0.098-0.436C67.967,61.23,67.824,61.07,67.65,60.955z"/>
	<path fill="#231F20" d="M25.614,56.166l0.001,0.012c0.039,0.281,0.185,0.52,0.379,0.688s0.447,0.279,0.729,0.281
		c0.026,0,0.051-0.004,0.077-0.006h16.307c0.013,0.002,0.024,0.002,0.036,0.002c0.153,0,0.298-0.035,0.426-0.096
		c0.192-0.088,0.35-0.227,0.467-0.395c0.115-0.17,0.19-0.379,0.19-0.605c0-0.154-0.037-0.303-0.098-0.434
		c-0.092-0.195-0.235-0.355-0.409-0.471c-0.175-0.115-0.384-0.186-0.61-0.186h-16.31c-0.047,0-0.07,0-0.094,0s-0.048,0-0.07,0
		h-0.032l-0.03,0.002c-0.143,0.021-0.273,0.074-0.387,0.141c-0.172,0.104-0.309,0.244-0.41,0.41c-0.1,0.164-0.165,0.359-0.166,0.572
		c0,0.021,0.001,0.045,0.003,0.072L25.614,56.166z"/>
	<path fill="#231F20" d="M50.638,54.957c-0.024,0-0.024,0-0.047,0h-0.03l-0.027,0.002c-0.282,0.039-0.517,0.182-0.688,0.369
		c-0.169,0.191-0.284,0.438-0.284,0.719c0,0.031,0.003,0.066,0.007,0.1h-0.002c0.001,0.008,0.002,0.018,0.003,0.025
		c0,0,0,0.006,0.002,0.01l0,0c0.013,0.133,0.052,0.258,0.109,0.367c0.093,0.182,0.232,0.326,0.399,0.43
		c0.166,0.104,0.363,0.168,0.573,0.168c0.027,0,0.053-0.004,0.077-0.006h16.306c0.014,0.002,0.025,0.002,0.037,0.002
		c0.152,0,0.297-0.035,0.426-0.096c0.191-0.088,0.35-0.227,0.467-0.395c0.115-0.17,0.189-0.379,0.189-0.605
		c0-0.156-0.037-0.303-0.098-0.434c-0.092-0.197-0.236-0.355-0.41-0.471s-0.383-0.186-0.609-0.186H50.732
		C50.708,54.957,50.684,54.957,50.638,54.957z"/>
</g>
</svg>
