<?xml version="1.0" encoding="utf-8"?>
<!-- Generator: Adobe Illustrator 19.0.0, SVG Export Plug-In . SVG Version: 6.00 Build 0)  -->
<svg version="1.1" id="Layer_1" xmlns="http://www.w3.org/2000/svg" xmlns:xlink="http://www.w3.org/1999/xlink" x="0px" y="0px"
	 viewBox="-255 347 100 100" style="enable-background:new -255 347 100 100;" xml:space="preserve">
<style type="text/css">
	.st0{fill:#FFFFFF;}
</style>
<g>
	<path class="st0" d="M-198.1,398.3c0.2-0.1,0.4-0.2,0.5-0.4c0.1-0.2,0.2-0.4,0.2-0.6c0-0.3-0.1-0.6-0.3-0.8
		c-0.2-0.2-0.5-0.3-0.8-0.3h-19c0,0,0,0,0,0c0,0,0,0-0.1,0h0l0,0c-0.2,0-0.3,0.1-0.4,0.1c-0.2,0.1-0.3,0.2-0.4,0.4
		c-0.1,0.2-0.2,0.4-0.2,0.6c0,0,0,0,0,0.1l0,0l0,0c0,0.3,0.2,0.5,0.4,0.7c0.2,0.2,0.4,0.3,0.7,0.3c0,0,0,0,0,0h19
		C-198.4,398.4-198.3,398.3-198.1,398.3z"/>
	<path class="st0" d="M-229.4,414.8L-229.4,414.8c0,0.3,0.2,0.5,0.4,0.7c0.2,0.2,0.4,0.3,0.7,0.3c0,0,0.1,0,0.1,0h16.3c0,0,0,0,0,0
		c0.2,0,0.3,0,0.4-0.1c0.2-0.1,0.4-0.2,0.5-0.4c0.1-0.2,0.2-0.4,0.2-0.6c0-0.2,0-0.3-0.1-0.4c-0.1-0.2-0.2-0.4-0.4-0.5
		c-0.2-0.1-0.4-0.2-0.6-0.2h-16.3c0,0-0.1,0-0.1,0s0,0-0.1,0h0l0,0c-0.3,0-0.5,0.2-0.7,0.4C-229.3,414.2-229.4,414.4-229.4,414.8
		C-229.4,414.7-229.4,414.7-229.4,414.8L-229.4,414.8z"/>
	<path class="st0" d="M-217.7,391.2h19.3c0.2,0,0.3,0,0.4-0.1c0.2-0.1,0.4-0.2,0.5-0.4c0.1-0.2,0.2-0.4,0.2-0.6v-11.2
		c0-0.2,0-0.3-0.1-0.4c-0.1-0.2-0.2-0.4-0.4-0.5c-0.2-0.1-0.4-0.2-0.6-0.2h-19.3c0,0,0,0-0.1,0h0l0,0c-0.3,0-0.5,0.2-0.7,0.4
		c-0.2,0.2-0.3,0.4-0.3,0.7v11.2c0,0.3,0.1,0.6,0.3,0.8C-218.3,391.1-218,391.2-217.7,391.2z M-216.6,380h17.1v9h-17.1V380z"/>
	<path class="st0" d="M-175.7,385.1c-0.7-0.7-1.6-1.1-2.7-1.1h-2.4v-8.2c0-1-0.4-2-1.1-2.7c-0.7-0.7-1.6-1.1-2.7-1.1h-47.1
		c-1,0-2,0.4-2.7,1.1c-0.7,0.7-1.1,1.6-1.1,2.7v42.4c0,1,0.4,2,1.1,2.7c0.7,0.7,1.6,1.1,2.7,1.1h51.2h1.7h0.3c0,0,0.1,0,0.1,0h0.7
		v-0.1c0.8-0.2,1.5-0.6,2.1-1.3c0.6-0.7,0.9-1.5,0.9-2.4v-30.4C-174.6,386.7-175,385.8-175.7,385.1z M-176.8,418.2
		c0,0.4-0.2,0.8-0.5,1.1c-0.3,0.3-0.7,0.5-1.1,0.5h-0.3c-0.2,0-0.5-0.1-0.8-0.2c-0.2-0.1-0.3-0.2-0.5-0.3c-0.2-0.2-0.4-0.5-0.6-0.9
		c-0.2-0.5-0.3-1.1-0.3-2v-30.2h2.4c0.5,0,0.9,0.2,1.1,0.5c0.3,0.3,0.5,0.7,0.5,1.1V418.2z M-231.6,374.2h47.1
		c0.5,0,0.9,0.2,1.1,0.5c0.3,0.3,0.5,0.7,0.5,1.1v9.1c0,0,0,0.1,0,0.1s0,0.1,0,0.1v30.1v1.1c0,1,0.1,1.8,0.4,2.5
		c0.1,0.4,0.3,0.7,0.4,1h-49.5c-0.4,0-0.8-0.2-1.1-0.5c-0.3-0.3-0.5-0.7-0.5-1.1v-42.4c0-0.4,0.2-0.8,0.5-1.1
		C-232.5,374.4-232.1,374.2-231.6,374.2z"/>
	<path class="st0" d="M-229.4,409L-229.4,409c0,0.3,0.2,0.5,0.4,0.7c0.2,0.2,0.4,0.3,0.7,0.3c0,0,0.1,0,0.1,0h16.3l0,0c0,0,0,0,0,0
		c0.2,0,0.3,0,0.4-0.1c0.2-0.1,0.4-0.2,0.5-0.4c0.1-0.2,0.2-0.4,0.2-0.6c0-0.2,0-0.3-0.1-0.4c-0.1-0.2-0.2-0.4-0.4-0.5
		c-0.2-0.1-0.4-0.2-0.6-0.2h-16.3c0,0-0.1,0-0.1,0s0,0-0.1,0h0l0,0c-0.1,0-0.3,0.1-0.4,0.1c-0.2,0.1-0.3,0.2-0.4,0.4
		C-229.3,408.5-229.4,408.7-229.4,409C-229.4,408.9-229.4,408.9-229.4,409L-229.4,409z"/>
	<path class="st0" d="M-187.4,413.8c-0.2-0.1-0.4-0.2-0.6-0.2h-16.3c0,0,0,0-0.1,0c0,0,0,0,0,0h0l0,0c-0.3,0-0.5,0.2-0.7,0.4
		c-0.2,0.2-0.3,0.4-0.3,0.7c0,0,0,0.1,0,0.1l0,0c0,0,0,0,0,0c0,0,0,0,0,0v0c0,0.3,0.2,0.5,0.4,0.7c0.2,0.2,0.4,0.3,0.7,0.3
		c0,0,0.1,0,0.1,0h16.3c0,0,0,0,0,0c0.2,0,0.3,0,0.4-0.1c0.2-0.1,0.4-0.2,0.5-0.4c0.1-0.2,0.2-0.4,0.2-0.6c0-0.2,0-0.3-0.1-0.4
		C-187,414-187.2,413.9-187.4,413.8z"/>
	<path class="st0" d="M-187.4,408c-0.2-0.1-0.4-0.2-0.6-0.2h-16.3c0,0,0,0-0.1,0c0,0,0,0,0,0h0l0,0c-0.3,0-0.5,0.2-0.7,0.4
		c-0.2,0.2-0.3,0.4-0.3,0.7c0,0,0,0.1,0,0.1l0,0c0,0,0,0,0,0c0,0,0,0,0,0l0,0c0,0.3,0.2,0.5,0.3,0.7c0.2,0.2,0.4,0.3,0.7,0.3
		c0,0,0.1,0,0.1,0l0,0h16.3l0,0c0,0,0,0,0,0c0.2,0,0.3,0,0.4-0.1c0.2-0.1,0.3-0.2,0.5-0.4c0.1-0.2,0.2-0.4,0.2-0.6
		c0-0.2,0-0.3-0.1-0.4C-187,408.2-187.2,408.1-187.4,408z"/>
	<path class="st0" d="M-229.4,403.2L-229.4,403.2c0,0.3,0.2,0.5,0.4,0.7s0.4,0.3,0.7,0.3c0,0,0.1,0,0.1,0h16.3c0,0,0,0,0,0
		c0.2,0,0.3,0,0.4-0.1c0.2-0.1,0.3-0.2,0.5-0.4c0.1-0.2,0.2-0.4,0.2-0.6c0-0.2,0-0.3-0.1-0.4c-0.1-0.2-0.2-0.4-0.4-0.5
		c-0.2-0.1-0.4-0.2-0.6-0.2h-16.3c0,0-0.1,0-0.1,0c0,0,0,0-0.1,0h0l0,0c-0.1,0-0.3,0.1-0.4,0.1c-0.2,0.1-0.3,0.2-0.4,0.4
		C-229.3,402.7-229.4,402.9-229.4,403.2C-229.4,403.1-229.4,403.1-229.4,403.2L-229.4,403.2z"/>
	<path class="st0" d="M-204.4,402C-204.4,402-204.4,402-204.4,402L-204.4,402l-0.1,0c-0.3,0-0.5,0.2-0.7,0.4
		c-0.2,0.2-0.3,0.4-0.3,0.7c0,0,0,0.1,0,0.1h0c0,0,0,0,0,0c0,0,0,0,0,0l0,0c0,0.1,0.1,0.3,0.1,0.4c0.1,0.2,0.2,0.3,0.4,0.4
		c0.2,0.1,0.4,0.2,0.6,0.2c0,0,0.1,0,0.1,0h16.3c0,0,0,0,0,0c0.2,0,0.3,0,0.4-0.1c0.2-0.1,0.4-0.2,0.5-0.4c0.1-0.2,0.2-0.4,0.2-0.6
		c0-0.2,0-0.3-0.1-0.4c-0.1-0.2-0.2-0.4-0.4-0.5s-0.4-0.2-0.6-0.2L-204.4,402C-204.3,402-204.3,402-204.4,402z"/>
</g>
</svg>
