<?xml version="1.0" encoding="utf-8"?>
<!-- Generator: Adobe Illustrator 19.0.0, SVG Export Plug-In . SVG Version: 6.00 Build 0)  -->
<svg version="1.1" id="Layer_1" xmlns="http://www.w3.org/2000/svg" xmlns:xlink="http://www.w3.org/1999/xlink" x="0px" y="0px"
	 viewBox="-255 347 100 100" style="enable-background:new -255 347 100 100;" xml:space="preserve">
<style type="text/css">
	.st0{fill:#424447;}
</style>
<g>
	<path class="st0" d="M-193.7,398.8c0.3-0.1,0.5-0.4,0.7-0.6c0.2-0.3,0.3-0.6,0.3-0.9c0-0.4-0.2-0.9-0.5-1.1
		c-0.3-0.3-0.7-0.5-1.1-0.5h-28.2c0,0,0,0-0.1,0c0,0-0.1,0-0.1,0h0l0,0c-0.2,0-0.4,0.1-0.6,0.2c-0.3,0.1-0.5,0.4-0.6,0.6
		c-0.2,0.3-0.3,0.6-0.3,0.9c0,0,0,0.1,0,0.1l0,0l0,0c0.1,0.4,0.3,0.8,0.6,1c0.3,0.3,0.7,0.4,1.1,0.4c0,0,0,0,0.1,0h28.2
		C-194.2,399-193.9,398.9-193.7,398.8z"/>
	<path class="st0" d="M-240.1,423.4L-240.1,423.4c0.1,0.4,0.3,0.8,0.6,1c0.3,0.3,0.7,0.4,1.1,0.4c0,0,0.1,0,0.1,0h24.2
		c0,0,0,0,0.1,0c0.2,0,0.4-0.1,0.6-0.1c0.3-0.1,0.5-0.3,0.7-0.6c0.2-0.3,0.3-0.6,0.3-0.9c0-0.2-0.1-0.4-0.1-0.6
		c-0.1-0.3-0.3-0.5-0.6-0.7c-0.3-0.2-0.6-0.3-0.9-0.3h-24.2c-0.1,0-0.1,0-0.1,0c0,0-0.1,0-0.1,0h0l0,0c-0.4,0.1-0.8,0.3-1,0.6
		c-0.3,0.3-0.4,0.7-0.4,1.1C-240.1,423.3-240.1,423.3-240.1,423.4L-240.1,423.4z"/>
	<path class="st0" d="M-222.8,388.4h28.7c0.2,0,0.4-0.1,0.6-0.1c0.3-0.1,0.5-0.3,0.7-0.6c0.2-0.3,0.3-0.6,0.3-0.9v-16.6
		c0-0.2-0.1-0.4-0.1-0.6c-0.1-0.3-0.3-0.5-0.6-0.7s-0.6-0.3-0.9-0.3h-28.7c0,0-0.1,0-0.1,0h0l0,0c-0.4,0.1-0.8,0.3-1,0.6
		c-0.2,0.3-0.4,0.7-0.4,1.1v16.6c0,0.5,0.2,0.9,0.5,1.1C-223.7,388.2-223.3,388.4-222.8,388.4z M-221.2,371.8h25.4v13.4h-25.4V371.8
		z"/>
	<path class="st0" d="M-160.5,379.3c-1-1-2.4-1.7-4-1.7h-3.5v-12.1c0-1.5-0.6-3-1.7-4s-2.4-1.7-4-1.7h-69.8c-1.5,0-3,0.6-4,1.7
		c-1,1-1.6,2.4-1.6,4v62.9c0,1.6,0.6,3,1.6,4c1,1,2.4,1.7,4,1.7h76h2.5h0.5c0.1,0,0.1,0,0.2,0h1v-0.2c1.2-0.3,2.3-0.9,3.1-1.9
		c0.8-1,1.3-2.2,1.3-3.6v-45.2C-158.8,381.7-159.5,380.3-160.5,379.3z M-162.1,428.4c0,0.7-0.3,1.3-0.7,1.7c-0.4,0.4-1,0.7-1.7,0.7
		h-0.4c-0.3,0-0.7-0.1-1.2-0.3c-0.2-0.1-0.5-0.3-0.7-0.5c-0.3-0.3-0.6-0.7-0.9-1.4c-0.2-0.7-0.4-1.6-0.4-2.9v-44.8h3.5
		c0.7,0,1.3,0.3,1.7,0.7c0.4,0.4,0.7,1,0.7,1.7V428.4z M-243.4,363.2h69.8c0.7,0,1.3,0.3,1.7,0.7c0.4,0.4,0.7,1,0.7,1.7V379
		c0,0.1,0,0.1,0,0.2c0,0.1,0,0.1,0,0.2v44.7v1.6c0,1.4,0.2,2.6,0.5,3.6c0.2,0.5,0.4,1,0.6,1.5h-73.4c-0.7,0-1.3-0.3-1.7-0.7
		c-0.4-0.4-0.7-1-0.7-1.7v-62.9c0-0.7,0.3-1.2,0.7-1.7C-244.7,363.4-244.1,363.2-243.4,363.2z"/>
	<path class="st0" d="M-240.1,414.7L-240.1,414.7c0.1,0.4,0.3,0.8,0.6,1c0.3,0.3,0.7,0.4,1.1,0.4c0,0,0.1,0,0.1,0h24.2l0,0
		c0,0,0,0,0.1,0c0.2,0,0.4-0.1,0.6-0.1c0.3-0.1,0.5-0.3,0.7-0.6c0.2-0.2,0.3-0.6,0.3-0.9c0-0.2-0.1-0.5-0.1-0.6
		c-0.1-0.3-0.3-0.5-0.6-0.7c-0.3-0.2-0.6-0.3-0.9-0.3h-24.2c-0.1,0-0.1,0-0.1,0c0,0-0.1,0-0.1,0h0l0,0c-0.2,0-0.4,0.1-0.6,0.2
		c-0.3,0.2-0.5,0.4-0.6,0.6c-0.1,0.2-0.2,0.5-0.2,0.8C-240.1,414.6-240.1,414.7-240.1,414.7L-240.1,414.7z"/>
	<path class="st0" d="M-177.7,421.8c-0.3-0.2-0.6-0.3-0.9-0.3h-24.2c0,0-0.1,0-0.1,0c0,0,0,0-0.1,0h0l0,0c-0.4,0.1-0.8,0.3-1,0.5
		c-0.3,0.3-0.4,0.7-0.4,1.1c0,0.1,0,0.1,0,0.2l0,0c0,0,0,0,0,0c0,0,0,0,0,0v0c0,0.4,0.2,0.8,0.5,1c0.3,0.3,0.7,0.4,1.1,0.4
		c0,0,0.1,0,0.1,0h24.2c0,0,0,0,0.1,0c0.2,0,0.4-0.1,0.6-0.1c0.3-0.1,0.5-0.3,0.7-0.6c0.2-0.3,0.3-0.6,0.3-0.9
		c0-0.2-0.1-0.5-0.1-0.6C-177.3,422.2-177.5,422-177.7,421.8z"/>
	<path class="st0" d="M-177.7,413.2c-0.3-0.2-0.6-0.3-0.9-0.3h-24.2c0,0-0.1,0-0.1,0c0,0,0,0-0.1,0h0l0,0c-0.4,0.1-0.8,0.3-1,0.6
		c-0.2,0.3-0.4,0.6-0.4,1.1c0,0,0,0.1,0,0.2l0,0c0,0,0,0,0,0c0,0,0,0,0,0l0,0c0,0.4,0.2,0.8,0.5,1c0.3,0.3,0.7,0.4,1.1,0.4
		c0,0,0.1,0,0.1,0l0,0h24.2l0,0c0,0,0,0,0.1,0c0.2,0,0.4-0.1,0.6-0.1c0.3-0.1,0.5-0.3,0.7-0.6c0.2-0.2,0.3-0.6,0.3-0.9
		c0-0.2-0.1-0.5-0.1-0.6C-177.3,413.6-177.5,413.4-177.7,413.2z"/>
	<path class="st0" d="M-240.1,406.1L-240.1,406.1c0.1,0.4,0.3,0.8,0.6,1c0.3,0.2,0.7,0.4,1.1,0.4c0,0,0.1,0,0.1,0h24.2
		c0,0,0,0,0.1,0c0.2,0,0.4-0.1,0.6-0.1c0.3-0.1,0.5-0.3,0.7-0.6c0.2-0.3,0.3-0.6,0.3-0.9c0-0.2-0.1-0.4-0.1-0.6
		c-0.1-0.3-0.3-0.5-0.6-0.7c-0.3-0.2-0.6-0.3-0.9-0.3h-24.2c-0.1,0-0.1,0-0.1,0s-0.1,0-0.1,0h0l0,0c-0.2,0-0.4,0.1-0.6,0.2
		c-0.3,0.2-0.5,0.4-0.6,0.6c-0.1,0.2-0.2,0.5-0.2,0.8C-240.1,406-240.1,406.1-240.1,406.1L-240.1,406.1z"/>
	<path class="st0" d="M-203,404.3C-203,404.3-203,404.3-203,404.3h-0.1l0,0c-0.4,0.1-0.8,0.3-1,0.5c-0.3,0.3-0.4,0.6-0.4,1.1
		c0,0,0,0.1,0,0.1h0c0,0,0,0,0,0c0,0,0,0,0,0l0,0c0,0.2,0.1,0.4,0.2,0.5c0.1,0.3,0.3,0.5,0.6,0.6c0.2,0.2,0.5,0.2,0.8,0.2
		c0,0,0.1,0,0.1,0h24.2c0,0,0,0,0.1,0c0.2,0,0.4-0.1,0.6-0.1c0.3-0.1,0.5-0.3,0.7-0.6c0.2-0.3,0.3-0.6,0.3-0.9
		c0-0.2-0.1-0.4-0.1-0.6c-0.1-0.3-0.4-0.5-0.6-0.7c-0.3-0.2-0.6-0.3-0.9-0.3h-24.2C-202.9,404.3-202.9,404.3-203,404.3z"/>
</g>
</svg>
