<?xml version="1.0" encoding="utf-8"?>
<!-- Generator: Adobe Illustrator 19.0.0, SVG Export Plug-In . SVG Version: 6.00 Build 0)  -->
<svg version="1.1" id="Layer_1" xmlns="http://www.w3.org/2000/svg" xmlns:xlink="http://www.w3.org/1999/xlink" x="0px" y="0px"
	 viewBox="-230.2 373.4 49.3 50" style="enable-background:new -230.2 373.4 49.3 50;" xml:space="preserve">
<style type="text/css">
	.st0{fill:#1197CA;}
	.st1{fill:#231F20;}
</style>
<polyline class="st0" points="-230.2,423.4 -230.2,373.4 -180.8,373.4 "/>
<path class="st1" d="M-209,395.6c0,0,3.1-0.2,3.1-3.9c0-3.7-2.6-5.5-5.8-5.5h-6h-0.2h-4.6v20.6h4.6h0.2h6c0,0,6.6,0.2,6.6-6.1
	C-205.2,400.7-204.9,395.6-209,395.6z M-212.5,389.9h0.8c0,0,1.5,0,1.5,2.1s-0.9,2.5-1.8,2.5h-5.6v-4.6H-212.5z M-212,403.2h-5.7
	v-5.5h6c0,0,2.2,0,2.2,2.8C-209.6,402.9-211.2,403.2-212,403.2z"/>
<path class="st1" d="M-196.4,391.4c-7.9,0-7.9,7.9-7.9,7.9s-0.5,7.9,7.9,7.9c0,0,7.1,0.4,7.1-5.5h-3.6c0,0,0.1,2.2-3.3,2.2
	c0,0-3.6,0.2-3.6-3.6h10.7C-189.2,400.4-188.1,391.4-196.4,391.4z M-200,397.6c0,0,0.4-3.2,3.6-3.2c3.2,0,3.1,3.2,3.1,3.2H-200z"/>
<rect x="-200.9" y="387.4" class="st1" width="8.5" height="2.5"/>
</svg>
