<?xml version="1.0" encoding="utf-8"?>
<!-- Generator: Adobe Illustrator 19.0.0, SVG Export Plug-In . SVG Version: 6.00 Build 0)  -->
<svg version="1.1" id="Layer_1" xmlns="http://www.w3.org/2000/svg" xmlns:xlink="http://www.w3.org/1999/xlink" x="0px" y="0px"
	 viewBox="0 0 29.4 30.6" style="enable-background:new 0 0 29.4 30.6;" xml:space="preserve">
<style type="text/css">
	.st0{clip-path:url(#SVGID_2_);fill:#D9BE40;}
</style>
<g>
	<defs>
		<rect id="SVGID_1_" y="0" width="30.6" height="30.6"/>
	</defs>
	<clipPath id="SVGID_2_">
		<use xlink:href="#SVGID_1_"  style="overflow:visible;"/>
	</clipPath>
	<path class="st0" d="M26.1,20.3L26.1,20.3l-5-5L29.4,7c1.6-1.6,1.6-4.2,0-5.8c-1.6-1.6-4.2-1.6-5.8,0l-3.3,3.3l-5,5L7,1.2
		c-1.6-1.6-4.2-1.6-5.8,0c-1.6,1.6-1.6,4.2,0,5.8l3.3,3.3l5,5l-8.3,8.3c-1.6,1.6-1.6,4.2,0,5.8C2.8,31,5.4,31,7,29.4l3.3-3.3l0,0
		l5-5l8.3,8.3c1.6,1.6,4.2,1.6,5.8,0c1.6-1.6,1.6-4.2,0-5.8L26.1,20.3z"/>
</g>
</svg>
