<?xml version="1.0" encoding="utf-8"?>
<!-- Generator: Adobe Illustrator 19.0.0, SVG Export Plug-In . SVG Version: 6.00 Build 0)  -->
<svg version="1.1" id="Layer_1" xmlns="http://www.w3.org/2000/svg" xmlns:xlink="http://www.w3.org/1999/xlink" x="0px" y="0px"
	 viewBox="0 0 55.7 55.7" style="enable-background:new 0 0 55.7 55.7;" xml:space="preserve">
<style type="text/css">
	.st0{clip-path:url(#XMLID_82_);fill:#D9BE40;}
</style>
<g>
	<defs>
		<rect id="XMLID_1_" width="55.7" height="55.7"/>
	</defs>
	<clipPath id="XMLID_82_">
		<use xlink:href="#XMLID_1_"  style="overflow:visible;"/>
	</clipPath>
	<path id="XMLID_2_" class="st0" d="M47.6,37L47.6,37l-9.1-9.1l15.1-15.1c2.9-2.9,2.9-7.7,0-10.6c-2.9-2.9-7.7-2.9-10.6,0l-6,6
		l-9.1,9.1L12.8,2.2c-2.9-2.9-7.7-2.9-10.6,0c-2.9,2.9-2.9,7.7,0,10.6l6,6l9.1,9.1L2.2,43c-2.9,2.9-2.9,7.7,0,10.6
		c2.9,2.9,7.7,2.9,10.6,0l6-6l0,0l9.1-9.1L43,53.5c2.9,2.9,7.7,2.9,10.6,0c2.9-2.9,2.9-7.7,0-10.6L47.6,37z"/>
</g>
</svg>
