<?xml version="1.0" encoding="utf-8"?>
<!-- Generator: Adobe Illustrator 19.0.0, SVG Export Plug-In . SVG Version: 6.00 Build 0)  -->
<svg version="1.1" id="Layer_1" xmlns="http://www.w3.org/2000/svg" xmlns:xlink="http://www.w3.org/1999/xlink" x="0px" y="0px"
	 viewBox="-230 373 49.2 50" style="enable-background:new -230 373 49.2 50;" xml:space="preserve">
<style type="text/css">
	.st0{fill:#1197CA;}
	.st1{fill:#231F20;}
</style>
<polyline class="st0" points="-230,423 -230,373 -180.8,373 "/>
<path class="st1" d="M-206.2,380.8c0.3,0.2,0.7,0.5,1,0.8c0.4,0.4,0.7,0.9,1.1,1.4c0.3,0.5,0.6,1.2,0.9,1.9c0.2,0.7,0.3,1.6,0.3,2.6
	c0,1.8-0.4,3.2-1.2,4.3c-0.4,0.5-0.8,1-1.2,1.4c-0.5,0.4-0.9,0.9-1.4,1.3c-0.3,0.3-0.6,0.7-0.8,1c-0.3,0.4-0.4,0.9-0.4,1.4
	c0,0.5,0.1,0.9,0.4,1.3c0.3,0.3,0.5,0.6,0.7,0.9l1.7,1.4c1,0.9,1.9,1.8,2.7,2.8c0.7,1.1,1.1,2.4,1.1,4.1c0,2.4-1.1,4.6-3.1,6.4
	c-2.2,1.9-5.3,2.9-9.4,3c-3.4,0-6-0.8-7.7-2.2c-1.7-1.4-2.6-3-2.6-4.9c0-0.9,0.3-1.9,0.8-3.1c0.5-1.1,1.5-2.1,2.9-3
	c1.6-0.9,3.3-1.5,5-1.8c1.7-0.3,3.2-0.4,4.3-0.4c-0.4-0.5-0.7-1-0.9-1.5c-0.3-0.5-0.5-1.1-0.5-1.9c0-0.4,0.1-0.8,0.2-1.1
	c0.1-0.3,0.2-0.6,0.3-0.9c-0.6,0.1-1.1,0.1-1.6,0.1c-2.6,0-4.6-0.9-6-2.5c-1.4-1.5-2.1-3.3-2.1-5.3c0-2.4,1-4.7,3-6.7
	c1.4-1.2,2.8-1.9,4.3-2.3c1.5-0.3,2.9-0.5,4.2-0.5h9.8l-3,1.8L-206.2,380.8L-206.2,380.8z M-204.3,409.5c0-1.3-0.4-2.4-1.2-3.3
	c-0.9-0.9-2.2-2-4-3.3c-0.3,0-0.7,0-1.1,0c-0.3,0-0.9,0-1.9,0.1c-1,0.1-2.1,0.4-3.1,0.7c-0.3,0.1-0.6,0.2-1.1,0.4
	c-0.5,0.2-0.9,0.5-1.4,0.9c-0.5,0.4-0.8,0.9-1.1,1.5c-0.4,0.6-0.5,1.4-0.5,2.3c0,1.7,0.8,3.2,2.3,4.3c1.5,1.1,3.5,1.7,6.1,1.8
	c2.3,0,4.1-0.6,5.3-1.6C-204.9,412.3-204.3,411-204.3,409.5z M-211.2,394.9c1.3,0,2.4-0.5,3.2-1.4c0.4-0.6,0.7-1.3,0.8-1.9
	c0.1-0.7,0.1-1.2,0.1-1.7c0-2-0.5-3.9-1.5-5.9c-0.5-1-1.1-1.7-1.8-2.3c-0.8-0.6-1.7-0.9-2.7-0.9c-1.3,0-2.4,0.6-3.3,1.6
	c-0.7,1.1-1.1,2.3-1.1,3.7c0,1.8,0.5,3.7,1.6,5.6c0.5,0.9,1.1,1.7,1.9,2.3C-213.1,394.6-212.2,394.9-211.2,394.9z"/>
<polygon class="st1" points="-186.9,384.5 -192,384.5 -192,379.2 -194.5,379.2 -194.5,384.5 -199.7,384.5 -199.7,387 -194.5,387 
	-194.5,392.2 -192,392.2 -192,387 -186.9,387 "/>
</svg>
