<?xml version="1.0" encoding="utf-8"?>
<!-- Generator: Adobe Illustrator 16.0.0, SVG Export Plug-In . SVG Version: 6.00 Build 0)  -->
<!DOCTYPE svg PUBLIC "-//W3C//DTD SVG 1.1//EN" "http://www.w3.org/Graphics/SVG/1.1/DTD/svg11.dtd">
<svg version="1.1" id="Layer_1" xmlns="http://www.w3.org/2000/svg" xmlns:xlink="http://www.w3.org/1999/xlink" x="0px" y="0px"
	 width="100px" height="100px" viewBox="0 0 100 100" enable-background="new 0 0 100 100" xml:space="preserve">
<g>
	<path fill="#231F20" d="M29.877,35.932H11.916c-3.273,0-5.938,2.662-5.938,5.936v23.697c0,3.273,2.664,5.938,5.938,5.938h0.99
		v17.961h3.539V67.852h-4.529c-1.283,0-2.289-1.006-2.289-2.287V41.867c0-1.281,1.006-2.287,2.289-2.287h18.07
		c1.281,0,2.287,1.006,2.287,2.287v23.697c0,1.281-1.006,2.287-2.287,2.287h-4.744v21.502h3.539V71.502h1.205
		c3.273,0,5.936-2.664,5.936-5.938V41.852C35.805,38.531,33.148,35.932,29.877,35.932z"/>
	<path fill="#231F20" d="M20.898,32.33c6.018,0,10.914-4.898,10.914-10.914c0-5.916-5-10.914-10.914-10.914
		c-5.92,0-10.914,4.998-10.914,10.914C9.984,27.33,14.979,32.33,20.898,32.33z M20.898,14.041c4.064,0,7.369,3.309,7.369,7.375
		c0,4.062-3.305,7.373-7.369,7.373c-4.068,0-7.375-3.311-7.375-7.373C13.523,17.35,16.83,14.041,20.898,14.041z"/>
	<path fill="#231F20" d="M33.68,10.502v3.539h52.588v42.758c0,1.281-1.002,2.289-2.283,2.289H40.713v3.648h43.162
		c3.273,0,5.938-2.664,5.938-5.938V14.041h3.461v-3.539H33.68z"/>
	<polygon fill="#231F20" points="56.266,66.445 52.727,66.445 52.727,72.963 37.617,87.963 40.156,90.502 52.727,78.039 
		52.727,90.006 56.266,90.006 56.266,78.039 68.836,90.502 71.375,87.963 56.266,72.963 	"/>
</g>
</svg>
