<?xml version="1.0" encoding="utf-8"?>
<!-- Generator: Adobe Illustrator 19.0.0, SVG Export Plug-In . SVG Version: 6.00 Build 0)  -->
<svg version="1.1" id="Layer_1" xmlns="http://www.w3.org/2000/svg" xmlns:xlink="http://www.w3.org/1999/xlink" x="0px" y="0px"
	 viewBox="-230 373.4 50 50" style="enable-background:new -230 373.4 50 50;" xml:space="preserve">
<style type="text/css">
	.st0{fill:#1197CA;}
	.st1{fill:#231F20;}
</style>
<g>
	<polyline class="st0" points="-230,423.4 -230,373.4 -180,373.4 	"/>
	<path class="st1" d="M-221.5,392.7h7.1v22.7h-7.1V392.7z M-217.9,381.4c2.3,0,4.1,1.8,4.1,4.1c0,2.3-1.8,4.1-4.1,4.1
		c-2.3,0-4.1-1.8-4.1-4.1C-222,383.2-220.2,381.4-217.9,381.4"/>
	<path class="st1" d="M-210,392.7h6.8v3.1h0.1c0.9-1.8,3.2-3.7,6.7-3.7c7.1,0,8.5,4.7,8.5,10.8v12.4h-7v-11c0-2.6-0.1-6-3.7-6
		c-3.7,0-4.2,2.9-4.2,5.8v11.2h-7C-210,415.3-210,392.7-210,392.7z"/>
</g>
</svg>
