<?xml version="1.0" encoding="utf-8"?>
<!-- Generator: Adobe Illustrator 16.0.0, SVG Export Plug-In . SVG Version: 6.00 Build 0)  -->
<!DOCTYPE svg PUBLIC "-//W3C//DTD SVG 1.1//EN" "http://www.w3.org/Graphics/SVG/1.1/DTD/svg11.dtd">
<svg version="1.1" id="Layer_1" xmlns="http://www.w3.org/2000/svg" xmlns:xlink="http://www.w3.org/1999/xlink" x="0px" y="0px"
	 width="100px" height="100px" viewBox="0 0 100 100" enable-background="new 0 0 100 100" xml:space="preserve">
<g>
	<path fill="#231F20" d="M74.442,73.932l-6.93-24.93l-0.012-0.031c-0.246-0.49-0.725-0.82-1.191-0.82h-8.629
		c2.479-4.404,3.735-7.789,3.735-10.064c0-6.941-5.368-12.588-11.967-12.588s-11.967,5.646-11.967,12.588
		c0,2.275,1.257,5.66,3.735,10.064h-7.181c-0.505,0-0.979,0.369-1.097,0.844L24.569,73.9c-0.271,0.428-0.064,0.836,0.116,1.105
		l0.021,0.027c0.14,0.139,0.513,0.465,0.952,0.465h47.58c0.423,0,0.76-0.17,0.974-0.492C74.477,74.609,74.552,74.256,74.442,73.932z
		 M49.449,27.916c5.354,0,9.548,4.467,9.548,10.17c0,4.859-8.064,16.262-9.548,18.32c-1.085-1.5-3.05-4.299-4.956-7.449
		c-0.059-0.191-0.156-0.354-0.291-0.482c-2.813-4.721-4.301-8.312-4.301-10.389C39.901,32.479,44.185,27.916,49.449,27.916z
		 M49.449,59.672c0.423,0,0.759-0.17,0.974-0.492c0.033-0.051,0.137-0.191,0.298-0.412c0.802-1.1,3.23-4.426,5.538-8.197h9.193
		l6.213,22.508H27.351l7.537-22.508h7.752c2.309,3.773,4.736,7.1,5.539,8.197c0.16,0.221,0.264,0.361,0.297,0.412
		C48.69,59.502,49.026,59.672,49.449,59.672z"/>
	<path fill="#231F20" d="M49.449,44.777c3.519,0,6.382-3.002,6.382-6.691c0-3.691-2.863-6.693-6.382-6.693s-6.382,3.002-6.382,6.693
		C43.067,41.775,45.931,44.777,49.449,44.777z M49.449,33.812c2.185,0,3.962,1.916,3.962,4.273c0,2.355-1.777,4.271-3.962,4.271
		s-3.962-1.916-3.962-4.271C45.487,35.729,47.265,33.812,49.449,33.812z"/>
</g>
</svg>
