<?xml version="1.0" encoding="utf-8"?>
<!-- Generator: Adobe Illustrator 19.0.0, SVG Export Plug-In . SVG Version: 6.00 Build 0)  -->
<svg version="1.1" id="Layer_1" xmlns="http://www.w3.org/2000/svg" xmlns:xlink="http://www.w3.org/1999/xlink" x="0px" y="0px"
	 viewBox="-255 347 100 100" style="enable-background:new -255 347 100 100;" xml:space="preserve">
<style type="text/css">
	.st0{fill:#FFFFFF;}
</style>
<g>
	<path class="st0" d="M-180.6,420.9l-6.9-24.9l0,0c-0.2-0.5-0.7-0.8-1.2-0.8h-8.6c2.5-4.4,3.7-7.8,3.7-10.1c0-6.9-5.4-12.6-12-12.6
		s-12,5.6-12,12.6c0,2.3,1.3,5.7,3.7,10.1h-7.2c-0.5,0-1,0.4-1.1,0.8l-8.4,24.9c-0.3,0.4-0.1,0.8,0.1,1.1l0,0c0.1,0.1,0.5,0.5,1,0.5
		h47.6c0.4,0,0.8-0.2,1-0.5C-180.5,421.6-180.4,421.3-180.6,420.9z M-205.6,374.9c5.4,0,9.5,4.5,9.5,10.2c0,4.9-8.1,16.3-9.5,18.3
		c-1.1-1.5-3.1-4.3-5-7.4c-0.1-0.2-0.2-0.4-0.3-0.5c-2.8-4.7-4.3-8.3-4.3-10.4C-215.1,379.5-210.8,374.9-205.6,374.9z M-205.6,406.7
		c0.4,0,0.8-0.2,1-0.5c0-0.1,0.1-0.2,0.3-0.4c0.8-1.1,3.2-4.4,5.5-8.2h9.2l6.2,22.5h-44.3l7.5-22.5h7.8c2.3,3.8,4.7,7.1,5.5,8.2
		c0.2,0.2,0.3,0.4,0.3,0.4C-206.3,406.5-206,406.7-205.6,406.7z"/>
	<path class="st0" d="M-205.6,391.8c3.5,0,6.4-3,6.4-6.7c0-3.7-2.9-6.7-6.4-6.7c-3.5,0-6.4,3-6.4,6.7
		C-211.9,388.8-209.1,391.8-205.6,391.8z M-205.6,380.8c2.2,0,4,1.9,4,4.3c0,2.4-1.8,4.3-4,4.3s-4-1.9-4-4.3
		C-209.5,382.7-207.7,380.8-205.6,380.8z"/>
</g>
</svg>
