<?xml version="1.0" encoding="utf-8"?>
<!-- Generator: Adobe Illustrator 19.0.0, SVG Export Plug-In . SVG Version: 6.00 Build 0)  -->
<svg version="1.1" id="Layer_1" xmlns="http://www.w3.org/2000/svg" xmlns:xlink="http://www.w3.org/1999/xlink" x="0px" y="0px"
	 viewBox="0 0 50.1 50" style="enable-background:new 0 0 50.1 50;" xml:space="preserve">
<style type="text/css">
	.st0{fill:#5696C6;}
</style>
<g>
	<path class="st0" d="M50,48.4l-6.9-24.9l0,0c-0.2-0.5-0.7-0.8-1.2-0.8h-8.6c2.5-4.4,3.7-7.8,3.7-10.1C37,5.6,31.6,0,25,0
		c-6.6,0-12,5.6-12,12.6c0,2.3,1.3,5.7,3.7,10.1H9.6c-0.5,0-1,0.4-1.1,0.8L0.1,48.4c-0.3,0.4-0.1,0.8,0.1,1.1l0,0
		c0.1,0.1,0.5,0.5,1,0.5h47.6c0.4,0,0.8-0.2,1-0.5C50,49.1,50.1,48.8,50,48.4z M25,2.4c5.4,0,9.5,4.5,9.5,10.2
		c0,4.9-8.1,16.3-9.5,18.3c-1.1-1.5-3-4.3-5-7.4c-0.1-0.2-0.2-0.4-0.3-0.5c-2.8-4.7-4.3-8.3-4.3-10.4C15.5,7,19.7,2.4,25,2.4z
		 M25,34.2c0.4,0,0.8-0.2,1-0.5c0-0.1,0.1-0.2,0.3-0.4c0.8-1.1,3.2-4.4,5.5-8.2H41l6.2,22.5H2.9l7.5-22.5h7.8
		c2.3,3.8,4.7,7.1,5.5,8.2c0.2,0.2,0.3,0.4,0.3,0.4C24.3,34,24.6,34.2,25,34.2z"/>
	<path class="st0" d="M25,19.3c3.5,0,6.4-3,6.4-6.7c0-3.7-2.9-6.7-6.4-6.7c-3.5,0-6.4,3-6.4,6.7C18.6,16.3,21.5,19.3,25,19.3z
		 M25,8.3c2.2,0,4,1.9,4,4.3c0,2.4-1.8,4.3-4,4.3c-2.2,0-4-1.9-4-4.3C21,10.2,22.8,8.3,25,8.3z"/>
</g>
</svg>
