<?xml version="1.0" encoding="utf-8"?>
<!-- Generator: Adobe Illustrator 19.0.0, SVG Export Plug-In . SVG Version: 6.00 Build 0)  -->
<svg version="1.1" id="Layer_1" xmlns="http://www.w3.org/2000/svg" xmlns:xlink="http://www.w3.org/1999/xlink" x="0px" y="0px"
	 viewBox="0 0 45 45" style="enable-background:new 0 0 45 45;" xml:space="preserve">
<style type="text/css">
	.st0{fill:#FDFDFE;}
</style>
<g>
	<path class="st0" d="M45,43.6l-6.2-22.4l0,0c-0.2-0.4-0.7-0.7-1.1-0.7h-7.8c2.2-4,3.4-7,3.4-9.1C33.3,5.1,28.4,0,22.5,0
		c-5.9,0-10.8,5.1-10.8,11.3c0,2,1.1,5.1,3.4,9.1H8.6c-0.5,0-0.9,0.3-1,0.8L0.1,43.6c-0.2,0.4-0.1,0.8,0.1,1l0,0
		C0.4,44.7,0.7,45,1.1,45h42.8c0.4,0,0.7-0.2,0.9-0.4C45,44.2,45.1,43.9,45,43.6z M22.5,2.2c4.8,0,8.6,4,8.6,9.2
		c0,4.4-7.3,14.6-8.6,16.5c-1-1.3-2.7-3.9-4.5-6.7c-0.1-0.2-0.1-0.3-0.3-0.4c-2.5-4.3-3.9-7.5-3.9-9.4C13.9,6.3,17.8,2.2,22.5,2.2z
		 M22.5,30.8c0.4,0,0.7-0.2,0.9-0.4c0,0,0.1-0.2,0.3-0.4c0.7-1,2.9-4,5-7.4h8.3l5.6,20.3H2.6l6.8-20.3h7c2.1,3.4,4.3,6.4,5,7.4
		c0.1,0.2,0.2,0.3,0.3,0.4C21.8,30.6,22.1,30.8,22.5,30.8z"/>
	<path class="st0" d="M22,17.3c3.2,0.3,6-2.2,6.2-5.5c0.3-3.3-2-6.2-5.2-6.5c-3.2-0.3-6,2.2-6.2,5.5C16.5,14.1,18.8,17,22,17.3z
		 M22.8,7.5c2,0.2,3.4,2,3.2,4.1c-0.2,2.1-1.9,3.7-3.9,3.5c-2-0.2-3.4-2-3.2-4.1C19.1,8.9,20.9,7.3,22.8,7.5z"/>
</g>
</svg>
