<?xml version="1.0" encoding="utf-8"?>
<!-- Generator: Adobe Illustrator 19.0.0, SVG Export Plug-In . SVG Version: 6.00 Build 0)  -->
<svg version="1.1" id="Layer_1" xmlns="http://www.w3.org/2000/svg" xmlns:xlink="http://www.w3.org/1999/xlink" x="0px" y="0px"
	 viewBox="0 0 99 59" style="enable-background:new 0 0 99 59;" xml:space="preserve">
<style type="text/css">
	.st0{fill:#FFFFFF;}
</style>
<g>
	<path class="st0" d="M60.6,15.8c-0.7,0-1.2-0.5-1.2-1.2V6.1c0-0.7,0.5-1.2,1.2-1.2c0.7,0,1.2,0.5,1.2,1.2v8.5
		C61.8,15.2,61.3,15.8,60.6,15.8z"/>
	<path class="st0" d="M38.2,15.8c-0.7,0-1.2-0.5-1.2-1.2V6.1c0-0.7,0.5-1.2,1.2-1.2s1.2,0.5,1.2,1.2v8.5
		C39.3,15.2,38.8,15.8,38.2,15.8z"/>
	<g>
		<rect x="41.7" y="8.7" class="st0" width="15.4" height="2.2"/>
		<path class="st0" d="M89.5,8.7H64.2V11h25.3c1.2,0,2.2,1,2.2,2.2v37c0,1.2-1,2.2-2.2,2.2H9.3c-1.2,0-2.2-1-2.2-2.2v-37
			C7,12,8,11,9.3,11h25.3V8.8H9.3c-2.5,0-4.6,2-4.6,4.6v37c0,2.5,2,4.6,4.6,4.6h80.3c2.5,0,4.6-2,4.6-4.6V13.3
			C94.1,10.7,92,8.7,89.5,8.7z"/>
	</g>
</g>
</svg>
