<?xml version="1.0" encoding="utf-8"?>
<!-- Generator: Adobe Illustrator 19.0.0, SVG Export Plug-In . SVG Version: 6.00 Build 0)  -->
<svg version="1.1" id="Layer_1" xmlns="http://www.w3.org/2000/svg" xmlns:xlink="http://www.w3.org/1999/xlink" x="0px" y="0px"
	 viewBox="-262 367 100.2 100" style="enable-background:new -262 367 100.2 100;" xml:space="preserve">
<style type="text/css">
	.st0{fill:#FFFFFF;}
</style>
<g>
	<path class="st0" d="M-200.8,402.9c-0.7,0-1.2-0.5-1.2-1.2v-8.5c0-0.7,0.5-1.2,1.2-1.2s1.2,0.5,1.2,1.2v8.5
		C-199.6,402.3-200.1,402.9-200.8,402.9z"/>
	<path class="st0" d="M-223.1,402.9c-0.7,0-1.2-0.5-1.2-1.2v-8.5c0-0.7,0.5-1.2,1.2-1.2c0.7,0,1.2,0.5,1.2,1.2v8.5
		C-222.1,402.3-222.6,402.9-223.1,402.9z"/>
	<g>
		<rect x="-219.6" y="395.8" class="st0" width="15.4" height="2.2"/>
		<path class="st0" d="M-171.9,395.8h-25.3v2.3h25.3c1.2,0,2.2,1,2.2,2.2v37c0,1.2-1,2.2-2.2,2.2h-80.2c-1.2,0-2.2-1-2.2-2.2v-37
			c-0.1-1.2,0.9-2.2,2.2-2.2h25.3v-2.2h-25.3c-2.5,0-4.6,2-4.6,4.6v37c0,2.5,2,4.6,4.6,4.6h80.3c2.5,0,4.6-2,4.6-4.6v-37.1
			C-167.3,397.8-169.4,395.8-171.9,395.8z"/>
	</g>
</g>
</svg>
