<?xml version="1.0" encoding="utf-8"?>
<!-- Generator: Adobe Illustrator 19.0.0, SVG Export Plug-In . SVG Version: 6.00 Build 0)  -->
<svg version="1.1" id="Layer_1" xmlns="http://www.w3.org/2000/svg" xmlns:xlink="http://www.w3.org/1999/xlink" x="0px" y="0px"
	 viewBox="-231 381.6 147.4 30" style="enable-background:new -231 381.6 147.4 30;" xml:space="preserve">
<style type="text/css">
	.st0{fill:#FFFFFF;}
</style>
<g>
	<path class="st0" d="M-95.3,393.7c0.8-0.9,1.7-1.4,2.8-1.4s2.1,0.5,2.9,1.4s1.2,2.1,1.2,3.4c0,1.4-0.4,2.5-1.2,3.3
		c-0.8,0.9-1.8,1.3-2.9,1.3c-1.1,0-2-0.4-2.8-1.3s-1.1-2-1.1-3.4C-96.5,395.8-96.1,394.6-95.3,393.7 M-96.4,390.6v-8.3h-4.7v23.3
		h4.7v-2.2c1.3,1.7,3,2.5,5,2.5s3.8-0.8,5.4-2.5c1.6-1.7,2.4-3.8,2.4-6.3s-0.8-4.6-2.3-6.2s-3.3-2.4-5.4-2.4
		C-93.5,388.4-95.1,389.1-96.4,390.6 M-111.2,401.2c-0.6,0.5-1.4,0.8-2.2,0.8c-0.8,0-1.5-0.2-1.9-0.5c-0.5-0.3-0.7-0.8-0.7-1.4
		c0-1.2,0.9-1.8,2.8-1.8h3v0.8C-110.2,400-110.5,400.7-111.2,401.2 M-105.5,394.8c0-2.2-0.7-3.8-1.9-4.9c-1.3-1-3-1.5-5-1.5
		c-2.9,0-5.4,0.8-7.6,2.4l2.1,3c0.6-0.5,1.4-0.9,2.3-1.2c0.9-0.3,1.8-0.5,2.6-0.5c1.9,0,2.9,0.9,2.9,2.7v0.2h-3.5
		c-2.2,0-3.9,0.4-5.2,1.3c-1.3,0.9-1.9,2.2-1.9,3.9c0,1.7,0.6,3.1,1.8,4.2c1.2,1,2.7,1.6,4.5,1.6s3.3-0.8,4.5-2.3v2h4.4
		L-105.5,394.8L-105.5,394.8z M-122.9,405.6v-4.4h-9.4v-19h-4.9v23.3h14.3V405.6z M-157.2,393.2c0.7-0.7,1.5-1,2.5-1
		c1.9,0,2.9,1.3,2.9,3.9v9.6h4.7v-10.4c0-2.1-0.6-3.8-1.8-5s-2.7-1.9-4.5-1.9s-3.4,0.7-4.8,2.2v-1.9h-4.7v16.9h4.7v-9.4
		C-158.2,394.8-157.9,393.8-157.2,393.2 M-171.1,395.4h-7.4c0.1-1,0.6-1.7,1.4-2.3s1.6-0.8,2.6-0.8c0.9,0,1.7,0.3,2.4,0.8
		C-171.6,393.7-171.2,394.4-171.1,395.4 M-170.4,400.3c-1.1,1.1-2.4,1.7-4.1,1.7c-1,0-1.9-0.3-2.8-0.9c-0.8-0.6-1.3-1.3-1.4-2.3
		h12.4v-2.5c0-2.5-0.8-4.4-2.4-5.8c-1.6-1.4-3.6-2.1-5.9-2.1s-4.3,0.8-6.1,2.4c-1.7,1.6-2.6,3.7-2.6,6.4c0,2.7,0.8,4.8,2.5,6.4
		s3.8,2.4,6.4,2.4c2.6,0,4.8-0.9,6.7-2.7L-170.4,400.3z M-197.5,393.7c0.8-0.9,1.7-1.4,2.8-1.4s2.1,0.5,2.9,1.4
		c0.8,0.9,1.2,2.1,1.2,3.4c0,1.4-0.4,2.5-1.2,3.3c-0.8,0.9-1.8,1.3-2.9,1.3c-1.1,0-2-0.4-2.8-1.3s-1.1-2-1.1-3.4
		C-198.7,395.8-198.3,394.6-197.5,393.7 M-198.6,390.6v-1.9h-4.7v23h4.7v-8.3c1.3,1.7,2.9,2.5,5,2.5s3.9-0.8,5.4-2.5
		s2.3-3.8,2.3-6.3s-0.8-4.6-2.3-6.2s-3.3-2.5-5.3-2.5S-197.2,389.1-198.6,390.6"/>
	<path class="st0" d="M-206.6,393.8c0-3.4-1.2-6.3-3.5-8.6c-2.4-2.3-5.3-3.5-8.7-3.5c-3.5,0-6.4,1.2-8.7,3.5
		c-2.4,2.3-3.5,5.2-3.5,8.6s1.2,6.3,3.5,8.6c1.5,1.5,3.3,2.5,5.2,3l1.4-4.5c-1-0.3-2-0.9-2.8-1.8c-1.3-1.5-2-3.2-2-5.3
		c0-2.1,0.7-3.9,2-5.3c1.3-1.5,3-2.2,4.9-2.2s3.6,0.7,4.9,2.2c1.3,1.5,2,3.2,2,5.3c0,2.1-0.7,3.9-2,5.3c-0.8,0.9-1.8,1.5-2.8,1.8
		l1.4,4.5c2-0.5,3.7-1.5,5.2-3C-207.8,400.1-206.6,397.2-206.6,393.8"/>
</g>
</svg>
