<?xml version="1.0" encoding="utf-8"?>
<!-- Generator: Adobe Illustrator 19.0.0, SVG Export Plug-In . SVG Version: 6.00 Build 0)  -->
<svg version="1.1" id="Layer_1" xmlns="http://www.w3.org/2000/svg" xmlns:xlink="http://www.w3.org/1999/xlink" x="0px" y="0px"
	 viewBox="0 0 293.9 276.3" style="enable-background:new 0 0 293.9 276.3;" xml:space="preserve">
<style type="text/css">
	.st0{fill:#E5C02D;}
</style>
<g>
	<path class="st0" d="M61.1,176.5c-0.1-1.8-1.5-3.2-3.3-3.2h-4.4c-1.8,0-3.2,1.4-3.2,3.2v6.6c0,1,0.9,1.9,1.9,1.9h0.3v6.5
		c0,1,0.9,1.9,1.9,1.9c0.5,0,1-0.2,1.3-0.6c0.4,0.4,0.8,0.6,1.3,0.6c1,0,1.9-0.8,1.9-1.9V185h0.3c1,0,1.9-0.9,1.9-1.9V176.5z
		 M58.2,176.8c-0.3,0-0.6,0.3-0.6,0.6v14.1c0,0.4-0.3,0.7-0.6,0.8c-0.2,0-0.5,0-0.7-0.2c-0.1-0.1-0.2-0.3-0.2-0.5v-7.1
		c0-0.3-0.3-0.6-0.6-0.6c-0.3,0-0.6,0.3-0.6,0.6v7.1c0,0.4-0.3,0.7-0.8,0.7c0,0-0.1,0-0.1,0c-0.4-0.1-0.6-0.4-0.6-0.8v-14.1
		c0-0.3-0.3-0.6-0.6-0.6c-0.3,0-0.6,0.3-0.6,0.6v6.5h-0.3c-0.4,0-0.8-0.3-0.8-0.8v-6.6c0-1.2,0.9-2.1,2.1-2.1h4.4
		c1.2,0,2.1,0.9,2.1,2.1v6.5h0v0.1c0,0.4-0.3,0.8-0.8,0.8h-0.3v-6.5C58.8,177.1,58.5,176.8,58.2,176.8z"/>
	<path class="st0" d="M55.6,173.1c1.4,0,2.5-1.1,2.5-2.5c0-1.4-1.1-2.5-2.5-2.5c-1.4,0-2.5,1.1-2.5,2.5
		C53.1,172,54.2,173.1,55.6,173.1z M54.6,169.6c0.3-0.3,0.6-0.4,1-0.4c0.8,0,1.4,0.6,1.4,1.4c0,0.8-0.6,1.4-1.4,1.4
		c-0.8,0-1.4-0.6-1.4-1.4C54.2,170.2,54.3,169.9,54.6,169.6z"/>
	<path class="st0" d="M189.5,40.8c-0.1-1.8-1.5-3.2-3.3-3.2h-4.4c-1.8,0-3.2,1.4-3.2,3.2v6.6c0,1,0.9,1.9,1.9,1.9h0.3v6.5
		c0,1,0.9,1.9,1.9,1.9c0.5,0,1-0.2,1.3-0.6c0.4,0.4,0.8,0.6,1.3,0.6c1,0,1.9-0.9,1.9-1.9v-6.5h0.3c1,0,1.9-0.9,1.9-1.9V40.8z
		 M186.7,41.1c-0.3,0-0.6,0.3-0.6,0.6v14.1c0,0.4-0.3,0.7-0.6,0.8c-0.2,0-0.5,0-0.7-0.2c-0.1-0.1-0.2-0.3-0.2-0.5v-7.1
		c0-0.3-0.3-0.6-0.6-0.6c-0.3,0-0.6,0.3-0.6,0.6v7.1c0,0.4-0.3,0.7-0.8,0.7c0,0-0.1,0-0.1,0c-0.4-0.1-0.6-0.4-0.6-0.8V41.7
		c0-0.3-0.3-0.6-0.6-0.6c-0.3,0-0.6,0.3-0.6,0.6v6.5h-0.3c-0.4,0-0.8-0.3-0.8-0.8v-6.6c0-1.2,0.9-2.1,2.1-2.1h4.4
		c1.2,0,2.1,0.9,2.1,2.1v6.5h0v0.1c0,0.4-0.3,0.8-0.8,0.8h-0.3v-6.5C187.3,41.4,187,41.1,186.7,41.1z"/>
	<path class="st0" d="M184.1,37.4c1.4,0,2.5-1.1,2.5-2.5c0-1.4-1.1-2.5-2.5-2.5c-1.4,0-2.5,1.1-2.5,2.5
		C181.5,36.3,182.7,37.4,184.1,37.4z M183,33.9c0.3-0.3,0.6-0.4,1-0.4c0.8,0,1.4,0.6,1.4,1.4c0,0.8-0.6,1.4-1.4,1.4
		c-0.8,0-1.4-0.6-1.4-1.4C182.6,34.5,182.8,34.2,183,33.9z"/>
	<path class="st0" d="M225.1,70c-0.1-1.8-1.5-3.2-3.3-3.2h-4.4c-1.8,0-3.2,1.4-3.2,3.2v6.6c0,1,0.9,1.9,1.9,1.9h0.3V85
		c0,1,0.9,1.9,1.9,1.9c0.5,0,1-0.2,1.3-0.6c0.4,0.4,0.8,0.6,1.3,0.6c1,0,1.9-0.9,1.9-1.9v-6.5h0.3c1,0,1.9-0.9,1.9-1.9V70z
		 M222.2,70.3c-0.3,0-0.6,0.3-0.6,0.6V85c0,0.4-0.3,0.7-0.6,0.8c-0.2,0-0.5,0-0.7-0.2c-0.1-0.1-0.2-0.3-0.2-0.5V78
		c0-0.3-0.3-0.6-0.6-0.6c-0.3,0-0.6,0.3-0.6,0.6V85c0,0.4-0.3,0.7-0.8,0.7c0,0-0.1,0-0.1,0c-0.4-0.1-0.6-0.4-0.6-0.8V70.9
		c0-0.3-0.3-0.6-0.6-0.6c-0.3,0-0.6,0.3-0.6,0.6v6.5h-0.3c-0.4,0-0.8-0.3-0.8-0.8V70c0-1.2,0.9-2.1,2.1-2.1h4.4
		c1.2,0,2.1,0.9,2.1,2.1v6.5h0v0.1c0,0.4-0.3,0.8-0.8,0.8h-0.3v-6.5C222.8,70.6,222.5,70.3,222.2,70.3z"/>
	<path class="st0" d="M219.6,66.7c1.4,0,2.5-1.1,2.5-2.5c0-1.4-1.1-2.5-2.5-2.5s-2.5,1.1-2.5,2.5C217.1,65.5,218.2,66.7,219.6,66.7z
		 M218.6,63.2c0.3-0.3,0.6-0.4,1-0.4c0.8,0,1.4,0.6,1.4,1.4c0,0.8-0.6,1.4-1.4,1.4c-0.8,0-1.4-0.6-1.4-1.4
		C218.2,63.8,218.3,63.4,218.6,63.2z"/>
	<path class="st0" d="M245.1,226.7c-0.3-1.5-1.6-2.5-3.1-2.5h-2.7c-1.5,0-2.8,1-3.1,2.4l-1.6,6.6c-0.2,1,0.4,2,1.4,2.3l0.3,0.1
		l-0.4,1.8l0,0.2c0,0.1,0,0.2,0.1,0.3c0,0,0,0,0,0c0,0,0.1,0.1,0.2,0.1c0,0,0.1,0,0.1,0c0,0,0,0,0.1,0l0,0h1.1v4.3
		c0,1,0.9,1.9,1.9,1.9c0.5,0,1-0.2,1.3-0.6c0.4,0.4,0.8,0.6,1.3,0.6c1,0,1.9-0.9,1.9-1.9v-4.3h1c0.1,0,0.1,0,0.2-0.1
		c0.1,0,0.1-0.1,0.2-0.2c0.1-0.1,0.1-0.2,0.1-0.3c0,0,0,0,0,0c0,0,0-0.1,0-0.1v0l-0.4-1.8l0.3-0.1c0.5-0.1,0.9-0.4,1.2-0.9
		c0.3-0.4,0.4-0.9,0.2-1.4L245.1,226.7z M242.6,227.7c-0.1,0-0.1,0-0.2,0c-0.2,0-0.3,0.1-0.4,0.3c-0.1,0.1-0.1,0.3,0,0.4l2,8.6h-1.4
		v5.4c0,0.4-0.3,0.7-0.6,0.8c-0.2,0-0.5,0-0.7-0.2c-0.1-0.1-0.2-0.3-0.2-0.5v-4.9c0-0.3-0.3-0.6-0.6-0.6c-0.3,0-0.5,0.2-0.5,0.6v4.9
		c0,0.4-0.3,0.7-0.8,0.7c0,0-0.1,0-0.1,0c-0.4-0.1-0.6-0.4-0.6-0.8V237h-1.4l2-8.6c0-0.2,0-0.3-0.1-0.4c-0.1-0.1-0.2-0.2-0.4-0.2
		c0,0-0.1,0-0.1,0c-0.3,0-0.5,0.2-0.5,0.4l-1.5,6.3l-0.3-0.1c-0.2,0-0.3-0.1-0.5-0.3c-0.1-0.1-0.2-0.3-0.1-0.6l1.6-6.6l0.1-0.3
		c0.3-0.8,1-1.3,1.9-1.3h2.7c1,0,1.8,0.6,2,1.6l1.6,6.6c0,0.2,0,0.4-0.1,0.6c-0.1,0.2-0.3,0.3-0.5,0.3l-0.3,0.1l-1.5-6.4
		C243.1,227.9,242.8,227.7,242.6,227.7z"/>
	<path class="st0" d="M240.6,224.1c1.4,0,2.5-1.1,2.5-2.5s-1.1-2.5-2.5-2.5s-2.5,1.1-2.5,2.5S239.2,224.1,240.6,224.1z M240.6,220.1
		c0.8,0,1.4,0.6,1.4,1.4s-0.6,1.4-1.4,1.4c-0.8,0-1.4-0.6-1.4-1.4S239.8,220.1,240.6,220.1z"/>
	<path class="st0" d="M76.1,29.9c-0.3-1.5-1.6-2.5-3.1-2.5h-2.7c-1.5,0-2.8,1-3.1,2.4l-1.6,6.6c-0.2,1,0.4,2,1.4,2.3l0.3,0.1
		l-0.4,1.8l0,0.2c0,0.1,0,0.2,0.1,0.3c0,0,0,0,0,0c0,0,0.1,0.1,0.2,0.1c0,0,0.1,0,0.1,0c0,0,0,0,0.1,0l0,0h1.1v4.3
		c0,1,0.9,1.9,1.9,1.9c0.5,0,1-0.2,1.3-0.6c0.4,0.4,0.8,0.6,1.3,0.6c1,0,1.9-0.8,1.9-1.9v-4.3h1c0.1,0,0.1,0,0.2-0.1
		c0.1,0,0.1-0.1,0.2-0.2c0.1-0.1,0.1-0.2,0.1-0.3c0,0,0,0,0,0c0,0,0-0.1,0-0.1v0L76,38.8l0.3-0.1c0.5-0.1,0.9-0.4,1.2-0.9
		c0.3-0.4,0.4-0.9,0.2-1.4L76.1,29.9z M73.6,31c-0.1,0-0.1,0-0.2,0c-0.2,0-0.3,0.1-0.4,0.3c-0.1,0.1-0.1,0.3,0,0.4l2,8.6h-1.4v5.4
		c0,0.4-0.3,0.7-0.6,0.8c-0.2,0-0.5,0-0.7-0.2c-0.1-0.1-0.2-0.3-0.2-0.5v-4.9c0-0.3-0.3-0.6-0.6-0.6c-0.3,0-0.5,0.2-0.5,0.6v4.9
		c0,0.4-0.3,0.7-0.8,0.7c0,0-0.1,0-0.1,0c-0.4-0.1-0.6-0.4-0.6-0.8v-5.4h-1.4l2-8.6c0-0.2,0-0.3-0.1-0.4c-0.1-0.1-0.2-0.2-0.4-0.2
		c0,0-0.1,0-0.1,0c-0.3,0-0.5,0.2-0.5,0.4l-1.5,6.3l-0.3-0.1c-0.2,0-0.3-0.1-0.5-0.3c-0.1-0.1-0.2-0.3-0.1-0.6l1.6-6.6l0.1-0.3
		c0.3-0.8,1-1.3,1.9-1.3H73c1,0,1.8,0.6,2,1.6l1.6,6.6c0,0.2,0,0.4-0.1,0.6c-0.1,0.2-0.3,0.3-0.5,0.3l-0.3,0.1l-1.5-6.4
		C74.1,31.1,73.9,31,73.6,31z"/>
	<path class="st0" d="M71.6,27.3c1.4,0,2.5-1.1,2.5-2.5c0-1.4-1.1-2.5-2.5-2.5c-1.4,0-2.5,1.1-2.5,2.5
		C69.1,26.2,70.2,27.3,71.6,27.3z M71.6,23.4c0.8,0,1.4,0.6,1.4,1.4c0,0.8-0.6,1.4-1.4,1.4c-0.8,0-1.4-0.6-1.4-1.4
		C70.2,24,70.9,23.4,71.6,23.4z"/>
	<path class="st0" d="M207.3,52.3c-0.3-1.5-1.6-2.5-3.1-2.5h-2.7c-1.5,0-2.8,1-3.1,2.4l-1.6,6.6c-0.2,1,0.4,2,1.4,2.3l0.3,0.1
		l-0.4,1.8l0,0.2c0,0.1,0,0.2,0.1,0.3c0,0,0,0,0,0c0,0,0.1,0.1,0.2,0.1c0,0,0.1,0,0.1,0c0,0,0,0,0.1,0l0,0h1.1v4.3
		c0,1,0.9,1.9,1.9,1.9c0.5,0,1-0.2,1.3-0.6c0.4,0.4,0.8,0.6,1.3,0.6c1,0,1.9-0.9,1.9-1.9v-4.3h1c0.1,0,0.1,0,0.2-0.1
		c0.1,0,0.1-0.1,0.2-0.2c0.1-0.1,0.1-0.2,0.1-0.3c0,0,0,0,0,0c0,0,0-0.1,0-0.1v0l-0.4-1.8l0.3-0.1c0.5-0.1,0.9-0.4,1.2-0.9
		c0.3-0.4,0.4-0.9,0.2-1.4L207.3,52.3z M204.8,53.3c-0.1,0-0.1,0-0.2,0c-0.2,0-0.3,0.1-0.4,0.3c-0.1,0.1-0.1,0.3,0,0.4l2,8.6h-1.4
		V68c0,0.4-0.3,0.7-0.6,0.8c-0.2,0-0.5,0-0.7-0.2c-0.1-0.1-0.2-0.3-0.2-0.5v-4.9c0-0.3-0.3-0.6-0.6-0.6c-0.3,0-0.5,0.2-0.5,0.6v4.9
		c0,0.4-0.3,0.7-0.8,0.7c0,0-0.1,0-0.1,0c-0.4-0.1-0.6-0.4-0.6-0.8v-5.4h-1.4l2-8.6c0-0.2,0-0.3-0.1-0.4c-0.1-0.1-0.2-0.2-0.4-0.2
		c0,0-0.1,0-0.1,0c-0.3,0-0.5,0.2-0.5,0.4l-1.5,6.3l-0.3-0.1c-0.2,0-0.3-0.2-0.5-0.3c-0.1-0.1-0.2-0.3-0.1-0.6l1.6-6.6l0.1-0.3
		c0.3-0.8,1.1-1.3,1.9-1.3h2.7c1,0,1.8,0.6,2,1.6l1.6,6.6c0,0.2,0,0.4-0.1,0.6c-0.1,0.2-0.3,0.3-0.5,0.3l-0.3,0.1l-1.5-6.4
		C205.3,53.5,205,53.3,204.8,53.3z"/>
	<path class="st0" d="M202.8,49.7c1.4,0,2.5-1.1,2.5-2.5c0-1.4-1.1-2.5-2.5-2.5c-1.4,0-2.5,1.1-2.5,2.5
		C200.2,48.5,201.4,49.7,202.8,49.7z M202.8,45.7c0.8,0,1.4,0.6,1.4,1.4c0,0.8-0.6,1.4-1.4,1.4c-0.8,0-1.4-0.6-1.4-1.4
		C201.4,46.4,202,45.7,202.8,45.7z"/>
	<path class="st0" d="M53.9,115.9H37.6c-0.3,0-0.6,0.3-0.6,0.6c0,0.3,0.3,0.6,0.6,0.6h16.3c0.3,0,0.6-0.3,0.6-0.6
		C54.5,116.2,54.2,115.9,53.9,115.9z"/>
	<path class="st0" d="M58.8,100.8c-0.1-0.1-0.3-0.2-0.4-0.2H37.6c-0.3,0-0.6,0.3-0.6,0.6v4.6c0,4.5,3.9,8.1,8.7,8.1
		c4.4,0,8.1-3,8.7-7c3.5-0.3,4.5-3.9,4.5-5.7C58.9,101.1,58.9,101,58.8,100.8z M57.7,101.8c-0.1,1.2-0.7,3.6-3.2,4v-4H57.7z
		 M45.7,112.8c-4.2,0-7.6-3.1-7.6-6.9v-4h15.1v4C53.3,109.7,49.9,112.8,45.7,112.8z"/>
	<path class="st0" d="M42.6,96.2c0,0.3-0.1,0.4-0.2,0.7c-0.2,0.3-0.5,0.6-0.5,1.3c0,0.3,0.3,0.6,0.6,0.6c0.3,0,0.6-0.3,0.6-0.6
		c0-0.3,0.1-0.4,0.2-0.7c0.2-0.3,0.5-0.6,0.5-1.3c0-0.7-0.3-1.1-0.5-1.3c-0.2-0.2-0.2-0.3-0.2-0.7c0-0.3,0.1-0.4,0.2-0.7
		c0.2-0.3,0.5-0.6,0.5-1.3c0-0.3-0.3-0.6-0.6-0.6c-0.3,0-0.6,0.3-0.6,0.6c0,0.3-0.1,0.4-0.2,0.7c-0.2,0.3-0.5,0.6-0.5,1.3
		c0,0.7,0.3,1.1,0.5,1.3C42.5,95.8,42.6,95.9,42.6,96.2z"/>
	<path class="st0" d="M45.5,96.2c0,0.3-0.1,0.4-0.2,0.7c-0.2,0.3-0.5,0.6-0.5,1.3c0,0.3,0.3,0.6,0.6,0.6c0.3,0,0.6-0.3,0.6-0.6
		c0-0.3,0.1-0.4,0.2-0.7c0.2-0.3,0.5-0.6,0.5-1.3c0-0.7-0.3-1.1-0.5-1.3c-0.2-0.2-0.2-0.3-0.2-0.7c0-0.3,0.1-0.4,0.2-0.7
		c0.2-0.3,0.5-0.6,0.5-1.3c0-0.3-0.3-0.6-0.6-0.6c-0.3,0-0.6,0.3-0.6,0.6c0,0.3-0.1,0.4-0.2,0.7c-0.2,0.3-0.5,0.6-0.5,1.3
		c0,0.7,0.3,1.1,0.5,1.3C45.4,95.8,45.5,95.9,45.5,96.2z"/>
	<path class="st0" d="M48.4,96.2c0,0.3-0.1,0.4-0.2,0.7c-0.2,0.3-0.5,0.6-0.5,1.3c0,0.3,0.3,0.6,0.6,0.6c0.3,0,0.6-0.3,0.6-0.6
		c0-0.3,0.1-0.4,0.2-0.7c0.2-0.3,0.5-0.6,0.5-1.3c0-0.7-0.3-1.1-0.5-1.3c-0.2-0.2-0.2-0.3-0.2-0.7c0-0.3,0.1-0.4,0.2-0.7
		c0.2-0.3,0.5-0.6,0.5-1.3c0-0.3-0.3-0.6-0.6-0.6c-0.3,0-0.6,0.3-0.6,0.6c0,0.3-0.1,0.4-0.2,0.7c-0.2,0.3-0.5,0.6-0.5,1.3
		c0,0.7,0.3,1.1,0.5,1.3C48.3,95.8,48.4,95.9,48.4,96.2z"/>
	<path class="st0" d="M285,115.7c-0.3-1.1-1.1-1.9-2.2-2.2c-0.3-0.1-0.5-0.1-0.8-0.1c-0.7,0-1.4,0.2-1.9,0.6c-0.6,0.5-1,1.1-1.2,1.9
		h-9.4l-1.5-2.2c-0.1-0.2-0.3-0.3-0.5-0.3c-0.1,0-0.2,0-0.3,0.1c-0.1,0.1-0.2,0.2-0.3,0.4c0,0.2,0,0.3,0.1,0.4l1,1.6h-1.2
		c-0.2,0-0.4,0.1-0.5,0.3c-0.1,0.2-0.1,0.4,0,0.6l7.5,11.2v9.7h-3.2c-0.3,0-0.6,0.3-0.6,0.6c0,0.3,0.3,0.6,0.6,0.6h7.6
		c0.3,0,0.6-0.3,0.6-0.6c0-0.3-0.3-0.6-0.6-0.6H275v-9.9c0,0,0,0,0,0l0,0c0,0,0,0,0,0l0,0c0-0.1-0.1-0.2-0.1-0.2l-5.2-7.9h0.8
		l3.7,5.6c0.1,0.2,0.3,0.3,0.5,0.3c0.1,0,0.2,0,0.3-0.1c0.1-0.1,0.2-0.2,0.3-0.4c0-0.2,0-0.3-0.1-0.4l-3.2-4.9h7.4l-3.7,5.8
		c-0.1,0.1-0.1,0.3-0.1,0.4c0,0.2,0.1,0.3,0.3,0.4c0.1,0.1,0.2,0.1,0.3,0.1c0.2,0,0.4-0.1,0.5-0.3l4.2-6.7c0.4,0.1,0.7,0.2,1.1,0.2
		c1,0,1.9-0.4,2.5-1.2C285.1,117.6,285.2,116.6,285,115.7z M282,118.4c-0.2,0-0.3,0-0.5-0.1l1-1.5c0.1-0.2,0.1-0.4,0-0.6
		c-0.1-0.2-0.3-0.3-0.5-0.3h-1.8c0.1-0.4,0.3-0.7,0.7-0.9c0.3-0.3,0.7-0.4,1.2-0.4c0.2,0,0.4,0,0.5,0.1c0.6,0.2,1.2,0.7,1.3,1.3
		c0.2,0.6,0,1.2-0.3,1.7C283.1,118.2,282.6,118.4,282,118.4z M268,117.1h0.9l0.9,1.3h-0.9L268,117.1z M270.3,117.1h10.6l-0.6,1
		c-0.1,0-0.1,0.1-0.2,0.2c0,0.1-0.1,0.1-0.1,0.2h-8.9L270.3,117.1z"/>
	<path class="st0" d="M94.4,221.1c-0.2,0-0.4-0.1-0.5-0.3c-3.6-5.6-9.7-8.7-17-8.7c-7.3,0-13.3,3.1-17,8.8c-0.2,0.3-0.6,0.4-0.9,0.2
		c-0.3-0.2-0.4-0.6-0.2-0.9c3.9-6,10.3-9.4,18-9.4c7.7,0,14.1,3.3,18,9.4c0.2,0.3,0.1,0.7-0.2,0.9C94.6,221.1,94.5,221.1,94.4,221.1
		z"/>
	<path class="st0" d="M64.9,225.5c-0.1,0-0.2,0-0.3-0.1c-0.3-0.2-0.4-0.6-0.2-0.9c2.7-4.2,7.1-6.5,12.5-6.5c5.4,0,9.8,2.3,12.5,6.5
		c0.2,0.3,0.1,0.7-0.2,0.9c-0.3,0.2-0.7,0.1-0.9-0.2c-2.5-3.8-6.5-5.9-11.5-5.9c-4.9,0-9,2.1-11.5,5.9
		C65.3,225.4,65.1,225.5,64.9,225.5z"/>
	<path class="st0" d="M83.7,229.9c-0.2,0-0.4-0.1-0.5-0.3c-1.4-2.1-3.6-3.2-6.3-3.2c-2.7,0-4.9,1.2-6.3,3.2
		c-0.2,0.3-0.6,0.4-0.9,0.2c-0.3-0.2-0.4-0.6-0.2-0.9c1.6-2.4,4.2-3.8,7.3-3.8c3.1,0,5.7,1.4,7.3,3.8c0.2,0.3,0.1,0.7-0.2,0.9
		C83.9,229.9,83.8,229.9,83.7,229.9z"/>
	<path class="st0" d="M76.7,236c-1.6,0-3-1.3-3-3c0-1.6,1.3-3,3-3c1.6,0,3,1.3,3,3C79.7,234.6,78.3,236,76.7,236z M76.7,231.3
		c-0.9,0-1.7,0.8-1.7,1.7c0,0.9,0.8,1.7,1.7,1.7c0.9,0,1.7-0.8,1.7-1.7C78.4,232.1,77.7,231.3,76.7,231.3z"/>
	<path class="st0" d="M256,58.9l-3.5-12.6l0,0c-0.1-0.2-0.4-0.4-0.6-0.4h-4.4c1.3-2.2,1.9-4,1.9-5.1c0-3.5-2.7-6.4-6.1-6.4
		c-3.3,0-6.1,2.9-6.1,6.4c0,1.2,0.6,2.9,1.9,5.1h-3.6c-0.3,0-0.5,0.2-0.6,0.4l-4.2,12.6c-0.1,0.2,0,0.4,0.1,0.6l0,0
		c0.1,0.1,0.3,0.2,0.5,0.2h24.1c0.2,0,0.4-0.1,0.5-0.3C256,59.3,256,59.1,256,58.9z M243.3,35.6c2.7,0,4.8,2.3,4.8,5.2
		c0,2.5-4.1,8.2-4.8,9.3c-0.5-0.8-1.5-2.2-2.5-3.8c0-0.1-0.1-0.2-0.1-0.2c-1.4-2.4-2.2-4.2-2.2-5.3
		C238.5,37.9,240.6,35.6,243.3,35.6z M243.3,51.7c0.2,0,0.4-0.1,0.5-0.3c0,0,0.1-0.1,0.2-0.2c0.4-0.6,1.6-2.2,2.8-4.2h4.7l3.2,11.4
		h-22.5l3.8-11.4h3.9c1.2,1.9,2.4,3.6,2.8,4.2c0.1,0.1,0.1,0.2,0.2,0.2C242.9,51.6,243.1,51.7,243.3,51.7z"/>
	<path class="st0" d="M243.3,44.1c1.8,0,3.2-1.5,3.2-3.4c0-1.9-1.5-3.4-3.2-3.4c-1.8,0-3.2,1.5-3.2,3.4
		C240.1,42.6,241.5,44.1,243.3,44.1z M243.3,38.6c1.1,0,2,1,2,2.2c0,1.2-0.9,2.2-2,2.2c-1.1,0-2-1-2-2.2
		C241.3,39.5,242.2,38.6,243.3,38.6z"/>
	<path class="st0" d="M12.1,133.8c-1.9,0-3.4-1.5-3.4-3.4c0-1.9,1.5-3.4,3.4-3.4c1.9,0,3.4,1.5,3.4,3.4
		C15.5,132.3,14,133.8,12.1,133.8z M12.1,128.5c-1.1,0-2,0.9-2,2s0.9,2,2,2c1.1,0,2-0.9,2-2S13.2,128.5,12.1,128.5z"/>
	<path class="st0" d="M22.1,124.6c-1.9,0-3.4-1.5-3.4-3.4c0-1.9,1.5-3.4,3.4-3.4c1.9,0,3.4,1.5,3.4,3.4
		C25.5,123.1,23.9,124.6,22.1,124.6z M22.1,119.3c-1.1,0-2,0.9-2,2c0,1.1,0.9,2,2,2c1.1,0,2-0.9,2-2
		C24.1,120.2,23.2,119.3,22.1,119.3z"/>
	<path class="st0" d="M22.1,143c-1.9,0-3.4-1.5-3.4-3.4c0-1.9,1.5-3.4,3.4-3.4c1.9,0,3.4,1.5,3.4,3.4C25.5,141.5,23.9,143,22.1,143z
		 M22.1,137.7c-1.1,0-2,0.9-2,2c0,1.1,0.9,2,2,2c1.1,0,2-0.9,2-2C24.1,138.6,23.2,137.7,22.1,137.7z"/>
	<polyline class="st0" points="19.5,122.5 13.6,128.4 14.4,129.2 20.3,123.3 	"/>
	<polyline class="st0" points="20.3,137.6 14.4,131.7 13.6,132.5 19.5,138.4 	"/>
	<path class="st0" d="M188.2,243h-5.7c-1,0-1.9,0.8-1.9,1.9v7.6c0,1,0.8,1.9,1.9,1.9h0.3v5.7h1.1v-6.9h-1.4c-0.4,0-0.7-0.3-0.7-0.7
		v-7.6c0-0.4,0.3-0.7,0.7-0.7h5.8c0.4,0,0.7,0.3,0.7,0.7v7.6c0,0.4-0.3,0.7-0.7,0.7h-1.5v6.9h1.1v-5.7h0.4c1,0,1.9-0.8,1.9-1.9v-7.6
		C190.1,243.8,189.3,243,188.2,243z"/>
	<path class="st0" d="M185.4,241.9c1.9,0,3.5-1.6,3.5-3.5c0-1.9-1.6-3.5-3.5-3.5c-1.9,0-3.5,1.6-3.5,3.5
		C181.9,240.3,183.5,241.9,185.4,241.9z M185.4,236c1.3,0,2.4,1.1,2.4,2.3c0,1.3-1.1,2.4-2.4,2.4c-1.3,0-2.3-1.1-2.3-2.4
		C183,237.1,184.1,236,185.4,236z"/>
	<path class="st0" d="M189.4,234.9v1.1h16.8v13.6c0,0.4-0.3,0.7-0.7,0.7h-13.8v1.2h13.8c1,0,1.9-0.8,1.9-1.9V236h1.1v-1.1H189.4z"/>
	<polygon class="st0" points="196.6,252.7 195.5,252.7 195.5,254.8 190.7,259.6 191.5,260.4 195.5,256.4 195.5,260.2 196.6,260.2 
		196.6,256.4 200.7,260.4 201.5,259.6 196.6,254.8 	"/>
	<path class="st0" d="M87.3,254.8L87.3,254.8c0,0.2,0.1,0.3,0.2,0.4c0.1,0.1,0.2,0.2,0.4,0.2l0,0h5.5c0.1,0,0.2,0,0.2,0
		c0.1,0,0.2-0.1,0.3-0.2c0.1-0.1,0.1-0.2,0.1-0.3c0-0.1,0-0.2,0-0.2c0-0.1-0.1-0.2-0.2-0.3c-0.1-0.1-0.2-0.1-0.3-0.1c0,0,0,0,0,0H88
		c0,0,0,0-0.1,0l0,0l0,0c0,0-0.1,0-0.1,0c-0.1,0-0.1,0-0.2,0.1c-0.1,0.1-0.2,0.1-0.2,0.2C87.3,254.5,87.3,254.6,87.3,254.8
		C87.3,254.7,87.3,254.7,87.3,254.8L87.3,254.8z"/>
	<path class="st0" d="M87.9,257.3L87.9,257.3c-0.1,0-0.2,0-0.2,0.1c-0.1,0-0.2,0.1-0.2,0.2c-0.1,0.1-0.1,0.2-0.1,0.3v0l0,0l0,0l0,0
		c0,0.1,0,0.1,0,0.2c0,0.1,0.1,0.2,0.2,0.2c0.1,0.1,0.2,0.1,0.3,0.1l0,0h9.8c0.1,0,0.2,0,0.2,0c0.1,0,0.2-0.1,0.3-0.2
		c0.1-0.1,0.1-0.2,0.1-0.3c0-0.1,0-0.2-0.1-0.2c-0.1-0.1-0.1-0.2-0.2-0.3c-0.1-0.1-0.2-0.1-0.3-0.1H87.9
		C87.9,257.3,87.9,257.3,87.9,257.3z"/>
	<path class="st0" d="M106.1,263.6c-0.1-0.1-0.2-0.1-0.3-0.1H87.9c0,0,0,0-0.1,0c0,0,0,0,0,0h0l0,0c-0.1,0-0.1,0-0.2,0.1
		c-0.1,0.1-0.2,0.1-0.2,0.2c-0.1,0.1-0.1,0.2-0.1,0.3c0,0,0,0,0,0.1l0,0l0,0l0,0l0,0c0,0.2,0.1,0.3,0.2,0.4c0.1,0.1,0.2,0.2,0.4,0.2
		c0,0,0,0,0,0h17.8c0.1,0,0.2,0,0.2-0.1c0.1,0,0.2-0.1,0.3-0.2c0.1-0.1,0.1-0.2,0.1-0.3c0-0.1,0-0.2,0-0.2
		C106.2,263.8,106.2,263.7,106.1,263.6z"/>
	<path class="st0" d="M102.2,249.2c-1.1,0-2.2,0.5-2.9,1.2c-0.7,0.7-1.2,1.8-1.2,2.9c0,1.1,0.5,2.2,1.2,2.9c0.7,0.8,1.8,1.2,2.9,1.2
		c1.1,0,2.2-0.5,2.9-1.2c0.8-0.8,1.2-1.8,1.2-2.9c0-1.1-0.5-2.2-1.2-2.9C104.4,249.6,103.3,249.2,102.2,249.2z M102.8,254.7l1,1
		c-0.3,0.2-0.7,0.4-1,0.4V254.7z M102.8,250.4c0.6,0.1,1.1,0.4,1.5,0.8c0.4,0.4,0.7,0.9,0.8,1.5h-2.3V250.4z M104.7,255l-1-1h1.5
		C105,254.3,104.9,254.6,104.7,255z M101.6,256.2c-0.6-0.1-1.2-0.4-1.6-0.9c-0.5-0.5-0.8-1.2-0.8-2c0-0.8,0.3-1.5,0.8-2
		c0.4-0.5,1-0.8,1.6-0.9V256.2z"/>
	<path class="st0" d="M109.2,247.7c-0.4-0.4-0.9-0.6-1.4-0.6H85.9c-0.6,0-1.1,0.2-1.4,0.6c-0.4,0.4-0.6,0.9-0.6,1.4v16.4
		c0,0.6,0.2,1.1,0.6,1.4c0.4,0.4,0.9,0.6,1.4,0.6h5.6l-2.7,4.3h0c-0.1,0.1-0.1,0.2-0.1,0.3c0,0.1,0,0.2,0.1,0.3
		c0,0.1,0.1,0.2,0.2,0.2l0,0l0,0c0.1,0.1,0.2,0.1,0.3,0.1c0.1,0,0.2,0,0.3-0.1c0.1,0,0.2-0.1,0.2-0.2h0l3.1-4.9l0,0h3.4v4.6
		c0,0.1,0,0.2,0,0.2c0,0.1,0.1,0.2,0.2,0.3c0.1,0.1,0.2,0.1,0.3,0.1c0.1,0,0.2,0,0.2-0.1c0.1-0.1,0.2-0.1,0.3-0.2
		c0.1-0.1,0.1-0.2,0.1-0.3v-4.6h3.4l0,0l3.1,4.9l0,0c0.1,0.1,0.1,0.2,0.2,0.2c0.1,0.1,0.2,0.1,0.3,0.1c0.1,0,0.2,0,0.3-0.1l0,0l0,0
		c0.1-0.1,0.2-0.1,0.2-0.2c0-0.1,0.1-0.2,0.1-0.3c0-0.1,0-0.2-0.1-0.3l0,0l-2.7-4.3h5.6c0.6,0,1.1-0.2,1.4-0.6
		c0.4-0.4,0.6-0.9,0.6-1.4v-16.4C109.8,248.6,109.6,248.1,109.2,247.7z M107.8,266.4H85.9c-0.2,0-0.5-0.1-0.6-0.3
		c-0.2-0.2-0.3-0.4-0.3-0.6v-16.4c0-0.2,0.1-0.5,0.3-0.6c0.2-0.2,0.4-0.3,0.6-0.3h21.9c0.2,0,0.5,0.1,0.6,0.3
		c0.2,0.2,0.3,0.4,0.3,0.6v16.4c0,0.2-0.1,0.5-0.3,0.6C108.3,266.3,108,266.4,107.8,266.4z"/>
	<path class="st0" d="M105.7,260.4H87.9c0,0,0,0-0.1,0c0,0,0,0,0,0h0l0,0c-0.1,0-0.1,0-0.2,0.1c-0.1,0.1-0.2,0.1-0.2,0.2
		c-0.1,0.1-0.1,0.2-0.1,0.3c0,0,0,0,0,0.1c0,0.2,0.1,0.3,0.2,0.4c0.1,0.1,0.2,0.1,0.4,0.1c0,0,0,0,0,0h17.8l0,0c0.1,0,0.2,0,0.2-0.1
		c0.1,0,0.2-0.1,0.2-0.2c0.1-0.1,0.1-0.2,0.1-0.3c0-0.2-0.1-0.3-0.2-0.4C106.1,260.5,105.9,260.4,105.7,260.4z"/>
	<polygon class="st0" points="87.3,261.1 87.3,261.1 87.3,261.1 	"/>
	<path class="st0" d="M226.5,218.7h0.6c0-0.2,0-0.3-0.1-0.5c-0.1-0.2-0.2-0.4-0.4-0.5c-0.2-0.1-0.4-0.2-0.7-0.2h-24.3
		c-0.2,0-0.3,0-0.5,0.1c-0.2,0.1-0.4,0.2-0.5,0.4c-0.1,0.2-0.2,0.4-0.2,0.7v6c0,0.2,0,0.3,0.1,0.5c0.1,0.2,0.2,0.4,0.4,0.5
		c0.2,0.1,0.4,0.2,0.7,0.2h17.1l0,0l0,0c0,0,0,0,0,0V243c0,0.2,0,0.3,0.1,0.5c0.1,0.2,0.2,0.4,0.4,0.5c0.2,0.1,0.4,0.2,0.7,0.2h6
		c0.2,0,0.3,0,0.5-0.1c0.2-0.1,0.4-0.2,0.5-0.4c0.1-0.2,0.2-0.4,0.2-0.7v-24.3H226.5h-0.6V243l0,0l0,0c0,0,0,0,0,0h-6l0,0l0,0
		c0,0,0,0,0,0v-17.1c0-0.2,0-0.3-0.1-0.5c-0.1-0.2-0.2-0.4-0.4-0.5c-0.2-0.1-0.4-0.2-0.7-0.2h-17.1l0,0l0,0c0,0,0,0,0,0v-6l0,0l0,0
		c0,0,0,0,0,0h24.3l0,0l0,0c0,0,0,0,0,0H226.5z"/>
	<path class="st0" d="M202.3,8.1h0.6c0-0.2,0-0.3-0.1-0.5c-0.1-0.2-0.2-0.4-0.4-0.5c-0.2-0.1-0.4-0.2-0.7-0.2h-24.3
		c-0.2,0-0.3,0-0.5,0.1c-0.2,0.1-0.4,0.2-0.5,0.4c-0.1,0.2-0.2,0.4-0.2,0.7v6c0,0.2,0,0.3,0.1,0.5c0.1,0.2,0.2,0.4,0.4,0.5
		c0.2,0.1,0.4,0.2,0.7,0.2h17.1l0,0l0,0c0,0,0,0,0,0v17.1c0,0.2,0,0.3,0.1,0.5c0.1,0.2,0.2,0.4,0.4,0.5c0.2,0.1,0.4,0.2,0.7,0.2h6
		c0.2,0,0.3,0,0.5-0.1c0.2-0.1,0.4-0.2,0.5-0.4c0.1-0.2,0.2-0.4,0.2-0.7V8.1H202.3h-0.6v24.3l0,0l0,0c0,0,0,0,0,0h-6l0,0l0,0
		c0,0,0,0,0,0V15.3c0-0.2,0-0.3-0.1-0.5c-0.1-0.2-0.2-0.4-0.4-0.5c-0.2-0.1-0.4-0.2-0.7-0.2h-17.1l0,0l0,0c0,0,0,0,0,0v-6l0,0l0,0
		c0,0,0,0,0,0h24.3l0,0l0,0c0,0,0,0,0,0H202.3z"/>
	<path class="st0" d="M42,251.7h-0.6c0,0.2,0,0.3,0.1,0.5c0.1,0.2,0.2,0.4,0.4,0.5c0.2,0.1,0.4,0.2,0.7,0.2h24.3
		c0.2,0,0.3,0,0.5-0.1c0.2-0.1,0.4-0.2,0.5-0.4c0.1-0.2,0.2-0.4,0.2-0.7v-6c0-0.2,0-0.3-0.1-0.5c-0.1-0.2-0.2-0.4-0.4-0.5
		c-0.2-0.1-0.4-0.2-0.7-0.2H49.8l0,0l0,0c0,0,0,0,0,0v-17.1c0-0.2,0-0.3-0.1-0.5c-0.1-0.2-0.2-0.4-0.4-0.5c-0.2-0.1-0.4-0.2-0.7-0.2
		h-6c-0.2,0-0.3,0-0.5,0.1c-0.2,0.1-0.4,0.2-0.5,0.4c-0.1,0.2-0.2,0.4-0.2,0.7v24.3H42h0.6v-24.3l0,0l0,0c0,0,0,0,0,0h6l0,0l0,0
		c0,0,0,0,0,0v17.1c0,0.2,0,0.3,0.1,0.5c0.1,0.2,0.2,0.4,0.4,0.5c0.2,0.1,0.4,0.2,0.7,0.2h17.1l0,0l0,0c0,0,0,0,0,0v6l0,0l0,0
		c0,0,0,0,0,0H42.6l0,0l0,0c0,0,0,0,0,0H42z"/>
	<path class="st0" d="M226.7,116.1h-0.6c0,0.2,0,0.3,0.1,0.5c0.1,0.2,0.2,0.4,0.4,0.5c0.2,0.1,0.4,0.2,0.7,0.2h24.3
		c0.2,0,0.3,0,0.5-0.1c0.2-0.1,0.4-0.2,0.5-0.4c0.1-0.2,0.2-0.4,0.2-0.7v-6c0-0.2,0-0.3-0.1-0.5c-0.1-0.2-0.2-0.4-0.4-0.5
		c-0.2-0.1-0.4-0.2-0.7-0.2h-17.1l0,0l0,0c0,0,0,0,0,0V91.8c0-0.2,0-0.3-0.1-0.5c-0.1-0.2-0.2-0.4-0.4-0.5c-0.2-0.1-0.4-0.2-0.7-0.2
		h-6c-0.2,0-0.3,0-0.5,0.1c-0.2,0.1-0.4,0.2-0.5,0.4c-0.1,0.2-0.2,0.4-0.2,0.7v24.3H226.7h0.6V91.8l0,0l0,0c0,0,0,0,0,0h6l0,0l0,0
		c0,0,0,0,0,0v17.1c0,0.2,0,0.3,0.1,0.5c0.1,0.2,0.2,0.4,0.4,0.5c0.2,0.1,0.4,0.2,0.7,0.2h17.1l0,0l0,0c0,0,0,0,0,0v6l0,0l0,0
		c0,0,0,0,0,0h-24.3l0,0l0,0c0,0,0,0,0,0H226.7z"/>
	<path class="st0" d="M54.6,238.9c0,0.3,0.3,0.6,0.6,0.6h5.9c0.3,0,0.6-0.3,0.6-0.6v-0.8c0-0.3-0.3-0.6-0.6-0.6h-3.9
		c-0.3,0-0.6-0.3-0.6-0.6V233c0-0.3-0.3-0.6-0.6-0.6h-0.8c-0.3,0-0.6,0.3-0.6,0.6V238.9z"/>
	<path class="st0" d="M87,23.5c0,0.3,0.3,0.6,0.6,0.6h5.9c0.3,0,0.6-0.3,0.6-0.6v-0.8c0-0.3-0.3-0.6-0.6-0.6h-3.9
		c-0.3,0-0.6-0.3-0.6-0.6v-3.9c0-0.3-0.3-0.6-0.6-0.6h-0.8c-0.3,0-0.6,0.3-0.6,0.6V23.5z"/>
	<path class="st0" d="M87,70.8c0,0.3,0.3,0.6,0.6,0.6h5.9c0.3,0,0.6-0.3,0.6-0.6v-0.8c0-0.3-0.3-0.6-0.6-0.6h-3.9
		c-0.3,0-0.6-0.3-0.6-0.6V65c0-0.3-0.3-0.6-0.6-0.6h-0.8c-0.3,0-0.6,0.3-0.6,0.6V70.8z"/>
	<path class="st0" d="M49.5,158.8c0,0.3,0.3,0.6,0.6,0.6H56c0.3,0,0.6-0.3,0.6-0.6V158c0-0.3-0.3-0.6-0.6-0.6h-3.9
		c-0.3,0-0.6-0.3-0.6-0.6v-3.9c0-0.3-0.3-0.6-0.6-0.6h-0.8c-0.3,0-0.6,0.3-0.6,0.6V158.8z"/>
	<path class="st0" d="M82.5,51.1c0-0.3-0.3-0.6-0.6-0.6H76c-0.3,0-0.6,0.3-0.6,0.6v0.8c0,0.3,0.3,0.6,0.6,0.6h3.9
		c0.3,0,0.6,0.3,0.6,0.6V57c0,0.3,0.3,0.6,0.6,0.6h0.8c0.3,0,0.6-0.3,0.6-0.6V51.1z"/>
	<path class="st0" d="M6.5,139.6c0-0.3-0.3-0.6-0.6-0.6H0c-0.3,0-0.6,0.3-0.6,0.6v0.8c0,0.3,0.3,0.6,0.6,0.6h3.9
		c0.3,0,0.6,0.3,0.6,0.6v3.9c0,0.3,0.3,0.6,0.6,0.6h0.8c0.3,0,0.6-0.3,0.6-0.6V139.6z"/>
	<path class="st0" d="M52.2,209c0-0.3-0.3-0.6-0.6-0.6h-5.9c-0.3,0-0.6,0.3-0.6,0.6v0.8c0,0.3,0.3,0.6,0.6,0.6h3.9
		c0.3,0,0.6,0.3,0.6,0.6v3.9c0,0.3,0.3,0.6,0.6,0.6h0.8c0.3,0,0.6-0.3,0.6-0.6V209z"/>
	<path class="st0" d="M260.5,227.1c0-0.3-0.3-0.6-0.6-0.6H254c-0.3,0-0.6,0.3-0.6,0.6v0.8c0,0.3,0.3,0.6,0.6,0.6h3.9
		c0.3,0,0.6,0.3,0.6,0.6v3.9c0,0.3,0.3,0.6,0.6,0.6h0.8c0.3,0,0.6-0.3,0.6-0.6V227.1z"/>
	<path class="st0" d="M293.9,143.7c0-0.3-0.3-0.6-0.6-0.6h-5.9c-0.3,0-0.6,0.3-0.6,0.6v0.8c0,0.3,0.3,0.6,0.6,0.6h3.9
		c0.3,0,0.6,0.3,0.6,0.6v3.9c0,0.3,0.3,0.6,0.6,0.6h0.8c0.3,0,0.6-0.3,0.6-0.6V143.7z"/>
	<path class="st0" d="M213.5,54.1c0,0.3,0.3,0.6,0.6,0.6h5.9c0.3,0,0.6-0.3,0.6-0.6v-0.8c0-0.3-0.3-0.6-0.6-0.6h-3.9
		c-0.3,0-0.6-0.3-0.6-0.6v-3.9c0-0.3-0.3-0.6-0.6-0.6h-0.8c-0.3,0-0.6,0.3-0.6,0.6V54.1z"/>
	<path class="st0" d="M173.8,22c-0.3,0-0.6,0.3-0.6,0.6v5.9c0,0.3,0.3,0.6,0.6,0.6h0.8c0.3,0,0.6-0.3,0.6-0.6v-3.9
		c0-0.3,0.3-0.6,0.6-0.6h3.9c0.3,0,0.6-0.3,0.6-0.6v-0.8c0-0.3-0.3-0.6-0.6-0.6H173.8z"/>
	<path class="st0" d="M90.6,59.2H90c0,0.2,0,0.3,0.1,0.5c0.1,0.2,0.2,0.4,0.4,0.5c0.2,0.1,0.4,0.2,0.7,0.2h24.3c0.2,0,0.3,0,0.5-0.1
		c0.2-0.1,0.4-0.2,0.5-0.4c0.1-0.2,0.2-0.4,0.2-0.7v-6c0-0.2,0-0.3-0.1-0.5c-0.1-0.2-0.2-0.4-0.4-0.5c-0.2-0.1-0.4-0.2-0.7-0.2H98.4
		l0,0l0,0c0,0,0,0,0,0V34.9c0-0.2,0-0.3-0.1-0.5c-0.1-0.2-0.2-0.4-0.4-0.5c-0.2-0.1-0.4-0.2-0.7-0.2h-6c-0.2,0-0.3,0-0.5,0.1
		c-0.2,0.1-0.4,0.2-0.5,0.4c-0.1,0.2-0.2,0.4-0.2,0.7v24.3H90.6h0.6V34.9l0,0l0,0c0,0,0,0,0,0h6l0,0l0,0c0,0,0,0,0,0V52
		c0,0.2,0,0.3,0.1,0.5c0.1,0.2,0.2,0.4,0.4,0.5c0.2,0.1,0.4,0.2,0.7,0.2h17.1l0,0l0,0c0,0,0,0,0,0v6l0,0l0,0c0,0,0,0,0,0H91.2l0,0
		l0,0c0,0,0,0,0,0H90.6z"/>
	<path class="st0" d="M49.3,65.2v0.6c0.2,0,0.3,0,0.5-0.1c0.2-0.1,0.4-0.2,0.5-0.4c0.1-0.2,0.2-0.4,0.2-0.7V40.3
		c0-0.2,0-0.3-0.1-0.5c-0.1-0.2-0.2-0.4-0.4-0.5c-0.2-0.1-0.4-0.2-0.7-0.2h-6c-0.2,0-0.3,0-0.5,0.1c-0.2,0.1-0.4,0.2-0.5,0.4
		c-0.1,0.2-0.2,0.4-0.2,0.7v17.1l0,0l0,0c0,0,0,0,0,0H25c-0.2,0-0.3,0-0.5,0.1c-0.2,0.1-0.4,0.2-0.5,0.4c-0.1,0.2-0.2,0.4-0.2,0.7v6
		c0,0.2,0,0.3,0.1,0.5c0.1,0.2,0.2,0.4,0.4,0.5c0.2,0.1,0.4,0.2,0.7,0.2h24.3V65.2v-0.6H25l0,0l0,0c0,0,0,0,0,0v-6l0,0l0,0
		c0,0,0,0,0,0h17.1c0.2,0,0.3,0,0.5-0.1c0.2-0.1,0.4-0.2,0.5-0.4c0.1-0.2,0.2-0.4,0.2-0.7V40.3l0,0l0,0c0,0,0,0,0,0h6l0,0l0,0
		c0,0,0,0,0,0v24.3l0,0l0,0c0,0,0,0,0,0V65.2z"/>
	<path class="st0" d="M275,218v0.6c0.2,0,0.3,0,0.5-0.1c0.2-0.1,0.4-0.2,0.5-0.4c0.1-0.2,0.2-0.4,0.2-0.7v-24.3c0-0.2,0-0.3-0.1-0.5
		c-0.1-0.2-0.2-0.4-0.4-0.5c-0.2-0.1-0.4-0.2-0.7-0.2h-6c-0.2,0-0.3,0-0.5,0.1c-0.2,0.1-0.4,0.2-0.5,0.4c-0.1,0.2-0.2,0.4-0.2,0.7
		v17.1l0,0l0,0c0,0,0,0,0,0h-17.1c-0.2,0-0.3,0-0.5,0.1c-0.2,0.1-0.4,0.2-0.5,0.4c-0.1,0.2-0.2,0.4-0.2,0.7v6c0,0.2,0,0.3,0.1,0.5
		c0.1,0.2,0.2,0.4,0.4,0.5c0.2,0.1,0.4,0.2,0.7,0.2H275V218v-0.6h-24.3l0,0l0,0c0,0,0,0,0,0v-6l0,0l0,0c0,0,0,0,0,0h17.1
		c0.2,0,0.3,0,0.5-0.1c0.2-0.1,0.4-0.2,0.5-0.4c0.1-0.2,0.2-0.4,0.2-0.7v-17.1l0,0l0,0c0,0,0,0,0,0h6l0,0l0,0c0,0,0,0,0,0v24.3l0,0
		l0,0c0,0,0,0,0,0V218z"/>
	<path class="st0" d="M12.1,78.8v-0.6c-0.2,0-0.3,0-0.5,0.1c-0.2,0.1-0.4,0.2-0.5,0.4c-0.1,0.2-0.2,0.4-0.2,0.7v24.3
		c0,0.2,0,0.3,0.1,0.5c0.1,0.2,0.2,0.4,0.4,0.5c0.2,0.1,0.4,0.2,0.7,0.2h6c0.2,0,0.3,0,0.5-0.1c0.2-0.1,0.4-0.2,0.5-0.4
		c0.1-0.2,0.2-0.4,0.2-0.7V86.7l0,0l0,0c0,0,0,0,0,0h17.1c0.2,0,0.3,0,0.5-0.1c0.2-0.1,0.4-0.2,0.5-0.4c0.1-0.2,0.2-0.4,0.2-0.7v-6
		c0-0.2,0-0.3-0.1-0.5c-0.1-0.2-0.2-0.4-0.4-0.5c-0.2-0.1-0.4-0.2-0.7-0.2H12.1V78.8v0.6h24.3l0,0l0,0c0,0,0,0,0,0v6l0,0l0,0
		c0,0,0,0,0,0H19.3c-0.2,0-0.3,0-0.5,0.1c-0.2,0.1-0.4,0.2-0.5,0.4c-0.1,0.2-0.2,0.4-0.2,0.7v17.1l0,0l0,0c0,0,0,0,0,0h-6l0,0l0,0
		c0,0,0,0,0,0V79.5l0,0l0,0c0,0,0,0,0,0V78.8z"/>
	<path class="st0" d="M35.7,138.2v-0.6c-0.2,0-0.3,0-0.5,0.1c-0.2,0.1-0.4,0.2-0.5,0.4c-0.1,0.2-0.2,0.4-0.2,0.7v24.3
		c0,0.2,0,0.3,0.1,0.5c0.1,0.2,0.2,0.4,0.4,0.5c0.2,0.1,0.4,0.2,0.7,0.2h6c0.2,0,0.3,0,0.5-0.1c0.2-0.1,0.4-0.2,0.5-0.4
		c0.1-0.2,0.2-0.4,0.2-0.7V146l0,0l0,0c0,0,0,0,0,0H60c0.2,0,0.3,0,0.5-0.1c0.2-0.1,0.4-0.2,0.5-0.4c0.1-0.2,0.2-0.4,0.2-0.7v-6
		c0-0.2,0-0.3-0.1-0.5c-0.1-0.2-0.2-0.4-0.4-0.5c-0.2-0.1-0.4-0.2-0.7-0.2H35.7V138.2v0.6H60l0,0l0,0c0,0,0,0,0,0v6l0,0l0,0
		c0,0,0,0,0,0H42.9c-0.2,0-0.3,0-0.5,0.1c-0.2,0.1-0.4,0.2-0.5,0.4c-0.1,0.2-0.2,0.4-0.2,0.7v17.1l0,0l0,0c0,0,0,0,0,0h-6l0,0l0,0
		c0,0,0,0,0,0v-24.3l0,0l0,0c0,0,0,0,0,0V138.2z"/>
	<path class="st0" d="M231.8,133.2v-0.6c-0.2,0-0.3,0-0.5,0.1c-0.2,0.1-0.4,0.2-0.5,0.4c-0.1,0.2-0.2,0.4-0.2,0.7v24.3
		c0,0.2,0,0.3,0.1,0.5c0.1,0.2,0.2,0.4,0.4,0.5c0.2,0.1,0.4,0.2,0.7,0.2h6c0.2,0,0.3,0,0.5-0.1c0.2-0.1,0.4-0.2,0.5-0.4
		c0.1-0.2,0.2-0.4,0.2-0.7V141l0,0l0,0c0,0,0,0,0,0h17.1c0.2,0,0.3,0,0.5-0.1c0.2-0.1,0.4-0.2,0.5-0.4c0.1-0.2,0.2-0.4,0.2-0.7v-6
		c0-0.2,0-0.3-0.1-0.5c-0.1-0.2-0.2-0.4-0.4-0.5c-0.2-0.1-0.4-0.2-0.7-0.2h-24.3V133.2v0.6h24.3l0,0l0,0c0,0,0,0,0,0v6l0,0l0,0
		c0,0,0,0,0,0H239c-0.2,0-0.3,0-0.5,0.1c-0.2,0.1-0.4,0.2-0.5,0.4c-0.1,0.2-0.2,0.4-0.2,0.7v17.1l0,0l0,0c0,0,0,0,0,0h-6l0,0l0,0
		c0,0,0,0,0,0v-24.3l0,0l0,0c0,0,0,0,0,0V133.2z"/>
	<path class="st0" d="M218.8,36.9c-0.5,0-1-0.1-1.4-0.2c-0.4-0.1-0.8-0.4-1.1-0.7c-0.3-0.3-0.5-0.7-0.7-1.1c-0.2-0.4-0.3-1-0.3-1.5
		c0-0.5,0.1-1,0.2-1.5c0.2-0.4,0.4-0.8,0.7-1.1c0.3-0.3,0.7-0.5,1.1-0.7c0.4-0.2,0.9-0.2,1.4-0.2c0.3,0,0.5,0,0.8,0.1
		c0.2,0,0.4,0.1,0.6,0.1c0.2,0.1,0.4,0.1,0.6,0.2c0.2,0.1,0.3,0.1,0.4,0.2v1c0,0.3,0,0.6-0.1,0.6c-0.1,0-0.2-0.1-0.3-0.2
		c0,0,0,0-0.1-0.1c-0.1-0.1-0.3-0.2-0.4-0.3c-0.2-0.1-0.4-0.2-0.5-0.2c-0.2-0.1-0.4-0.1-0.6-0.1c-0.2,0-0.5,0-0.7,0.1
		c-0.2,0.1-0.4,0.2-0.6,0.4c-0.2,0.2-0.3,0.4-0.4,0.7c-0.1,0.3-0.2,0.6-0.2,1c0,0.4,0.1,0.8,0.2,1.1c0.1,0.3,0.3,0.5,0.5,0.7
		c0.2,0.2,0.4,0.3,0.6,0.4c0.2,0.1,0.5,0.1,0.7,0.1c0.2,0,0.4,0,0.6-0.1c0.2-0.1,0.4-0.2,0.6-0.3c0.1-0.1,0.3-0.2,0.4-0.3
		c0.1-0.1,0.2-0.2,0.3-0.3c0.1,0,0.2,0.3,0.2,0.6v0.4c0,0.3-0.2,0.7-0.3,0.8c0,0,0,0-0.2,0.1c-0.2,0.1-0.3,0.1-0.5,0.2
		c-0.2,0.1-0.4,0.1-0.6,0.1C219.4,36.9,219.2,36.9,218.8,36.9z"/>
	<path class="st0" d="M226.6,36.9c-0.5,0-1-0.1-1.4-0.2c-0.4-0.1-0.8-0.4-1.1-0.7c-0.3-0.3-0.5-0.7-0.7-1.1c-0.2-0.4-0.3-1-0.3-1.5
		c0-0.5,0.1-1,0.2-1.5c0.2-0.4,0.4-0.8,0.7-1.1c0.3-0.3,0.7-0.5,1.1-0.7c0.4-0.2,0.9-0.2,1.4-0.2c0.3,0,0.5,0,0.8,0.1
		c0.2,0,0.4,0.1,0.6,0.1c0.2,0.1,0.4,0.1,0.6,0.2c0.2,0.1,0.3,0.1,0.4,0.2v1c0,0.3,0,0.6-0.1,0.6c-0.1,0-0.2-0.1-0.3-0.2
		c0,0,0,0-0.1-0.1c-0.1-0.1-0.3-0.2-0.4-0.3c-0.2-0.1-0.4-0.2-0.5-0.2c-0.2-0.1-0.4-0.1-0.6-0.1c-0.2,0-0.5,0-0.7,0.1
		c-0.2,0.1-0.4,0.2-0.6,0.4c-0.2,0.2-0.3,0.4-0.4,0.7c-0.1,0.3-0.2,0.6-0.2,1c0,0.4,0.1,0.8,0.2,1.1c0.1,0.3,0.3,0.5,0.5,0.7
		c0.2,0.2,0.4,0.3,0.6,0.4c0.2,0.1,0.5,0.1,0.7,0.1c0.2,0,0.4,0,0.6-0.1c0.2-0.1,0.4-0.2,0.6-0.3c0.1-0.1,0.3-0.2,0.4-0.3
		c0.1-0.1,0.2-0.2,0.3-0.3c0.1,0,0.2,0.3,0.2,0.6v0.4c0,0.3-0.1,0.7-0.3,0.8c0,0,0,0-0.2,0.1c-0.2,0.1-0.3,0.1-0.5,0.2
		c-0.2,0.1-0.4,0.1-0.6,0.1C227.2,36.9,226.9,36.9,226.6,36.9z"/>
	<path class="st0" d="M127.7,49.3c-0.5,0-1-0.1-1.4-0.2c-0.4-0.2-0.8-0.4-1.1-0.7c-0.3-0.3-0.5-0.7-0.7-1.1c-0.2-0.4-0.3-1-0.3-1.5
		c0-0.5,0.1-1,0.2-1.5c0.2-0.4,0.4-0.8,0.7-1.1c0.3-0.3,0.7-0.5,1.1-0.7c0.4-0.2,0.9-0.2,1.4-0.2c0.3,0,0.5,0,0.8,0
		c0.2,0,0.4,0.1,0.6,0.1c0.2,0.1,0.4,0.1,0.6,0.2c0.2,0.1,0.3,0.1,0.4,0.2v1c0,0.3,0,0.6-0.1,0.6c-0.1,0-0.2-0.1-0.3-0.2
		c0,0,0,0-0.1-0.1c-0.1-0.1-0.3-0.2-0.4-0.3c-0.2-0.1-0.3-0.2-0.5-0.2c-0.2-0.1-0.4-0.1-0.6-0.1c-0.2,0-0.5,0-0.7,0.1
		c-0.2,0.1-0.4,0.2-0.6,0.4c-0.2,0.2-0.3,0.4-0.4,0.7c-0.1,0.3-0.2,0.6-0.2,1c0,0.4,0.1,0.8,0.2,1.1c0.1,0.3,0.3,0.5,0.5,0.7
		c0.2,0.2,0.4,0.3,0.6,0.4c0.2,0.1,0.5,0.1,0.7,0.1c0.2,0,0.4,0,0.6-0.1c0.2-0.1,0.4-0.1,0.6-0.3c0.2-0.1,0.3-0.2,0.4-0.3
		c0.1-0.1,0.2-0.2,0.3-0.3c0.1,0,0.2,0.3,0.2,0.6v0.4c0,0.3-0.2,0.7-0.3,0.8c0,0,0,0-0.2,0.1c-0.2,0.1-0.3,0.1-0.5,0.2
		c-0.2,0.1-0.4,0.1-0.6,0.1C128.3,49.3,128,49.3,127.7,49.3z"/>
	<path class="st0" d="M135.4,49.3c-0.5,0-1-0.1-1.4-0.2c-0.4-0.2-0.8-0.4-1.1-0.7c-0.3-0.3-0.5-0.7-0.7-1.1c-0.2-0.4-0.3-1-0.3-1.5
		c0-0.5,0.1-1,0.2-1.5c0.2-0.4,0.4-0.8,0.7-1.1c0.3-0.3,0.7-0.5,1.1-0.7c0.4-0.2,0.9-0.2,1.4-0.2c0.3,0,0.5,0,0.8,0
		c0.2,0,0.4,0.1,0.6,0.1c0.2,0.1,0.4,0.1,0.6,0.2c0.2,0.1,0.3,0.1,0.4,0.2v1c0,0.3,0,0.6-0.1,0.6c-0.1,0-0.2-0.1-0.3-0.2
		c0,0,0,0-0.1-0.1c-0.1-0.1-0.3-0.2-0.4-0.3c-0.2-0.1-0.4-0.2-0.5-0.2c-0.2-0.1-0.4-0.1-0.6-0.1c-0.2,0-0.5,0-0.7,0.1
		c-0.2,0.1-0.4,0.2-0.6,0.4c-0.2,0.2-0.3,0.4-0.4,0.7c-0.1,0.3-0.2,0.6-0.2,1c0,0.4,0.1,0.8,0.2,1.1c0.1,0.3,0.3,0.5,0.5,0.7
		c0.2,0.2,0.4,0.3,0.6,0.4c0.2,0.1,0.5,0.1,0.7,0.1c0.2,0,0.4,0,0.6-0.1c0.2-0.1,0.4-0.1,0.6-0.3c0.1-0.1,0.3-0.2,0.4-0.3
		c0.1-0.1,0.2-0.2,0.3-0.3c0.1,0,0.2,0.3,0.2,0.6v0.4c0,0.3-0.2,0.7-0.3,0.8c0,0,0,0-0.2,0.1c-0.2,0.1-0.3,0.1-0.5,0.2
		c-0.2,0.1-0.4,0.1-0.6,0.1C136,49.3,135.8,49.3,135.4,49.3z"/>
	<path class="st0" d="M246.8,129c-0.5,0-1-0.1-1.4-0.2c-0.4-0.1-0.8-0.4-1.1-0.7c-0.3-0.3-0.6-0.7-0.7-1.1c-0.2-0.4-0.3-1-0.3-1.5
		c0-0.5,0.1-1,0.2-1.5c0.2-0.4,0.4-0.8,0.7-1.1c0.3-0.3,0.7-0.5,1.1-0.7c0.4-0.2,0.9-0.2,1.4-0.2c0.3,0,0.5,0,0.8,0
		c0.2,0,0.4,0.1,0.6,0.1c0.2,0.1,0.4,0.1,0.6,0.2c0.2,0.1,0.3,0.1,0.4,0.2v1c0,0.3,0,0.6-0.1,0.6c-0.1,0-0.2-0.1-0.3-0.2
		c0,0,0,0-0.1-0.1c-0.1-0.1-0.3-0.2-0.4-0.3c-0.2-0.1-0.4-0.2-0.5-0.2c-0.2-0.1-0.4-0.1-0.6-0.1c-0.2,0-0.5,0-0.7,0.1
		c-0.2,0.1-0.4,0.2-0.6,0.4c-0.2,0.2-0.3,0.4-0.4,0.7c-0.1,0.3-0.2,0.6-0.2,1c0,0.4,0.1,0.8,0.2,1.1c0.1,0.3,0.3,0.5,0.5,0.7
		c0.2,0.2,0.4,0.3,0.6,0.4c0.2,0.1,0.5,0.1,0.7,0.1c0.2,0,0.4,0,0.6-0.1c0.2-0.1,0.4-0.1,0.6-0.3c0.2-0.1,0.3-0.2,0.4-0.3
		c0.1-0.1,0.2-0.2,0.3-0.3c0.1,0,0.2,0.3,0.2,0.6v0.4c0,0.3-0.2,0.7-0.3,0.8c0,0,0,0-0.2,0.1c-0.2,0.1-0.3,0.1-0.5,0.2
		c-0.2,0.1-0.4,0.1-0.6,0.1C247.4,129,247.1,129,246.8,129z"/>
	<path class="st0" d="M254.6,129c-0.5,0-1-0.1-1.4-0.2c-0.4-0.1-0.8-0.4-1.1-0.7c-0.3-0.3-0.5-0.7-0.7-1.1c-0.2-0.4-0.3-1-0.3-1.5
		c0-0.5,0.1-1,0.2-1.5c0.2-0.4,0.4-0.8,0.7-1.1c0.3-0.3,0.7-0.5,1.1-0.7c0.4-0.2,0.9-0.2,1.4-0.2c0.3,0,0.5,0,0.8,0
		c0.2,0,0.4,0.1,0.6,0.1c0.2,0.1,0.4,0.1,0.6,0.2c0.2,0.1,0.3,0.1,0.4,0.2v1c0,0.3,0,0.6-0.1,0.6c-0.1,0-0.2-0.1-0.3-0.2
		c0,0,0,0-0.1-0.1c-0.1-0.1-0.3-0.2-0.4-0.3c-0.2-0.1-0.4-0.2-0.5-0.2c-0.2-0.1-0.4-0.1-0.6-0.1c-0.2,0-0.5,0-0.7,0.1
		c-0.2,0.1-0.4,0.2-0.6,0.4c-0.2,0.2-0.3,0.4-0.4,0.7c-0.1,0.3-0.2,0.6-0.2,1c0,0.4,0.1,0.8,0.2,1.1c0.1,0.3,0.3,0.5,0.5,0.7
		c0.2,0.2,0.4,0.3,0.6,0.4c0.2,0.1,0.5,0.1,0.7,0.1c0.2,0,0.4,0,0.6-0.1c0.2-0.1,0.4-0.1,0.6-0.3c0.2-0.1,0.3-0.2,0.4-0.3
		c0.1-0.1,0.2-0.2,0.3-0.3c0.1,0,0.2,0.3,0.2,0.6v0.4c0,0.3-0.2,0.7-0.3,0.8c0,0,0,0-0.2,0.1c-0.2,0.1-0.3,0.1-0.5,0.2
		c-0.2,0.1-0.4,0.1-0.6,0.1C255.2,129,254.9,129,254.6,129z"/>
	<path class="st0" d="M67.6,265.1c-0.5,0-1-0.1-1.4-0.2c-0.4-0.2-0.8-0.4-1.1-0.7s-0.5-0.7-0.7-1.1c-0.2-0.4-0.3-1-0.3-1.5
		c0-0.5,0.1-1,0.2-1.5c0.2-0.4,0.4-0.8,0.7-1.1c0.3-0.3,0.7-0.5,1.1-0.7c0.4-0.2,0.9-0.2,1.4-0.2c0.3,0,0.5,0,0.8,0
		c0.2,0,0.4,0.1,0.6,0.1c0.2,0.1,0.4,0.1,0.6,0.2c0.2,0.1,0.3,0.1,0.4,0.2v1c0,0.3,0,0.6-0.1,0.6c-0.1,0-0.2-0.1-0.3-0.2
		c0,0,0,0-0.1-0.1c-0.1-0.1-0.3-0.2-0.4-0.3c-0.2-0.1-0.4-0.2-0.5-0.2c-0.2-0.1-0.4-0.1-0.6-0.1c-0.2,0-0.5,0-0.7,0.1
		c-0.2,0.1-0.4,0.2-0.6,0.4c-0.2,0.2-0.3,0.4-0.4,0.7c-0.1,0.3-0.2,0.6-0.2,1c0,0.4,0.1,0.8,0.2,1.1c0.1,0.3,0.3,0.5,0.5,0.7
		c0.2,0.2,0.4,0.3,0.6,0.4c0.2,0.1,0.5,0.1,0.7,0.1c0.2,0,0.4,0,0.6-0.1c0.2-0.1,0.4-0.2,0.6-0.3c0.1-0.1,0.3-0.2,0.4-0.3
		c0.1-0.1,0.2-0.2,0.3-0.3c0.1,0,0.2,0.3,0.2,0.6v0.4c0,0.3-0.2,0.7-0.3,0.8c0,0,0,0-0.2,0.1c-0.2,0.1-0.3,0.1-0.5,0.2
		c-0.2,0.1-0.4,0.1-0.6,0.1C68.2,265.1,68,265.1,67.6,265.1z"/>
	<path class="st0" d="M75.4,265.1c-0.5,0-1-0.1-1.4-0.2c-0.4-0.2-0.8-0.4-1.1-0.7c-0.3-0.3-0.5-0.7-0.7-1.1c-0.2-0.4-0.3-1-0.3-1.5
		c0-0.5,0.1-1,0.2-1.5c0.2-0.4,0.4-0.8,0.7-1.1c0.3-0.3,0.7-0.5,1.1-0.7c0.4-0.2,0.9-0.2,1.4-0.2c0.3,0,0.5,0,0.8,0
		c0.2,0,0.4,0.1,0.6,0.1c0.2,0.1,0.4,0.1,0.6,0.2c0.2,0.1,0.3,0.1,0.4,0.2v1c0,0.3,0,0.6-0.1,0.6c-0.1,0-0.2-0.1-0.3-0.2
		c0,0,0,0-0.1-0.1c-0.1-0.1-0.3-0.2-0.4-0.3c-0.2-0.1-0.4-0.2-0.5-0.2c-0.2-0.1-0.4-0.1-0.6-0.1c-0.2,0-0.5,0-0.7,0.1
		c-0.2,0.1-0.4,0.2-0.6,0.4c-0.2,0.2-0.3,0.4-0.4,0.7c-0.1,0.3-0.2,0.6-0.2,1c0,0.4,0.1,0.8,0.2,1.1c0.1,0.3,0.3,0.5,0.5,0.7
		c0.2,0.2,0.4,0.3,0.6,0.4c0.2,0.1,0.5,0.1,0.7,0.1c0.2,0,0.4,0,0.6-0.1c0.2-0.1,0.4-0.2,0.6-0.3c0.1-0.1,0.3-0.2,0.4-0.3
		c0.1-0.1,0.2-0.2,0.3-0.3c0.1,0,0.2,0.3,0.2,0.6v0.4c0,0.3-0.2,0.7-0.3,0.8c0,0,0,0-0.2,0.1c-0.2,0.1-0.3,0.1-0.5,0.2
		c-0.2,0.1-0.4,0.1-0.6,0.1C76,265.1,75.7,265.1,75.4,265.1z"/>
	<path class="st0" d="M28.9,184.8c-0.5,0-1-0.1-1.4-0.2c-0.4-0.2-0.8-0.4-1.1-0.7c-0.3-0.3-0.5-0.7-0.7-1.1c-0.2-0.4-0.3-1-0.3-1.5
		c0-0.5,0.1-1,0.2-1.5c0.2-0.4,0.4-0.8,0.7-1.1c0.3-0.3,0.7-0.5,1.1-0.7c0.4-0.2,0.9-0.2,1.4-0.2c0.3,0,0.5,0,0.8,0
		c0.2,0,0.4,0.1,0.6,0.1c0.2,0.1,0.4,0.1,0.6,0.2c0.2,0.1,0.3,0.1,0.4,0.2v1c0,0.3,0,0.6-0.1,0.6c-0.1,0-0.2-0.1-0.3-0.2
		c0,0,0,0-0.1-0.1c-0.1-0.1-0.3-0.2-0.4-0.3c-0.2-0.1-0.3-0.2-0.5-0.2c-0.2-0.1-0.4-0.1-0.6-0.1c-0.2,0-0.5,0-0.7,0.1
		c-0.2,0.1-0.4,0.2-0.6,0.4c-0.2,0.2-0.3,0.4-0.4,0.7c-0.1,0.3-0.2,0.6-0.2,1c0,0.4,0.1,0.8,0.2,1.1c0.1,0.3,0.3,0.5,0.5,0.7
		c0.2,0.2,0.4,0.3,0.6,0.4c0.2,0.1,0.5,0.1,0.7,0.1c0.2,0,0.4,0,0.6-0.1c0.2-0.1,0.4-0.2,0.6-0.3c0.1-0.1,0.3-0.2,0.4-0.3
		c0.1-0.1,0.2-0.2,0.3-0.3c0.1,0,0.2,0.3,0.2,0.6v0.4c0,0.3-0.2,0.7-0.3,0.8c0,0,0,0-0.2,0.1c-0.2,0.1-0.3,0.1-0.5,0.2
		c-0.2,0.1-0.4,0.1-0.6,0.1C29.5,184.8,29.2,184.8,28.9,184.8z"/>
	<path class="st0" d="M36.6,184.8c-0.5,0-1-0.1-1.4-0.2c-0.4-0.2-0.8-0.4-1.1-0.7c-0.3-0.3-0.5-0.7-0.7-1.1c-0.2-0.4-0.3-1-0.3-1.5
		c0-0.5,0.1-1,0.2-1.5c0.2-0.4,0.4-0.8,0.7-1.1c0.3-0.3,0.7-0.5,1.1-0.7c0.4-0.2,0.9-0.2,1.4-0.2c0.3,0,0.5,0,0.8,0
		c0.2,0,0.4,0.1,0.6,0.1c0.2,0.1,0.4,0.1,0.6,0.2c0.2,0.1,0.3,0.1,0.4,0.2v1c0,0.3,0,0.6-0.1,0.6c-0.1,0-0.2-0.1-0.3-0.2
		c0,0,0,0-0.1-0.1c-0.1-0.1-0.3-0.2-0.4-0.3c-0.2-0.1-0.4-0.2-0.5-0.2c-0.2-0.1-0.4-0.1-0.6-0.1c-0.2,0-0.5,0-0.7,0.1
		c-0.2,0.1-0.4,0.2-0.6,0.4c-0.2,0.2-0.3,0.4-0.4,0.7c-0.1,0.3-0.2,0.6-0.2,1c0,0.4,0.1,0.8,0.2,1.1c0.1,0.3,0.3,0.5,0.5,0.7
		c0.2,0.2,0.4,0.3,0.6,0.4c0.2,0.1,0.5,0.1,0.7,0.1c0.2,0,0.4,0,0.6-0.1c0.2-0.1,0.4-0.2,0.6-0.3c0.1-0.1,0.3-0.2,0.4-0.3
		c0.1-0.1,0.2-0.2,0.3-0.3c0.1,0,0.2,0.3,0.2,0.6v0.4c0,0.3-0.2,0.7-0.3,0.8c0,0,0,0-0.2,0.1c-0.2,0.1-0.3,0.1-0.5,0.2
		c-0.2,0.1-0.4,0.1-0.6,0.1C37.2,184.8,37,184.8,36.6,184.8z"/>
	<path class="st0" d="M217.2,265.1c-0.5,0-1-0.1-1.4-0.2c-0.4-0.2-0.8-0.4-1.1-0.7c-0.3-0.3-0.5-0.7-0.7-1.1c-0.2-0.4-0.3-1-0.3-1.5
		c0-0.5,0.1-1,0.2-1.5c0.2-0.4,0.4-0.8,0.7-1.1c0.3-0.3,0.7-0.5,1.1-0.7c0.4-0.2,0.9-0.2,1.4-0.2c0.3,0,0.5,0,0.8,0
		c0.2,0,0.4,0.1,0.6,0.1c0.2,0.1,0.4,0.1,0.6,0.2c0.2,0.1,0.3,0.1,0.4,0.2v1c0,0.3,0,0.6-0.1,0.6c-0.1,0-0.2-0.1-0.3-0.2
		c0,0,0,0-0.1-0.1c-0.1-0.1-0.3-0.2-0.4-0.3c-0.2-0.1-0.3-0.2-0.5-0.2c-0.2-0.1-0.4-0.1-0.6-0.1c-0.2,0-0.5,0-0.7,0.1
		c-0.2,0.1-0.4,0.2-0.6,0.4c-0.2,0.2-0.3,0.4-0.4,0.7c-0.1,0.3-0.2,0.6-0.2,1c0,0.4,0.1,0.8,0.2,1.1c0.1,0.3,0.3,0.5,0.5,0.7
		c0.2,0.2,0.4,0.3,0.6,0.4c0.2,0.1,0.5,0.1,0.7,0.1c0.2,0,0.4,0,0.6-0.1c0.2-0.1,0.4-0.2,0.6-0.3c0.1-0.1,0.3-0.2,0.4-0.3
		c0.1-0.1,0.2-0.2,0.3-0.3c0.1,0,0.2,0.3,0.2,0.6v0.4c0,0.3-0.2,0.7-0.3,0.8c0,0,0,0-0.2,0.1c-0.2,0.1-0.3,0.1-0.5,0.2
		c-0.2,0.1-0.4,0.1-0.6,0.1C217.8,265.1,217.5,265.1,217.2,265.1z"/>
	<path class="st0" d="M224.9,265.1c-0.5,0-1-0.1-1.4-0.2c-0.4-0.2-0.8-0.4-1.1-0.7c-0.3-0.3-0.5-0.7-0.7-1.1c-0.2-0.4-0.3-1-0.3-1.5
		c0-0.5,0.1-1,0.2-1.5c0.2-0.4,0.4-0.8,0.7-1.1c0.3-0.3,0.7-0.5,1.1-0.7c0.4-0.2,0.9-0.2,1.4-0.2c0.3,0,0.5,0,0.8,0
		c0.2,0,0.4,0.1,0.6,0.1c0.2,0.1,0.4,0.1,0.6,0.2c0.2,0.1,0.3,0.1,0.4,0.2v1c0,0.3,0,0.6-0.1,0.6c-0.1,0-0.2-0.1-0.3-0.2
		c0,0,0,0-0.1-0.1c-0.1-0.1-0.3-0.2-0.4-0.3c-0.2-0.1-0.4-0.2-0.5-0.2c-0.2-0.1-0.4-0.1-0.6-0.1c-0.2,0-0.5,0-0.7,0.1
		c-0.2,0.1-0.4,0.2-0.6,0.4c-0.2,0.2-0.3,0.4-0.4,0.7c-0.1,0.3-0.2,0.6-0.2,1c0,0.4,0.1,0.8,0.2,1.1c0.1,0.3,0.3,0.5,0.5,0.7
		c0.2,0.2,0.4,0.3,0.6,0.4c0.2,0.1,0.5,0.1,0.7,0.1c0.2,0,0.4,0,0.6-0.1c0.2-0.1,0.4-0.2,0.6-0.3c0.2-0.1,0.3-0.2,0.4-0.3
		c0.1-0.1,0.2-0.2,0.3-0.3c0.1,0,0.2,0.3,0.2,0.6v0.4c0,0.3-0.1,0.7-0.3,0.8c0,0,0,0-0.2,0.1c-0.2,0.1-0.3,0.1-0.5,0.2
		c-0.2,0.1-0.4,0.1-0.6,0.1C225.5,265.1,225.3,265.1,224.9,265.1z"/>
	<path class="st0" d="M42.7,131.7c-0.5,0-1-0.1-1.4-0.2c-0.4-0.2-0.8-0.4-1.1-0.7c-0.3-0.3-0.6-0.7-0.7-1.1c-0.2-0.4-0.3-1-0.3-1.5
		c0-0.5,0.1-1,0.2-1.5c0.2-0.4,0.4-0.8,0.7-1.1c0.3-0.3,0.7-0.5,1.1-0.7c0.4-0.2,0.9-0.2,1.4-0.2c0.3,0,0.5,0,0.8,0
		c0.2,0,0.4,0.1,0.6,0.1c0.2,0.1,0.4,0.1,0.6,0.2c0.2,0.1,0.3,0.1,0.4,0.2v1c0,0.3,0,0.6-0.1,0.6c-0.1,0-0.2-0.1-0.3-0.2
		c0,0,0,0-0.1-0.1c-0.1-0.1-0.3-0.2-0.4-0.3c-0.2-0.1-0.4-0.2-0.5-0.2c-0.2-0.1-0.4-0.1-0.6-0.1c-0.2,0-0.5,0-0.7,0.1
		c-0.2,0.1-0.4,0.2-0.6,0.4c-0.2,0.2-0.3,0.4-0.4,0.7c-0.1,0.3-0.2,0.6-0.2,1c0,0.4,0.1,0.8,0.2,1.1c0.1,0.3,0.3,0.5,0.5,0.7
		c0.2,0.2,0.4,0.3,0.6,0.4c0.2,0.1,0.5,0.1,0.7,0.1c0.2,0,0.4,0,0.6-0.1c0.2-0.1,0.4-0.2,0.6-0.3c0.1-0.1,0.3-0.2,0.4-0.3
		c0.1-0.1,0.2-0.2,0.3-0.3c0.1,0,0.2,0.3,0.2,0.6v0.4c0,0.3-0.2,0.7-0.3,0.8c0,0,0,0-0.2,0.1c-0.2,0.1-0.3,0.1-0.5,0.2
		c-0.2,0.1-0.4,0.1-0.6,0.1C43.3,131.7,43,131.7,42.7,131.7z"/>
	<path class="st0" d="M50.4,131.7c-0.5,0-1-0.1-1.4-0.2c-0.4-0.2-0.8-0.4-1.1-0.7c-0.3-0.3-0.5-0.7-0.7-1.1c-0.2-0.4-0.3-1-0.3-1.5
		c0-0.5,0.1-1,0.2-1.5c0.2-0.4,0.4-0.8,0.7-1.1c0.3-0.3,0.7-0.5,1.1-0.7c0.4-0.2,0.9-0.2,1.4-0.2c0.3,0,0.5,0,0.8,0
		c0.2,0,0.4,0.1,0.6,0.1c0.2,0.1,0.4,0.1,0.6,0.2c0.2,0.1,0.3,0.1,0.4,0.2v1c0,0.3,0,0.6-0.1,0.6c-0.1,0-0.2-0.1-0.3-0.2
		c0,0,0,0-0.1-0.1c-0.1-0.1-0.3-0.2-0.4-0.3c-0.2-0.1-0.3-0.2-0.5-0.2c-0.2-0.1-0.4-0.1-0.6-0.1c-0.2,0-0.5,0-0.7,0.1
		c-0.2,0.1-0.4,0.2-0.6,0.4c-0.2,0.2-0.3,0.4-0.4,0.7c-0.1,0.3-0.2,0.6-0.2,1c0,0.4,0.1,0.8,0.2,1.1c0.1,0.3,0.3,0.5,0.5,0.7
		c0.2,0.2,0.4,0.3,0.6,0.4c0.2,0.1,0.5,0.1,0.7,0.1c0.2,0,0.4,0,0.6-0.1c0.2-0.1,0.4-0.2,0.6-0.3c0.2-0.1,0.3-0.2,0.4-0.3
		c0.1-0.1,0.2-0.2,0.3-0.3c0.1,0,0.2,0.3,0.2,0.6v0.4c0,0.3-0.1,0.7-0.3,0.8c0,0,0,0-0.2,0.1c-0.2,0.1-0.3,0.1-0.5,0.2
		c-0.2,0.1-0.4,0.1-0.6,0.1C51,131.7,50.8,131.7,50.4,131.7z"/>
	<path class="st0" d="M45.3,76.9c-0.5,0-1-0.1-1.4-0.2c-0.4-0.1-0.8-0.4-1.1-0.7c-0.3-0.3-0.5-0.7-0.7-1.1c-0.2-0.4-0.3-1-0.3-1.5
		c0-0.5,0.1-1,0.2-1.5c0.2-0.4,0.4-0.8,0.7-1.1c0.3-0.3,0.7-0.5,1.1-0.7c0.4-0.2,0.9-0.2,1.4-0.2c0.3,0,0.5,0,0.8,0
		c0.2,0,0.4,0.1,0.6,0.1c0.2,0.1,0.4,0.1,0.6,0.2c0.2,0.1,0.3,0.1,0.4,0.2v1c0,0.3,0,0.6-0.1,0.6c-0.1,0-0.2-0.1-0.3-0.2
		c0,0,0,0-0.1-0.1c-0.1-0.1-0.3-0.2-0.4-0.3c-0.2-0.1-0.3-0.2-0.5-0.2c-0.2-0.1-0.4-0.1-0.6-0.1c-0.2,0-0.5,0-0.7,0.1
		c-0.2,0.1-0.4,0.2-0.6,0.4c-0.2,0.2-0.3,0.4-0.4,0.7c-0.1,0.3-0.2,0.6-0.2,1c0,0.4,0.1,0.8,0.2,1.1c0.1,0.3,0.3,0.5,0.5,0.7
		c0.2,0.2,0.4,0.3,0.6,0.4c0.2,0.1,0.5,0.1,0.7,0.1c0.2,0,0.4,0,0.6-0.1c0.2-0.1,0.4-0.2,0.6-0.3c0.2-0.1,0.3-0.2,0.4-0.3
		c0.1-0.1,0.2-0.2,0.3-0.3c0.1,0,0.2,0.3,0.2,0.6v0.4c0,0.3-0.2,0.7-0.3,0.8c0,0,0,0-0.2,0.1c-0.2,0.1-0.3,0.1-0.5,0.2
		c-0.2,0.1-0.4,0.1-0.6,0.1C45.9,76.9,45.6,76.9,45.3,76.9z"/>
	<path class="st0" d="M53,76.9c-0.5,0-1-0.1-1.4-0.2c-0.4-0.1-0.8-0.4-1.1-0.7c-0.3-0.3-0.5-0.7-0.7-1.1c-0.2-0.4-0.3-1-0.3-1.5
		c0-0.5,0.1-1,0.2-1.5c0.2-0.4,0.4-0.8,0.7-1.1c0.3-0.3,0.7-0.5,1.1-0.7c0.4-0.2,0.9-0.2,1.4-0.2c0.3,0,0.5,0,0.8,0
		c0.2,0,0.4,0.1,0.6,0.1c0.2,0.1,0.4,0.1,0.6,0.2c0.2,0.1,0.3,0.1,0.4,0.2v1c0,0.3,0,0.6-0.1,0.6c-0.1,0-0.2-0.1-0.3-0.2
		c0,0,0,0-0.1-0.1c-0.1-0.1-0.3-0.2-0.4-0.3c-0.2-0.1-0.4-0.2-0.5-0.2c-0.2-0.1-0.4-0.1-0.6-0.1c-0.2,0-0.5,0-0.7,0.1
		c-0.2,0.1-0.4,0.2-0.6,0.4c-0.2,0.2-0.3,0.4-0.4,0.7c-0.1,0.3-0.2,0.6-0.2,1c0,0.4,0.1,0.8,0.2,1.1c0.1,0.3,0.3,0.5,0.5,0.7
		c0.2,0.2,0.4,0.3,0.6,0.4c0.2,0.1,0.5,0.1,0.7,0.1c0.2,0,0.4,0,0.6-0.1c0.2-0.1,0.4-0.2,0.6-0.3c0.1-0.1,0.3-0.2,0.4-0.3
		c0.1-0.1,0.2-0.2,0.3-0.3c0.1,0,0.2,0.3,0.2,0.6v0.4c0,0.3-0.2,0.7-0.3,0.8c0,0,0,0-0.2,0.1c-0.2,0.1-0.3,0.1-0.5,0.2
		c-0.2,0.1-0.4,0.1-0.6,0.1C53.7,76.9,53.4,76.9,53,76.9z"/>
	<path class="st0" d="M26.7,163.4c0-1.9-0.3-3.6-1-5.1c-0.6-1.6-1.6-3-2.9-4.2c-1.3-1.3-2.7-2.2-4.3-2.8c-1.6-0.6-3.3-0.9-5.2-0.9
		c-1.9,0-3.6,0.3-5.2,0.9c-1.6,0.6-3,1.6-4.3,2.8l0,0c-1.3,1.3-2.3,2.7-2.9,4.2c-0.6,1.6-1,3.3-1,5.1c0,1.9,0.3,3.6,1,5.1
		c0.6,1.6,1.6,3,2.9,4.2c0.4,0.4,1,0.8,1.5,1.2c0.8,0.5,1.7,1,2.4,1.3c0.7,0.3,1.2,0.5,1.2,0.5c0.1,0.1,0.3,0.1,0.4,0.1
		c0.2,0,0.5-0.1,0.7-0.2c0.2-0.1,0.3-0.3,0.4-0.6l0,0l1.4-4.6l-0.5-0.2c-1-0.3-1.9-0.9-2.7-1.7c-0.7-0.7-1.1-1.5-1.5-2.3
		c-0.3-0.9-0.5-1.8-0.5-2.8c0-1,0.2-2,0.5-2.8c0.3-0.9,0.8-1.6,1.5-2.4h0c0.7-0.7,1.4-1.2,2.1-1.6c0.8-0.3,1.6-0.5,2.6-0.5
		c0.9,0,1.8,0.2,2.6,0.5c0.8,0.3,1.5,0.9,2.1,1.6l0,0c0.7,0.7,1.1,1.5,1.5,2.4c0.3,0.9,0.5,1.8,0.5,2.8c0,1-0.2,2-0.5,2.8
		c-0.3,0.9-0.8,1.6-1.5,2.3h0c-0.2,0.2-0.4,0.4-0.7,0.6c-0.4,0.3-0.8,0.5-1.1,0.7c-0.2,0.1-0.3,0.1-0.4,0.2c0,0-0.1,0-0.1,0
		c0,0,0,0,0,0l0,0l0,0l0.1,0.2l-0.1-0.2l0,0l0.1,0.2l-0.1-0.2c-0.2,0.1-0.4,0.3-0.5,0.5c-0.1,0.2-0.2,0.4-0.2,0.7
		c0,0.1,0,0.2,0.1,0.4v0l1.4,4.6l0.5-0.1c2.1-0.6,4.1-1.7,5.7-3.3c1.3-1.3,2.3-2.7,2.9-4.2C26.4,167,26.7,165.3,26.7,163.4h-1.2
		c0,1.7-0.3,3.3-0.9,4.7c-0.6,1.4-1.5,2.7-2.6,3.9c-1.5,1.5-3.2,2.5-5.2,3l0.1,0.6l0.6-0.2l-1.3-4l0,0c0,0,0,0,0,0c0,0,0-0.1,0-0.1
		c0,0,0,0,0,0c0,0,0.4-0.2,0.9-0.5c0.3-0.2,0.5-0.3,0.8-0.6c0.3-0.2,0.6-0.5,0.8-0.7l0,0c0.7-0.8,1.3-1.7,1.7-2.7
		c0.4-1,0.6-2.1,0.6-3.2c0-1.1-0.2-2.2-0.6-3.2c-0.4-1-0.9-1.9-1.7-2.7h0c-0.7-0.8-1.6-1.4-2.5-1.9c-0.9-0.4-2-0.6-3-0.6
		c-1.1,0-2.1,0.2-3,0.6c-0.9,0.4-1.8,1-2.5,1.9h0c-0.7,0.8-1.3,1.7-1.7,2.7c-0.4,1-0.6,2.1-0.6,3.2c0,1.1,0.2,2.2,0.6,3.2
		c0.4,1,0.9,1.9,1.7,2.7c0.9,1,2,1.7,3.2,2.1l0.2-0.5l-0.6-0.2l-1.3,4.1l0,0l0,0l0,0l0,0v0l0,0l0,0v0v0l0,0h0v0l0,0l0,0h0
		c0,0-0.9-0.4-1.8-0.9c-0.5-0.3-1-0.6-1.5-0.9c-0.5-0.3-1-0.7-1.3-1c-1.2-1.2-2.1-2.4-2.6-3.9c-0.6-1.4-0.9-3-0.9-4.7
		c0-1.7,0.3-3.3,0.9-4.7c0.6-1.4,1.5-2.7,2.6-3.9l0,0c1.2-1.2,2.5-2,3.9-2.6c1.4-0.6,3-0.9,4.8-0.9c1.7,0,3.3,0.3,4.8,0.9
		c1.4,0.6,2.7,1.4,3.9,2.6c1.2,1.2,2.1,2.4,2.6,3.9c0.6,1.4,0.9,3,0.9,4.7H26.7z"/>
	<path class="st0" d="M112.7,42.3c0-1-0.4-1.9-1.1-2.6c-0.7-0.7-1.6-1-2.6-1c-1,0-1.9,0.3-2.6,1c-0.7,0.7-1.1,1.6-1.1,2.6
		c0,1,0.4,1.9,1.1,2.6c0.5,0.4,1,0.7,1,0.7c0.3,0.1,0.7,0,0.8-0.4l0.2-0.7c-0.3-0.1-0.6-0.3-0.8-0.5c-0.4-0.4-0.6-1-0.6-1.6
		c0-0.6,0.2-1.2,0.6-1.6c0.4-0.4,0.9-0.7,1.5-0.7c0.6,0,1.1,0.2,1.5,0.7c0.4,0.4,0.6,1,0.6,1.6c0,0.6-0.2,1.2-0.6,1.6
		c-0.2,0.3-0.3,0.3-0.3,0.3c-0.3,0.1-0.5,0.5-0.4,0.9l0.2,0.7c0.6-0.2,1.1-0.5,1.6-0.9C112.4,44.1,112.7,43.3,112.7,42.3"/>
	<path class="st0" d="M64.3,56.1c0-1-0.4-1.9-1.1-2.6c-0.7-0.7-1.6-1-2.6-1c-1,0-1.9,0.3-2.6,1c-0.7,0.7-1.1,1.6-1.1,2.6
		c0,1,0.4,1.9,1.1,2.6c0.5,0.4,1,0.7,1,0.7c0.3,0.1,0.7,0,0.8-0.4l0.2-0.7c-0.3-0.1-0.6-0.3-0.8-0.5c-0.4-0.4-0.6-1-0.6-1.6
		c0-0.6,0.2-1.2,0.6-1.6c0.4-0.4,0.9-0.7,1.5-0.7c0.6,0,1.1,0.2,1.5,0.7c0.4,0.4,0.6,1,0.6,1.6c0,0.6-0.2,1.2-0.6,1.6
		c-0.2,0.3-0.3,0.3-0.3,0.3c-0.3,0.1-0.5,0.5-0.4,0.9l0.2,0.7c0.6-0.2,1.1-0.5,1.6-0.9C63.9,57.9,64.3,57.1,64.3,56.1"/>
	<path class="st0" d="M10.3,116.6c0-1-0.4-1.9-1.1-2.6c-0.7-0.7-1.6-1-2.6-1c-1,0-1.9,0.3-2.6,1c-0.7,0.7-1.1,1.6-1.1,2.6
		c0,1,0.4,1.9,1.1,2.6c0.5,0.4,1,0.7,1,0.7c0.3,0.1,0.7,0,0.8-0.4l0.2-0.7c-0.3-0.1-0.6-0.3-0.8-0.5c-0.4-0.4-0.6-1-0.6-1.6
		c0-0.6,0.2-1.2,0.6-1.6c0.4-0.4,0.9-0.7,1.5-0.7c0.6,0,1.1,0.2,1.5,0.7c0.4,0.4,0.6,1,0.6,1.6c0,0.6-0.2,1.2-0.6,1.6
		c-0.2,0.3-0.3,0.3-0.3,0.3c-0.3,0.1-0.5,0.5-0.4,0.9l0.2,0.7c0.6-0.2,1.1-0.5,1.6-0.9C9.9,118.5,10.3,117.6,10.3,116.6"/>
	<path class="st0" d="M33.5,227.6c0-1-0.4-1.9-1.1-2.6c-0.7-0.7-1.6-1-2.6-1c-1,0-1.9,0.3-2.6,1c-0.7,0.7-1.1,1.6-1.1,2.6
		c0,1,0.4,1.9,1.1,2.6c0.5,0.4,1,0.7,1,0.7c0.3,0.1,0.7,0,0.8-0.4l0.2-0.7c-0.3-0.1-0.6-0.3-0.8-0.5c-0.4-0.4-0.6-1-0.6-1.6
		c0-0.6,0.2-1.2,0.6-1.6c0.4-0.4,0.9-0.7,1.5-0.7c0.6,0,1.1,0.2,1.5,0.7c0.4,0.4,0.6,1,0.6,1.6c0,0.6-0.2,1.2-0.6,1.6
		c-0.2,0.3-0.3,0.3-0.3,0.3c-0.3,0.1-0.5,0.5-0.4,0.9l0.2,0.7c0.6-0.2,1.1-0.5,1.6-0.9C33.1,229.5,33.5,228.6,33.5,227.6"/>
	<path class="st0" d="M71,202.3c0-1-0.4-1.9-1.1-2.6c-0.7-0.7-1.6-1-2.6-1c-1,0-1.9,0.3-2.6,1c-0.7,0.7-1.1,1.6-1.1,2.6
		c0,1,0.4,1.9,1.1,2.6c0.5,0.4,1,0.7,1,0.7c0.3,0.1,0.7,0,0.8-0.4l0.2-0.7c-0.3-0.1-0.6-0.3-0.8-0.5c-0.4-0.4-0.6-1-0.6-1.6
		s0.2-1.2,0.6-1.6c0.4-0.4,0.9-0.7,1.5-0.7c0.6,0,1.1,0.2,1.5,0.7c0.4,0.4,0.6,1,0.6,1.6s-0.2,1.2-0.6,1.6c-0.2,0.3-0.3,0.3-0.3,0.3
		c-0.3,0.1-0.5,0.5-0.4,0.9l0.2,0.7c0.6-0.2,1.1-0.5,1.6-0.9C70.6,204.2,71,203.3,71,202.3"/>
	<path class="st0" d="M104.2,235.7c0-1-0.4-1.9-1.1-2.6c-0.7-0.7-1.6-1-2.6-1c-1,0-1.9,0.3-2.6,1c-0.7,0.7-1.1,1.6-1.1,2.6
		c0,1,0.4,1.9,1.1,2.6c0.5,0.4,1,0.7,1,0.7c0.3,0.1,0.7,0,0.8-0.4l0.2-0.7c-0.3-0.1-0.6-0.3-0.8-0.5c-0.4-0.4-0.6-1-0.6-1.6
		c0-0.6,0.2-1.2,0.6-1.6c0.4-0.4,0.9-0.7,1.5-0.7c0.6,0,1.1,0.2,1.5,0.7c0.4,0.4,0.6,1,0.6,1.6c0,0.6-0.2,1.2-0.6,1.6
		c-0.2,0.3-0.3,0.3-0.3,0.3c-0.3,0.1-0.5,0.5-0.4,0.9l0.2,0.7c0.6-0.2,1.1-0.5,1.6-0.9C103.8,237.6,104.2,236.7,104.2,235.7"/>
	<path class="st0" d="M201.9,272.9c0-1-0.4-1.9-1.1-2.6c-0.7-0.7-1.6-1-2.6-1c-1,0-1.9,0.3-2.6,1c-0.7,0.7-1.1,1.6-1.1,2.6
		c0,1,0.4,1.9,1.1,2.6c0.5,0.4,1,0.7,1,0.7c0.3,0.1,0.7,0,0.8-0.4l0.2-0.7c-0.3-0.1-0.6-0.3-0.8-0.5c-0.4-0.4-0.6-1-0.6-1.6
		c0-0.6,0.2-1.2,0.6-1.6c0.4-0.4,0.9-0.7,1.5-0.7c0.6,0,1.1,0.2,1.5,0.7c0.4,0.4,0.6,1,0.6,1.6c0,0.6-0.2,1.2-0.6,1.6
		c-0.2,0.3-0.3,0.3-0.3,0.3c-0.3,0.1-0.5,0.5-0.4,0.9l0.2,0.7c0.6-0.2,1.1-0.5,1.6-0.9C201.5,274.7,201.9,273.9,201.9,272.9"/>
	<path class="st0" d="M232.4,208.5c0-1-0.4-1.9-1.1-2.6c-0.7-0.7-1.6-1-2.6-1c-1,0-1.9,0.3-2.6,1c-0.7,0.7-1.1,1.6-1.1,2.6
		c0,1,0.4,1.9,1.1,2.6c0.5,0.4,1,0.7,1,0.7c0.3,0.1,0.7,0,0.8-0.4l0.2-0.7c-0.3-0.1-0.6-0.3-0.8-0.5c-0.4-0.4-0.6-1-0.6-1.6
		c0-0.6,0.2-1.2,0.6-1.6c0.4-0.4,0.9-0.7,1.5-0.7c0.6,0,1.1,0.2,1.5,0.7c0.4,0.4,0.6,1,0.6,1.6c0,0.6-0.2,1.2-0.6,1.6
		c-0.2,0.3-0.3,0.3-0.3,0.3c-0.3,0.1-0.5,0.5-0.4,0.9l0.2,0.7c0.6-0.2,1.1-0.5,1.6-0.9C232.1,210.4,232.4,209.5,232.4,208.5"/>
	<path class="st0" d="M287.5,184.9c0-1-0.4-1.9-1.1-2.6c-0.7-0.7-1.6-1-2.6-1c-1,0-1.9,0.3-2.6,1c-0.7,0.7-1.1,1.6-1.1,2.6
		c0,1,0.4,1.9,1.1,2.6c0.5,0.4,1,0.7,1,0.7c0.3,0.1,0.7,0,0.8-0.4l0.2-0.7c-0.3-0.1-0.6-0.3-0.8-0.5c-0.4-0.4-0.6-1-0.6-1.6
		c0-0.6,0.2-1.2,0.6-1.6c0.4-0.4,0.9-0.7,1.5-0.7c0.6,0,1.1,0.2,1.5,0.7c0.4,0.4,0.6,1,0.6,1.6c0,0.6-0.2,1.2-0.6,1.6
		c-0.2,0.3-0.3,0.3-0.3,0.3c-0.3,0.1-0.5,0.5-0.4,0.9l0.2,0.7c0.6-0.2,1.1-0.5,1.6-0.9C287.1,186.7,287.5,185.9,287.5,184.9"/>
	<path class="st0" d="M287.8,98.8c0-1-0.4-1.9-1.1-2.6c-0.7-0.7-1.6-1-2.6-1c-1,0-1.9,0.3-2.6,1c-0.7,0.7-1.1,1.6-1.1,2.6
		c0,1,0.4,1.9,1.1,2.6c0.5,0.4,1,0.7,1,0.7c0.3,0.1,0.7,0,0.8-0.4l0.2-0.7c-0.3-0.1-0.6-0.3-0.8-0.5c-0.4-0.4-0.6-1-0.6-1.6
		c0-0.6,0.2-1.2,0.6-1.6c0.4-0.4,0.9-0.7,1.5-0.7c0.6,0,1.1,0.2,1.5,0.7c0.4,0.4,0.6,1,0.6,1.6c0,0.6-0.2,1.2-0.6,1.6
		c-0.2,0.3-0.3,0.3-0.3,0.3c-0.3,0.1-0.5,0.5-0.4,0.9l0.2,0.7c0.6-0.2,1.1-0.5,1.6-0.9C287.5,100.7,287.8,99.9,287.8,98.8"/>
	<path class="st0" d="M238.6,74.7c0-1-0.4-1.9-1.1-2.6c-0.7-0.7-1.6-1-2.6-1c-1,0-1.9,0.3-2.6,1c-0.7,0.7-1.1,1.6-1.1,2.6
		c0,1,0.4,1.9,1.1,2.6c0.5,0.4,1,0.7,1,0.7c0.3,0.1,0.7,0,0.8-0.4l0.2-0.7c-0.3-0.1-0.6-0.3-0.8-0.5c-0.4-0.4-0.6-1-0.6-1.6
		c0-0.6,0.2-1.2,0.6-1.6c0.4-0.4,0.9-0.7,1.5-0.7c0.6,0,1.1,0.2,1.5,0.7c0.4,0.4,0.6,1,0.6,1.6c0,0.6-0.2,1.2-0.6,1.6
		c-0.2,0.3-0.3,0.3-0.3,0.3c-0.3,0.1-0.5,0.5-0.4,0.9l0.2,0.7c0.6-0.2,1.1-0.5,1.6-0.9C238.2,76.6,238.6,75.7,238.6,74.7"/>
	<path class="st0" d="M165.4,8.4c0-1-0.4-1.9-1.1-2.6c-0.7-0.7-1.6-1-2.6-1c-1,0-1.9,0.3-2.6,1c-0.7,0.7-1.1,1.6-1.1,2.6
		c0,1,0.4,1.9,1.1,2.6c0.5,0.4,1,0.7,1,0.7c0.3,0.1,0.7,0,0.8-0.4l0.2-0.7c-0.3-0.1-0.6-0.3-0.8-0.5c-0.4-0.4-0.6-1-0.6-1.6
		c0-0.6,0.2-1.2,0.6-1.6c0.4-0.4,0.9-0.7,1.5-0.7c0.6,0,1.1,0.2,1.5,0.7c0.4,0.4,0.6,1,0.6,1.6c0,0.6-0.2,1.2-0.6,1.6
		c-0.2,0.3-0.3,0.3-0.3,0.3c-0.3,0.1-0.5,0.5-0.4,0.9l0.2,0.7c0.6-0.2,1.1-0.5,1.6-0.9C165,10.3,165.4,9.4,165.4,8.4"/>
	<path class="st0" d="M252.6,82.4v3.4h-3.4v-3.4H252.6 M253.7,81.2H248v5.7h5.7V81.2z"/>
	<path class="st0" d="M260.4,82.4v3.4H257v-3.4H260.4 M261.5,81.2h-5.7v5.7h5.7L261.5,81.2L261.5,81.2z"/>
	<path class="st0" d="M268.2,82.4v3.4h-3.4v-3.4H268.2 M269.3,81.2h-5.7v5.7h5.7V81.2z"/>
	<path class="st0" d="M252.6,90.1v3.4h-3.4v-3.4H252.6 M253.7,89H248v5.7h5.7V89z"/>
	<path class="st0" d="M260.4,90.1v3.4H257v-3.4H260.4 M261.5,89h-5.7v5.7h5.7L261.5,89L261.5,89z"/>
	<path class="st0" d="M268.2,90.1v3.4h-3.4v-3.4H268.2 M269.3,89h-5.7v5.7h5.7V89z"/>
	<path class="st0" d="M264.4,78.2c-0.3,0-0.6-0.3-0.6-0.6v-4.3c0-0.3,0.3-0.6,0.6-0.6c0.3,0,0.6,0.3,0.6,0.6v4.3
		C265,78,264.7,78.2,264.4,78.2z"/>
	<path class="st0" d="M253,78.2c-0.3,0-0.6-0.3-0.6-0.6v-4.3c0-0.3,0.3-0.6,0.6-0.6c0.3,0,0.6,0.3,0.6,0.6v4.3
		C253.6,78,253.3,78.2,253,78.2z"/>
	<rect x="254.8" y="74.4" class="st0" width="7.8" height="1.1"/>
	<path class="st0" d="M269.9,74.4h-3.7v1.1h3.7c0.6,0,1.1,0.5,1.1,1.1v18.8c0,0.6-0.5,1.1-1.1,1.1h-22.5c-0.6,0-1.1-0.5-1.1-1.1
		V76.8c0-0.6,0.5-1.1,1.1-1.1h3.7v-1.1h-3.7c-1.3,0-2.3,1-2.3,2.3v18.8c0,1.3,1,2.3,2.3,2.3h22.5c1.3,0,2.3-1,2.3-2.3V76.8
		C272.2,75.5,271.2,74.4,269.9,74.4z"/>
	<path class="st0" d="M271.7,163.4c0.1,0,0.2-0.1,0.2-0.2c0.1-0.1,0.1-0.2,0.1-0.3c0-0.2-0.1-0.3-0.2-0.4c-0.1-0.1-0.2-0.2-0.4-0.2
		h-9.7c0,0,0,0,0,0c0,0,0,0,0,0h0h0c-0.1,0-0.1,0-0.2,0.1c-0.1,0-0.2,0.1-0.2,0.2c-0.1,0.1-0.1,0.2-0.1,0.3c0,0,0,0,0,0l0,0l0,0
		c0,0.1,0.1,0.3,0.2,0.4c0.1,0.1,0.2,0.1,0.4,0.1c0,0,0,0,0,0h9.7C271.6,163.4,271.7,163.4,271.7,163.4z"/>
	<path class="st0" d="M255.7,171.8L255.7,171.8c0,0.2,0.1,0.3,0.2,0.4c0.1,0.1,0.2,0.1,0.4,0.1c0,0,0,0,0,0h8.4l0,0
		c0.1,0,0.2,0,0.2,0c0.1,0,0.2-0.1,0.2-0.2c0.1-0.1,0.1-0.2,0.1-0.3c0-0.1,0-0.2,0-0.2c0-0.1-0.1-0.2-0.2-0.2
		c-0.1-0.1-0.2-0.1-0.3-0.1h-8.4c0,0,0,0,0,0c0,0,0,0,0,0h0l0,0c-0.1,0-0.3,0.1-0.3,0.2C255.8,171.5,255.7,171.6,255.7,171.8
		C255.7,171.8,255.7,171.8,255.7,171.8L255.7,171.8z"/>
	<path class="st0" d="M261.7,159.8h9.9c0.1,0,0.1,0,0.2,0c0.1,0,0.2-0.1,0.2-0.2c0.1-0.1,0.1-0.2,0.1-0.3v-5.8c0-0.1,0-0.2,0-0.2
		c0-0.1-0.1-0.2-0.2-0.2c-0.1-0.1-0.2-0.1-0.3-0.1h-9.9c0,0,0,0,0,0h0l0,0c-0.1,0-0.3,0.1-0.4,0.2c-0.1,0.1-0.1,0.2-0.1,0.4v5.8
		c0,0.2,0.1,0.3,0.2,0.4C261.4,159.7,261.5,159.8,261.7,159.8z M262.2,154h8.8v4.6h-8.8V154z"/>
	<path class="st0" d="M283.2,156.6c-0.4-0.4-0.8-0.6-1.4-0.6h-1.2v-4.2c0-0.5-0.2-1-0.6-1.4c-0.4-0.4-0.8-0.6-1.4-0.6h-24.1
		c-0.5,0-1,0.2-1.4,0.6c-0.4,0.4-0.6,0.8-0.6,1.4v21.7c0,0.5,0.2,1,0.6,1.4c0.4,0.3,0.8,0.6,1.4,0.6h26.2h0.9h0.2c0,0,0,0,0.1,0h0.4
		v-0.1c0.4-0.1,0.8-0.3,1.1-0.6c0.3-0.3,0.5-0.8,0.5-1.3V158C283.8,157.4,283.6,157,283.2,156.6z M282.7,173.6
		c0,0.2-0.1,0.4-0.2,0.6c-0.2,0.1-0.4,0.2-0.6,0.2h-0.1c-0.1,0-0.2,0-0.4-0.1c-0.1,0-0.2-0.1-0.2-0.2c-0.1-0.1-0.2-0.2-0.3-0.5
		c-0.1-0.2-0.1-0.6-0.1-1v-15.5h1.2c0.2,0,0.4,0.1,0.6,0.2c0.1,0.1,0.2,0.3,0.2,0.6V173.6z M254.6,151h24.1c0.2,0,0.4,0.1,0.6,0.2
		c0.1,0.1,0.2,0.4,0.2,0.6v4.7c0,0,0,0,0,0.1c0,0,0,0,0,0.1v15.4v0.6c0,0.5,0.1,0.9,0.2,1.3c0.1,0.2,0.1,0.4,0.2,0.5h-25.3
		c-0.2,0-0.4-0.1-0.6-0.2c-0.1-0.2-0.2-0.4-0.2-0.6v-21.7c0-0.2,0.1-0.4,0.2-0.6C254.1,151.1,254.3,151,254.6,151z"/>
	<path class="st0" d="M255.7,168.9L255.7,168.9c0,0.1,0.1,0.3,0.2,0.4c0.1,0.1,0.2,0.1,0.4,0.1c0,0,0,0,0,0h8.4l0,0
		c0.1,0,0.2,0,0.2,0c0.1,0,0.2-0.1,0.2-0.2c0.1-0.1,0.1-0.2,0.1-0.3c0-0.1,0-0.2,0-0.2c0-0.1-0.1-0.2-0.2-0.2
		c-0.1-0.1-0.2-0.1-0.3-0.1h-8.4c0,0,0,0,0,0c0,0,0,0,0,0h0l0,0c-0.1,0-0.1,0-0.2,0.1c-0.1,0.1-0.2,0.1-0.2,0.2
		C255.7,168.6,255.7,168.7,255.7,168.9C255.7,168.8,255.7,168.8,255.7,168.9L255.7,168.9z"/>
	<path class="st0" d="M277.3,171.3c-0.1-0.1-0.2-0.1-0.3-0.1h-8.4c0,0,0,0,0,0c0,0,0,0,0,0h0l0,0c-0.1,0-0.3,0.1-0.3,0.2
		c-0.1,0.1-0.1,0.2-0.1,0.4c0,0,0,0,0,0.1h0l0,0v0h0c0,0.1,0.1,0.3,0.2,0.3c0.1,0.1,0.2,0.1,0.4,0.1c0,0,0,0,0,0h8.4l0,0
		c0.1,0,0.2,0,0.2,0c0.1,0,0.2-0.1,0.2-0.2c0.1-0.1,0.1-0.2,0.1-0.3c0-0.1,0-0.2,0-0.2C277.4,171.4,277.3,171.4,277.3,171.3z"/>
	<path class="st0" d="M277.3,168.3c-0.1-0.1-0.2-0.1-0.3-0.1h-8.4c0,0,0,0,0,0c0,0,0,0,0,0h0l0,0c-0.1,0-0.3,0.1-0.4,0.2
		c-0.1,0.1-0.1,0.2-0.1,0.4c0,0,0,0,0,0.1h0l0,0l0,0l0,0c0,0.1,0.1,0.3,0.2,0.3c0.1,0.1,0.2,0.1,0.4,0.1c0,0,0,0,0,0h8.4l0,0
		c0.1,0,0.2,0,0.2,0c0.1,0,0.2-0.1,0.2-0.2c0.1-0.1,0.1-0.2,0.1-0.3c0-0.1,0-0.2,0-0.2C277.4,168.5,277.3,168.4,277.3,168.3z"/>
	<path class="st0" d="M255.7,165.9L255.7,165.9c0,0.2,0.1,0.3,0.2,0.4c0.1,0.1,0.2,0.1,0.4,0.1c0,0,0,0,0,0h8.4l0,0
		c0.1,0,0.2,0,0.2-0.1c0.1,0,0.2-0.1,0.2-0.2c0.1-0.1,0.1-0.2,0.1-0.3c0-0.1,0-0.2,0-0.2c0-0.1-0.1-0.2-0.2-0.2
		c-0.1-0.1-0.2-0.1-0.3-0.1h-8.4c0,0,0,0,0,0c0,0,0,0,0,0h0l0,0c-0.1,0-0.1,0-0.2,0.1c-0.1,0.1-0.2,0.1-0.2,0.2
		C255.7,165.6,255.7,165.7,255.7,165.9C255.7,165.8,255.7,165.9,255.7,165.9L255.7,165.9z"/>
	<path class="st0" d="M268.5,165.3C268.5,165.3,268.5,165.3,268.5,165.3L268.5,165.3L268.5,165.3c-0.2,0-0.3,0.1-0.4,0.2
		c-0.1,0.1-0.1,0.2-0.1,0.4c0,0,0,0,0,0.1l0,0l0,0v0l0,0c0,0.1,0,0.1,0.1,0.2c0,0.1,0.1,0.2,0.2,0.2c0.1,0.1,0.2,0.1,0.3,0.1
		c0,0,0,0,0,0h8.4l0,0c0.1,0,0.2,0,0.2-0.1c0.1,0,0.2-0.1,0.2-0.2c0.1-0.1,0.1-0.2,0.1-0.3c0-0.1,0-0.2,0-0.2c0-0.1-0.1-0.2-0.2-0.2
		c-0.1-0.1-0.2-0.1-0.3-0.1H268.5C268.6,165.3,268.6,165.3,268.5,165.3z"/>
	<path class="st0" d="M31.6,206.2h-12l0,0c-0.3,0-0.6,0.4-0.5,0.7c0,0.3,0.3,0.5,0.6,0.5c0,0,0,0,0,0h11.9c0.3,0,0.6-0.3,0.6-0.6
		C32.2,206.5,31.9,206.2,31.6,206.2z"/>
	<path class="st0" d="M31.6,210.8h-12l0,0c-0.3,0-0.6,0.3-0.5,0.7c0,0.3,0.3,0.5,0.6,0.5c0,0,0,0,0,0h11.9c0.3,0,0.6-0.3,0.6-0.6
		C32.2,211,31.9,210.8,31.6,210.8z"/>
	<path class="st0" d="M36.2,196.1h-0.7v-6.2c0-0.3-0.3-0.6-0.6-0.6H16.4c-0.1,0-0.1,0-0.2,0c-0.3,0.1-0.5,0.3-0.5,0.6v6.2h-0.7
		c-1.5,0-2.8,1.2-2.8,2.7v6.8c0,1.5,1.3,2.7,2.8,2.7h0.7v6.2c0,0.3,0.3,0.6,0.6,0.6H35c0.3,0,0.6-0.3,0.6-0.6v-6.2h0.7
		c1.6,0,2.8-1.2,2.8-2.7v-6.8C39,197.3,37.8,196.1,36.2,196.1z M16.9,213.9v-9.6h17.4v9.6H16.9z M34.4,190.5v5.6H16.9v-5.6H34.4z
		 M36.2,207.1h-0.7v-3.4l0,0c0-0.3-0.3-0.6-0.6-0.6H16.3l-0.1,0c-0.1,0-0.2,0.1-0.3,0.1h-0.2v0.3l0,0c0,0.1,0,0.1,0,0.2v3.4h-0.7
		c-0.9,0-1.6-0.6-1.6-1.4v-6.8c0-0.8,0.7-1.4,1.6-1.4h21.2c0.9,0,1.6,0.6,1.6,1.4v6.8C37.8,206.4,37.1,207.1,36.2,207.1z"/>
	<path class="st0" d="M80.9,67.9H75c-0.4,0-0.7,0.3-0.7,0.7v5.2h-5.2c-0.4,0-0.7,0.3-0.7,0.7v5.2h-5.2c-0.4,0-0.7,0.3-0.7,0.7v5.2
		h-5.2c-0.4,0-0.7,0.3-0.7,0.7v5.9c0,0.4,0.3,0.7,0.7,0.7h8.9c0.2,0,0.4-0.1,0.5-0.2L81.5,78c0.1-0.1,0.2-0.3,0.2-0.5v-8.9
		C81.7,68.2,81.4,67.9,80.9,67.9z M80.2,77.2L65.8,91.5H58v-4.4h5.2c0.4,0,0.7-0.3,0.7-0.7v-5.2h5.2c0.4,0,0.7-0.3,0.7-0.7v-5.2H75
		c0.4,0,0.7-0.3,0.7-0.7v-5.2h4.4V77.2z"/>
	<path class="st0" d="M148,18.5h0.6c0-0.2,0-0.3-0.1-0.5c-0.1-0.2-0.2-0.4-0.4-0.5c-0.2-0.1-0.4-0.2-0.7-0.2h-42.6
		c-0.2,0-0.3,0-0.5,0.1c-0.2,0.1-0.4,0.2-0.5,0.4c-0.1,0.2-0.2,0.4-0.2,0.7v2.9c0,0.2,0,0.3,0.1,0.5c0.1,0.2,0.2,0.4,0.4,0.5
		c0.2,0.1,0.4,0.2,0.7,0.2h16.9c0,0,0,0,0,0h0l0-0.1l-0.1,0.1c0,0,0,0,0,0l0-0.1l-0.1,0.1l0.1-0.3l-0.2,0.3c0,0,0,0,0.1,0l0.1-0.3
		l-0.2,0.3l0.2-0.3l-0.4,0.2c0,0.1,0.1,0.1,0.1,0.1l0.2-0.3l-0.4,0.2l0.4-0.2h-0.4c0,0.1,0,0.1,0.1,0.2l0.4-0.2h-0.4h0.4l-0.4-0.1
		c0,0,0,0.1,0,0.1h0.4l-0.4-0.1l0.2,0.1l-0.2-0.1c0,0,0,0,0,0.1l0.2,0.1l-0.2-0.1l0,0l0,0l0,0l0,0l0,0c0,0,0,0,0,0l0,0l-7.2,7.2
		c-0.1,0.1-0.2,0.3-0.3,0.4c-0.1,0.1-0.1,0.3-0.1,0.5c0,0.2,0,0.3,0.1,0.5c0.1,0.1,0.1,0.3,0.3,0.4h0l2.1,2.1
		c0.1,0.1,0.3,0.2,0.4,0.3c0.1,0.1,0.3,0.1,0.5,0.1c0.2,0,0.3,0,0.4-0.1c0.1-0.1,0.3-0.1,0.4-0.3v0l8-8l0,0l0,0l0,0l0,0l8,8
		c0.1,0.1,0.3,0.2,0.4,0.3c0.1,0.1,0.3,0.1,0.4,0.1c0.2,0,0.3,0,0.5-0.1c0.1-0.1,0.3-0.1,0.4-0.3l0,0l2.1-2.1
		c0.1-0.1,0.2-0.3,0.3-0.4c0.1-0.1,0.1-0.3,0.1-0.5c0-0.2,0-0.3-0.1-0.5c-0.1-0.1-0.1-0.3-0.3-0.4l-7.2-7.2c0,0,0,0,0,0v0v0v0v0
		l-0.1,0.1l0.2-0.1c0,0,0,0,0,0l-0.1,0.1l0.2-0.1l-0.3,0.1h0.4c0-0.1,0-0.1,0-0.1l-0.3,0.1h0.4h-0.4l0.4,0.2c0-0.1,0.1-0.2,0.1-0.2
		h-0.4l0.4,0.2l-0.4-0.2l0.2,0.3c0,0,0.1-0.1,0.1-0.1l-0.4-0.2l0.2,0.3l-0.2-0.2l0.1,0.3c0,0,0.1,0,0.1-0.1l-0.2-0.2l0.1,0.3l0-0.1
		l0,0.1l0,0l0-0.1l0,0.1l0,0l0,0h0l0,0l0,0c0,0,0,0,0,0h16.9c0.2,0,0.3,0,0.5-0.1c0.2-0.1,0.4-0.2,0.5-0.4c0.1-0.2,0.2-0.4,0.2-0.7
		v-2.9H148h-0.6v2.9l0,0l0,0c0,0,0,0,0,0h-16.9c-0.1,0-0.2,0-0.3,0c-0.1,0-0.1,0-0.2,0.1c-0.1,0-0.1,0.1-0.2,0.1
		c-0.1,0.1-0.2,0.1-0.2,0.3c-0.1,0.1-0.1,0.2-0.1,0.3c0,0.1,0,0.2,0,0.2c0,0.1,0.1,0.2,0.1,0.3c0,0.1,0.1,0.1,0.2,0.2l7.2,7.2l0,0
		l0,0l0,0l0,0l-2.1,2.1l0,0l0,0l0,0l0,0l0,0l-8-8c-0.1-0.1-0.3-0.2-0.4-0.3c-0.1-0.1-0.3-0.1-0.4-0.1c-0.2,0-0.3,0-0.5,0.1
		c-0.1,0.1-0.3,0.1-0.4,0.3l-8,8h0l0,0l0,0l0,0l0,0l-2.1-2.1l0,0l0,0l0,0l0,0l0,0l7.2-7.2l0,0c0.1-0.1,0.1-0.2,0.2-0.3
		c0-0.1,0.1-0.1,0.1-0.2c0-0.1,0-0.1,0-0.2c0-0.1,0-0.3-0.1-0.4c-0.1-0.1-0.1-0.2-0.2-0.2c-0.1-0.1-0.2-0.1-0.3-0.1
		c-0.1,0-0.2,0-0.3,0h-16.9l0,0l0,0c0,0,0,0,0,0v-2.9l0,0l0,0c0,0,0,0,0,0h42.6l0,0l0,0c0,0,0,0,0,0H148z"/>
	<path class="st0" d="M144.9,14.5v-0.6c-0.7,0-1.3-0.3-1.8-0.7c-0.2-0.2-0.4-0.5-0.5-0.8c-0.1-0.3-0.2-0.6-0.2-1v0l-0.6,0l0.6,0.1
		c0,0,0-0.1,0-0.1l-0.6,0l0.6,0.1l0,0v0c0-0.3,0.1-0.7,0.2-1c0.2-0.4,0.5-0.8,0.9-1.1c0.4-0.3,0.9-0.4,1.4-0.4l0,0
		c0.3,0,0.7,0.1,1,0.2c0.4,0.2,0.8,0.5,1.1,0.9c0.3,0.4,0.4,0.9,0.4,1.4h0.4l-0.4,0v0h0.4l-0.4,0c0,0,0,0,0,0l0.6,0l-0.6,0
		c0,0.4-0.1,0.7-0.2,1c-0.2,0.4-0.5,0.8-0.9,1.1c-0.4,0.3-0.9,0.4-1.4,0.4V14.5v0.6c1,0,1.9-0.4,2.6-1.1c0.3-0.3,0.6-0.7,0.8-1.2
		c0.2-0.4,0.3-0.9,0.3-1.4v0l0,0l-0.5,0h0.5c0,0,0,0,0,0l-0.5,0h0.5h-0.4l0.4,0v0h-0.4l0.4,0v0c0-0.5-0.1-1-0.3-1.4
		c-0.3-0.7-0.7-1.2-1.3-1.6c-0.6-0.4-1.3-0.6-2-0.6l0,0c-0.5,0-1,0.1-1.4,0.3c-0.7,0.3-1.2,0.7-1.6,1.3c-0.4,0.6-0.6,1.3-0.6,2h0.6
		l-0.6-0.1c0,0,0,0.1,0,0.1v0v0l0.5,0h-0.5v0l0.5,0h-0.5c0,0.5,0.1,1,0.3,1.4c0.3,0.7,0.7,1.2,1.3,1.6c0.6,0.4,1.3,0.6,2,0.6V14.5z"
		/>
	<path class="st0" d="M132.9,6.7V6.2c-0.7,0-1.3-0.3-1.8-0.7c-0.2-0.2-0.4-0.5-0.5-0.8c-0.1-0.3-0.2-0.6-0.2-1v0l-0.5,0l0.5,0l0,0
		l-0.5,0l0.5,0l-0.6,0l0.6,0c0,0,0,0,0,0l-0.6,0l0.6,0l0,0l0,0c0-0.3,0.1-0.7,0.2-1c0.2-0.4,0.5-0.8,0.9-1.1
		c0.4-0.3,0.9-0.4,1.4-0.4l0,0c0.3,0,0.7,0.1,1,0.2c0.4,0.2,0.8,0.5,1.1,0.9c0.3,0.4,0.4,0.9,0.4,1.4h0.5l-0.5,0v0h0.5l-0.5,0l0,0
		c0,0,0,0,0,0l0.6,0l-0.6,0c0,0.3-0.1,0.7-0.2,1c-0.2,0.4-0.5,0.8-0.9,1.1c-0.4,0.3-0.9,0.4-1.4,0.4V6.7v0.6c1,0,1.9-0.4,2.6-1.1
		c0.3-0.3,0.6-0.7,0.8-1.2c0.2-0.4,0.3-0.9,0.3-1.4v0l0,0l-0.5,0l0.5,0c0,0,0,0,0,0l-0.5,0l0.5,0l-0.5,0l0.5,0v0l-0.5,0l0.5,0v0
		c0-0.5-0.1-1-0.3-1.4C136,1.6,135.6,1,135,0.6c-0.6-0.4-1.3-0.6-2-0.6l0,0c-0.5,0-1,0.1-1.4,0.3c-0.7,0.3-1.2,0.7-1.6,1.3
		c-0.4,0.6-0.6,1.3-0.6,2h0.6l-0.6,0c0,0,0,0,0,0v0l0.5,0h-0.5v0l0.5,0h-0.5c0,0.5,0.1,1,0.3,1.4c0.3,0.7,0.7,1.2,1.3,1.6
		c0.6,0.4,1.3,0.6,2,0.6V6.7z"/>
	<path class="st0" d="M118.3,6.7V6.2c-0.7,0-1.3-0.3-1.8-0.7c-0.2-0.2-0.4-0.5-0.5-0.8c-0.1-0.3-0.2-0.6-0.2-1v0l-0.5,0l0.5,0v0
		l-0.5,0l0.5,0l-0.6,0l0.6,0c0,0,0,0,0,0l-0.6,0l0.6,0l0,0v0c0-0.3,0.1-0.7,0.2-1c0.2-0.4,0.5-0.8,0.9-1.1c0.4-0.3,0.9-0.4,1.4-0.4
		h0c0.3,0,0.7,0.1,1,0.2c0.4,0.2,0.8,0.5,1.1,0.9c0.3,0.4,0.4,0.9,0.4,1.4h0.4l-0.4,0v0h0.4l-0.4,0c0,0,0,0,0,0l0.6,0l-0.6,0
		c0,0.3-0.1,0.7-0.2,1c-0.2,0.4-0.5,0.8-0.9,1.1c-0.4,0.3-0.9,0.4-1.4,0.4V6.7v0.6c1,0,1.9-0.4,2.6-1.1c0.3-0.3,0.6-0.7,0.8-1.2
		c0.2-0.4,0.3-0.9,0.3-1.4v0l0,0l-0.5,0h0.5c0,0,0,0,0,0l-0.5,0h0.5h-0.4l0.4,0v0h-0.4l0.4,0v0c0-0.5-0.1-1-0.3-1.4
		c-0.3-0.7-0.7-1.2-1.3-1.6c-0.6-0.4-1.3-0.6-2-0.6l0,0c-0.5,0-1,0.1-1.4,0.3c-0.7,0.3-1.2,0.7-1.6,1.3c-0.4,0.6-0.6,1.3-0.6,2h0.6
		l-0.6,0c0,0,0,0,0,0v0l0.5,0h-0.5v0l0.5,0h-0.5c0,0.5,0.1,1,0.3,1.4c0.3,0.7,0.7,1.2,1.3,1.6c0.6,0.4,1.3,0.6,2,0.6V6.7z"/>
	<path class="st0" d="M106.4,14.5v-0.6c-0.7,0-1.3-0.3-1.8-0.7c-0.2-0.2-0.4-0.5-0.5-0.8c-0.1-0.3-0.2-0.6-0.2-1v0l-0.5,0l0.5,0v0
		l-0.5,0l0.5,0l-0.6,0l0.6,0c0,0,0,0,0,0l-0.6,0l0.6,0l0,0v0c0-0.3,0.1-0.7,0.2-1c0.2-0.4,0.5-0.8,0.9-1.1c0.4-0.3,0.9-0.4,1.4-0.4
		v0c0.3,0,0.7,0.1,1,0.2c0.5,0.2,0.8,0.5,1.1,0.9c0.3,0.4,0.4,0.9,0.4,1.4h0.4l-0.4,0v0h0.4l-0.4,0c0,0,0,0,0,0l0.6,0l-0.6,0
		c0,0.4-0.1,0.7-0.2,1c-0.2,0.4-0.5,0.8-0.9,1.1c-0.4,0.3-0.9,0.4-1.4,0.4L106.4,14.5v0.6c1,0,1.9-0.4,2.6-1.1
		c0.3-0.3,0.6-0.7,0.8-1.2c0.2-0.4,0.3-0.9,0.3-1.4v0l0,0l-0.5,0h0.5c0,0,0,0,0,0l-0.5,0h0.5h-0.4l0.4,0v0h-0.4l0.4,0v0
		c0-0.5-0.1-1-0.3-1.4c-0.3-0.7-0.7-1.2-1.3-1.6c-0.6-0.4-1.3-0.6-2-0.6h0c-0.5,0-1,0.1-1.4,0.3c-0.7,0.3-1.2,0.7-1.6,1.3
		c-0.4,0.6-0.6,1.3-0.6,2h0.6l-0.6,0c0,0,0,0,0,0v0l0.5,0h-0.5v0l0.5,0h-0.5c0,0.5,0.1,1,0.3,1.4c0.3,0.7,0.7,1.2,1.3,1.6
		c0.6,0.4,1.3,0.6,2,0.6V14.5z"/>
	<path class="st0" d="M161.2,43.7c-0.3,0-0.6,0.2-0.6,0.6v5.5c0,0.3-0.2,0.6-0.6,0.6h-10.5c-0.3-0.1-0.6-0.3-0.6-0.6V27.6
		c0-0.2,0.2-0.5,0.6-0.5H160c0.3,0,0.6,0.2,0.6,0.6v5.5c0,0.3,0.2,0.6,0.6,0.6c0.3,0,0.6-0.2,0.6-0.6v-5.6c0-0.9-0.7-1.6-1.6-1.6
		h-10.6c-0.9,0-1.6,0.7-1.6,1.6v22c0,0.9,0.7,1.6,1.6,1.6H160c0.9,0,1.6-0.7,1.6-1.6v-5.5C161.6,43.9,161.4,43.7,161.2,43.7z"/>
	<path class="st0" d="M167.4,33.5c-0.2-0.2-0.6-0.2-0.8,0c-0.2,0.2-0.2,0.6,0,0.8l4,3.9h-16.3c-0.3,0-0.6,0.2-0.6,0.6
		c0,0.3,0.2,0.6,0.6,0.6h16.3l-4,3.8c-0.2,0.2-0.2,0.6,0,0.8c0.1,0.1,0.2,0.1,0.3,0.1c0.1,0,0.2,0,0.3-0.1l5.2-5.2L167.4,33.5z"/>
	<path class="st0" d="M245.7,184.1H244v-3.9c0-1.8-1.5-3.3-3.3-3.3c-1.8,0-3.3,1.5-3.3,3.3v3.9h-1.7 M229,184.1h-0.9h-3.5
		c-0.3,0-0.6,0.3-0.6,0.6c0,0.3,0.3,0.6,0.6,0.6h2.9v10c0,0.3,0.3,0.6,0.6,0.6h25.2c0.3,0,0.6-0.3,0.6-0.6v-10h2.9
		c0.3,0,0.6-0.3,0.6-0.6c0-0.3-0.3-0.6-0.6-0.6h-3.5h-0.9 M251.1,184.1h-4.2 M238.5,180.2c0-1.2,1-2.1,2.1-2.1c1.2,0,2.1,1,2.1,2.1
		v3.9h-4.2V180.2z M234.4,184.1h-4.2 M252.6,194.7h-24v-9.4h0.9h5.5h2.9h5.5h2.9h5.5h0.9L252.6,194.7L252.6,194.7z"/>
	<path class="st0" d="M240.6,176.1c1.5,0,2.7-1.2,2.7-2.7c0-1.5-1.2-2.7-2.7-2.7s-2.7,1.2-2.7,2.7
		C238,174.9,239.2,176.1,240.6,176.1z M240.6,171.9c0.8,0,1.5,0.7,1.5,1.5c0,0.8-0.7,1.5-1.5,1.5c-0.8,0-1.5-0.7-1.5-1.5
		C239.2,172.6,239.8,171.9,240.6,171.9z"/>
</g>
</svg>
