<?xml version="1.0" encoding="utf-8"?>
<!-- Generator: Adobe Illustrator 16.0.0, SVG Export Plug-In . SVG Version: 6.00 Build 0)  -->
<!DOCTYPE svg PUBLIC "-//W3C//DTD SVG 1.1//EN" "http://www.w3.org/Graphics/SVG/1.1/DTD/svg11.dtd">
<svg version="1.1" id="Layer_1" xmlns="http://www.w3.org/2000/svg" xmlns:xlink="http://www.w3.org/1999/xlink" x="0px" y="0px"
	 width="100px" height="100px" viewBox="0 0 100 100" enable-background="new 0 0 100 100" xml:space="preserve">
<ellipse fill="#1197CA" stroke="#231F20" stroke-width="3" stroke-miterlimit="10" cx="50.005" cy="51.322" rx="39.025" ry="38.5"/>
<g>
	<path fill="none" d="M50.005,44.635c2.129,0,3.859-1.73,3.859-3.857c0-2.129-1.73-3.859-3.859-3.859c-2.128,0-3.86,1.73-3.86,3.859
		C46.145,42.904,47.877,44.635,50.005,44.635z"/>
	<path fill="none" d="M55.576,58.67c0-3.072-2.5-5.572-5.571-5.572c-3.072,0-5.572,2.5-5.572,5.572v8.213h11.144V58.67z"/>
	<path d="M50.005,49.943c-4.812,0-8.729,3.914-8.729,8.727v8.213h3.156V58.67c0-3.072,2.5-5.572,5.572-5.572
		c3.071,0,5.571,2.5,5.571,5.572v8.213h3.156V58.67C58.732,53.857,54.816,49.943,50.005,49.943z"/>
	<path d="M50.005,47.791c3.867,0,7.015-3.146,7.015-7.014c0-3.869-3.147-7.016-7.015-7.016c-3.868,0-7.016,3.146-7.016,7.016
		C42.989,44.645,46.137,47.791,50.005,47.791z M50.005,36.918c2.129,0,3.859,1.73,3.859,3.859c0,2.127-1.73,3.857-3.859,3.857
		c-2.128,0-3.86-1.73-3.86-3.857C46.145,38.648,47.877,36.918,50.005,36.918z"/>
</g>
</svg>
