<?xml version="1.0" encoding="utf-8"?>
<!-- Generator: Adobe Illustrator 19.0.0, SVG Export Plug-In . SVG Version: 6.00 Build 0)  -->
<svg version="1.1" id="Layer_1" xmlns="http://www.w3.org/2000/svg" xmlns:xlink="http://www.w3.org/1999/xlink" x="0px" y="0px"
	 viewBox="-255 347 100 100" style="enable-background:new -255 347 100 100;" xml:space="preserve">
<style type="text/css">
	.st0{fill:#b5b2ae;stroke:#231F20;stroke-width:3;stroke-miterlimit:10;}
	.st1{fill:none;}
</style>
<ellipse class="st0" cx="-205" cy="398.3" rx="39" ry="38.5"/>
<g>
	<path class="st1" d="M-205,391.6c2.1,0,3.9-1.7,3.9-3.9c0-2.1-1.7-3.9-3.9-3.9c-2.1,0-3.9,1.7-3.9,3.9
		C-208.9,389.9-207.1,391.6-205,391.6z"/>
	<path class="st1" d="M-199.4,405.7c0-3.1-2.5-5.6-5.6-5.6c-3.1,0-5.6,2.5-5.6,5.6v8.2h11.1L-199.4,405.7L-199.4,405.7z"/>
	<path fill="#FFFFFF" d="M-205,396.9c-4.8,0-8.7,3.9-8.7,8.7v8.2h3.2v-8.2c0-3.1,2.5-5.6,5.6-5.6c3.1,0,5.6,2.5,5.6,5.6v8.2h3.2v-8.2
		C-196.3,400.9-200.2,396.9-205,396.9z"/>
	<path fill="#FFFFFF" d="M-205,394.8c3.9,0,7-3.1,7-7c0-3.9-3.1-7-7-7c-3.9,0-7,3.1-7,7C-212,391.6-208.9,394.8-205,394.8z M-205,383.9
		c2.1,0,3.9,1.7,3.9,3.9c0,2.1-1.7,3.9-3.9,3.9c-2.1,0-3.9-1.7-3.9-3.9C-208.9,385.6-207.1,383.9-205,383.9z"/>
</g>
</svg>
