<?xml version="1.0" encoding="utf-8"?>
<!-- Generator: Adobe Illustrator 19.0.0, SVG Export Plug-In . SVG Version: 6.00 Build 0)  -->
<svg version="1.1" id="Layer_1" xmlns="http://www.w3.org/2000/svg" xmlns:xlink="http://www.w3.org/1999/xlink" x="0px" y="0px"
	 viewBox="-230.5 373.4 50 50" style="enable-background:new -230.5 373.4 50 50;" xml:space="preserve">
<style type="text/css">
	.st0{fill:#1197CA;}
	.st1{fill:#231F20;}
</style>
<polyline class="st0" points="-230.5,423.4 -230.5,373.4 -180.5,373.4 "/>
<path class="st1" d="M-205.5,380.3c-10,0-18.1,8.1-18.1,18.1c0,7.4,4.5,13.8,10.8,16.6c-0.1-1.3,0-2.8,0.3-4.1
	c0.4-1.5,2.3-9.9,2.3-9.9s-0.6-1.2-0.6-2.9c0-2.7,1.6-4.7,3.5-4.7c1.6,0,2.4,1.2,2.4,2.7c0,1.7-1.1,4.1-1.6,6.4
	c-0.5,1.9,1,3.5,2.9,3.5c3.4,0,5.7-4.4,5.7-9.6c0-4-2.7-6.9-7.5-6.9c-5.5,0-8.9,4.1-8.9,8.7c0,1.6,0.5,2.7,1.2,3.5
	c0.3,0.4,0.4,0.6,0.3,1c-0.1,0.3-0.3,1.1-0.4,1.4c-0.1,0.5-0.5,0.6-0.9,0.5c-2.5-1-3.7-3.8-3.7-6.9c0-5.1,4.3-11.3,12.9-11.3
	c6.9,0,11.5,5,11.5,10.4c0,7.1-3.9,12.4-9.8,12.4c-2,0-3.8-1.1-4.4-2.3c0,0-1.1,4.2-1.3,5c-0.4,1.4-1.1,2.8-1.8,3.9
	c1.6,0.5,3.3,0.7,5.1,0.7c10,0,18.1-8.1,18.1-18.1C-187.4,388.4-195.5,380.3-205.5,380.3z"/>
</svg>
