<?xml version="1.0" encoding="utf-8"?>
<!-- Generator: Adobe Illustrator 16.0.0, SVG Export Plug-In . SVG Version: 6.00 Build 0)  -->
<!DOCTYPE svg PUBLIC "-//W3C//DTD SVG 1.1//EN" "http://www.w3.org/Graphics/SVG/1.1/DTD/svg11.dtd">
<svg version="1.1" id="Layer_1" xmlns="http://www.w3.org/2000/svg" xmlns:xlink="http://www.w3.org/1999/xlink" x="0px" y="0px"
	 width="100px" height="100px" viewBox="0 0 100 100" enable-background="new 0 0 100 100" xml:space="preserve">
<g>
	<path fill="#FFFFFF" d="M60.426,51.91c0.301-0.14,0.544-0.359,0.721-0.624c0.174-0.261,0.287-0.582,0.287-0.927
		c-0.003-0.46-0.201-0.872-0.493-1.168c-0.298-0.297-0.708-0.49-1.173-0.493H30.863c-0.036,0-0.036,0-0.071,0s-0.071,0-0.107,0
		h-0.021l-0.022,0.003c-0.229,0.017-0.443,0.082-0.631,0.179c-0.281,0.148-0.505,0.368-0.665,0.63
		c-0.159,0.262-0.257,0.564-0.257,0.892c0,0.035,0.001,0.074,0.004,0.115l0.002,0.021l0.002,0.019
		c0.061,0.443,0.294,0.808,0.592,1.068c0.3,0.261,0.682,0.428,1.113,0.435c0.026,0,0.048-0.004,0.072-0.004h28.894
		C60.004,52.056,60.229,52,60.426,51.91z"/>
	<path fill="#FFFFFF" d="M12.901,77.06l0.002,0.021c0.059,0.428,0.279,0.788,0.573,1.048c0.295,0.258,0.679,0.426,1.109,0.426
		c0.039,0,0.08-0.003,0.119-0.009h24.809c0.02,0,0.036,0.003,0.055,0.003c0.232,0,0.453-0.057,0.647-0.146
		c0.293-0.134,0.533-0.345,0.71-0.6c0.176-0.259,0.29-0.574,0.29-0.92c0-0.236-0.057-0.461-0.149-0.661
		c-0.14-0.299-0.357-0.542-0.624-0.719c-0.265-0.173-0.582-0.282-0.926-0.282H14.704c-0.071,0-0.106,0-0.143,0
		c-0.037,0-0.073,0-0.106,0h-0.048l-0.044,0.006c-0.423,0.062-0.779,0.282-1.037,0.579c-0.257,0.297-0.43,0.687-0.431,1.123
		c0,0.03,0.001,0.068,0.003,0.107L12.901,77.06z"/>
	<path fill="#FFFFFF" d="M30.61,41.211h29.405c0.229,0,0.443-0.054,0.636-0.137c0.289-0.131,0.535-0.33,0.723-0.588
		c0.184-0.259,0.309-0.58,0.309-0.939V22.472c0-0.238-0.057-0.461-0.146-0.657c-0.134-0.297-0.342-0.544-0.597-0.729
		c-0.256-0.186-0.571-0.309-0.925-0.312H30.61c-0.034,0-0.071,0-0.106,0.003h-0.047l-0.046,0.006
		c-0.425,0.06-0.788,0.283-1.045,0.579c-0.255,0.297-0.418,0.684-0.42,1.11v17.075c0.002,0.464,0.199,0.877,0.494,1.171
		C29.737,41.012,30.15,41.208,30.61,41.211z M32.276,24.132h26.04v13.754h-26.04V24.132z"/>
	<path fill="#FFFFFF" d="M94.549,31.857c-1.049-1.043-2.499-1.702-4.083-1.702h-3.58V17.747c0-1.584-0.662-3.028-1.711-4.074
		c-1.046-1.046-2.493-1.705-4.077-1.705H9.5c-1.587,0-3.029,0.659-4.068,1.708C4.39,14.722,3.74,16.169,3.74,17.747v64.506
		c0,1.596,0.651,3.043,1.691,4.086c1.042,1.046,2.485,1.693,4.068,1.693h77.909h2.585h0.472c0.071,0,0.14,0,0.214,0h1.056v-0.157
		c1.248-0.274,2.355-0.957,3.161-1.91c0.844-0.996,1.363-2.296,1.363-3.712V35.935C96.26,34.351,95.598,32.906,94.549,31.857z
		 M92.93,82.253c0,0.681-0.276,1.29-0.723,1.735c-0.448,0.449-1.061,0.723-1.741,0.723h-0.397c-0.351-0.03-0.726-0.114-1.183-0.33
		c-0.244-0.122-0.476-0.271-0.695-0.473c-0.336-0.306-0.647-0.733-0.892-1.432c-0.243-0.701-0.413-1.673-0.413-3.015V33.513h3.58
		c0.687,0,1.299,0.271,1.744,0.707c0.443,0.437,0.717,1.034,0.72,1.715V82.253z M9.5,15.328h71.595c0.687,0,1.299,0.271,1.741,0.707
		c0.445,0.438,0.719,1.034,0.722,1.712v13.819c-0.018,0.06-0.029,0.125-0.029,0.196s0.012,0.137,0.029,0.193v45.859v1.649
		c0,1.453,0.196,2.688,0.538,3.734c0.182,0.558,0.41,1.057,0.666,1.512H9.5c-0.683,0-1.282-0.273-1.723-0.717
		C7.34,83.549,7.07,82.937,7.07,82.253V17.747c0-0.684,0.268-1.281,0.703-1.718C8.211,15.596,8.812,15.328,9.5,15.328z"/>
	<path fill="#FFFFFF" d="M12.901,68.22l0.002,0.022c0.059,0.427,0.279,0.784,0.573,1.043c0.295,0.26,0.68,0.428,1.109,0.428
		c0.041,0,0.081-0.003,0.119-0.009h24.812l0,0c0.019,0.003,0.039,0.003,0.057,0.003c0.231,0,0.451-0.054,0.646-0.145
		c0.292-0.133,0.532-0.344,0.708-0.602c0.174-0.255,0.289-0.573,0.289-0.916c0-0.236-0.057-0.464-0.149-0.663
		c-0.14-0.297-0.357-0.541-0.622-0.716c-0.267-0.173-0.585-0.282-0.929-0.285H14.705c-0.071,0-0.106,0-0.143,0s-0.072,0-0.106,0
		h-0.049l-0.045,0.009c-0.218,0.031-0.416,0.108-0.589,0.211c-0.261,0.157-0.471,0.371-0.623,0.624
		c-0.153,0.25-0.252,0.547-0.254,0.87c0,0.03,0.002,0.065,0.005,0.105V68.22z"/>
	<path fill="#FFFFFF" d="M76.852,75.506c-0.268-0.173-0.585-0.282-0.927-0.282H51.114c-0.036,0-0.074,0-0.143,0
		c-0.039,0-0.039,0-0.073,0h-0.046l-0.04,0.006c-0.414,0.053-0.776,0.258-1.039,0.544c-0.264,0.283-0.44,0.667-0.44,1.099
		c0,0.054,0.005,0.107,0.011,0.161l0,0c0,0,0.002,0.021,0.002,0.031c0.003,0.006,0.003,0.012,0.003,0.012v0.006
		c0.041,0.422,0.251,0.786,0.534,1.038c0.295,0.265,0.682,0.434,1.112,0.434c0.039,0,0.08-0.003,0.119-0.009h24.808
		c0.018,0,0.035,0.003,0.054,0.003c0.234,0,0.454-0.057,0.647-0.146c0.294-0.134,0.532-0.347,0.71-0.602
		c0.176-0.259,0.291-0.574,0.291-0.919c0-0.237-0.056-0.463-0.148-0.659C77.333,75.925,77.116,75.681,76.852,75.506z"/>
	<path fill="#FFFFFF" d="M76.852,66.666c-0.265-0.173-0.582-0.282-0.927-0.285H51.114c-0.036,0-0.074,0-0.143,0
		c-0.039,0-0.039,0-0.073,0h-0.046l-0.043,0.006c-0.427,0.062-0.784,0.276-1.042,0.564c-0.256,0.287-0.432,0.659-0.435,1.088
		c0,0.05,0.005,0.1,0.011,0.154l0,0c0,0,0.002,0.026,0.005,0.041c0,0.007,0,0.01,0,0.01l0.001,0.003
		c0.043,0.422,0.253,0.778,0.533,1.03c0.295,0.265,0.683,0.432,1.112,0.435c0.039,0,0.08-0.003,0.119-0.01l0,0h24.811l0,0
		c0.018,0.004,0.038,0.004,0.054,0.004c0.234,0,0.454-0.054,0.647-0.144c0.291-0.133,0.532-0.346,0.707-0.603
		c0.176-0.256,0.291-0.573,0.291-0.915c0-0.238-0.056-0.467-0.148-0.664C77.333,67.085,77.116,66.841,76.852,66.666z"/>
	<path fill="#FFFFFF" d="M12.901,59.38l0.002,0.019c0.059,0.428,0.28,0.792,0.576,1.047c0.295,0.256,0.68,0.424,1.109,0.427
		c0.039,0,0.077-0.006,0.116-0.009h24.809c0.02,0.003,0.036,0.003,0.055,0.003c0.232,0,0.453-0.054,0.647-0.146
		c0.293-0.134,0.533-0.345,0.711-0.601c0.175-0.259,0.289-0.576,0.289-0.921c0-0.234-0.057-0.461-0.149-0.66
		c-0.14-0.297-0.357-0.54-0.621-0.716c-0.268-0.175-0.585-0.283-0.929-0.283H14.704c-0.071,0-0.106,0-0.143,0
		c-0.037,0-0.073,0-0.107,0h-0.048l-0.046,0.003c-0.218,0.031-0.416,0.112-0.589,0.215c-0.262,0.157-0.47,0.37-0.624,0.623
		c-0.152,0.249-0.251,0.546-0.252,0.87c0,0.031,0.001,0.068,0.004,0.108L12.901,59.38z"/>
	<path fill="#FFFFFF" d="M50.972,57.541c-0.039,0-0.039,0-0.073,0h-0.046l-0.04,0.003c-0.43,0.06-0.787,0.276-1.047,0.562
		c-0.257,0.291-0.433,0.666-0.433,1.094c0,0.048,0.005,0.101,0.011,0.151h-0.003c0.002,0.014,0.003,0.028,0.005,0.039
		c0,0,0,0.009,0.003,0.015l0,0c0.02,0.202,0.079,0.392,0.166,0.559c0.142,0.276,0.353,0.496,0.606,0.653
		c0.253,0.159,0.553,0.256,0.871,0.256c0.042,0,0.082-0.006,0.119-0.009h24.805c0.021,0.003,0.038,0.003,0.057,0.003
		c0.231,0,0.451-0.054,0.647-0.146c0.291-0.134,0.535-0.345,0.71-0.601c0.176-0.259,0.288-0.576,0.288-0.921
		c0-0.238-0.057-0.461-0.148-0.66c-0.14-0.3-0.359-0.54-0.624-0.716c-0.265-0.178-0.582-0.283-0.927-0.283H51.114
		C51.077,57.541,51.04,57.541,50.972,57.541z"/>
</g>
</svg>
