<?xml version="1.0" encoding="utf-8"?>
<!-- Generator: Adobe Illustrator 16.0.0, SVG Export Plug-In . SVG Version: 6.00 Build 0)  -->
<!DOCTYPE svg PUBLIC "-//W3C//DTD SVG 1.1//EN" "http://www.w3.org/Graphics/SVG/1.1/DTD/svg11.dtd">
<svg version="1.1" id="Layer_1" xmlns="http://www.w3.org/2000/svg" xmlns:xlink="http://www.w3.org/1999/xlink" x="0px" y="0px"
	 width="100px" height="100px" viewBox="0 0 100 100" enable-background="new 0 0 100 100" xml:space="preserve">
<g>
	<path fill="#FFFFFF" d="M19.801,35.02l0.003,0.021c0.063,0.471,0.299,0.875,0.624,1.164c0.324,0.289,0.755,0.48,1.236,0.48
		c0.024,0,0.045-0.002,0.066-0.002h17.06c0.253,0,0.493-0.055,0.71-0.146c0.324-0.137,0.6-0.357,0.807-0.641
		c0.206-0.283,0.344-0.641,0.344-1.037c0-0.254-0.057-0.492-0.15-0.705c-0.142-0.32-0.361-0.586-0.641-0.785
		c-0.278-0.199-0.626-0.334-1.016-0.334c-0.02,0-0.046,0-0.076,0.002H21.887c-0.061-0.016-0.128-0.025-0.208-0.025
		c-0.014,0-0.03,0.002-0.044,0.004c-0.011-0.002-0.021-0.004-0.031-0.004c-0.098-0.002-0.189,0.02-0.274,0.049
		c-0.19,0.031-0.369,0.094-0.528,0.178c-0.307,0.162-0.548,0.396-0.722,0.674c-0.173,0.277-0.284,0.602-0.285,0.961
		c0,0.037,0.001,0.08,0.005,0.125L19.801,35.02z"/>
	<path fill="#FFFFFF" d="M21.656,42.771L21.656,42.771c-0.263,0-0.509,0.064-0.722,0.164c-0.32,0.152-0.573,0.383-0.761,0.658
		c-0.185,0.277-0.309,0.607-0.31,0.984c0,0.016,0.001,0.035,0.002,0.053l0,0v0.002c0.001,0.021,0,0.039,0.002,0.062h0.001
		c0.009,0.23,0.062,0.449,0.15,0.645c0.146,0.318,0.373,0.58,0.653,0.771c0.28,0.189,0.623,0.311,0.998,0.311
		c0.023,0,0.04-0.002,0.059-0.002h30.48c0.253,0,0.494-0.055,0.71-0.146c0.324-0.139,0.6-0.359,0.806-0.643
		c0.205-0.283,0.343-0.641,0.343-1.035c0-0.262-0.062-0.512-0.163-0.729c-0.153-0.328-0.391-0.592-0.679-0.783
		s-0.636-0.311-1.017-0.312H21.727C21.692,42.771,21.692,42.771,21.656,42.771z"/>
	<path fill="#FFFFFF" d="M78.261,62.617c-0.281-0.201-0.636-0.338-1.031-0.338H21.728c-0.035,0-0.106,0-0.178,0
		c-0.036,0-0.071,0-0.106,0h-0.06l-0.06,0.008c-0.241,0.035-0.457,0.123-0.643,0.236c-0.279,0.174-0.498,0.402-0.66,0.672
		c-0.16,0.27-0.268,0.584-0.269,0.938c0,0.07,0.005,0.145,0.016,0.221h-0.001c0.001,0.004,0.002,0.006,0.002,0.006
		c0.001,0.006,0,0.006,0.001,0.008l0,0c0.067,0.467,0.306,0.855,0.624,1.135c0.322,0.281,0.742,0.467,1.216,0.469
		c0.04,0,0.079-0.006,0.117-0.008l0,0h55.502c0.263,0,0.512-0.062,0.73-0.164c0.327-0.152,0.591-0.391,0.782-0.68
		c0.189-0.287,0.311-0.635,0.312-1.016c-0.001-0.254-0.059-0.49-0.151-0.701C78.761,63.086,78.541,62.818,78.261,62.617z"/>
	<path fill="#FFFFFF" d="M66.165,17.652c-3.536,0-6.753,1.445-9.079,3.773c-2.327,2.328-3.773,5.551-3.773,9.102
		c0,3.549,1.446,6.779,3.772,9.115c2.324,2.338,5.542,3.793,9.08,3.793c3.554,0,6.781-1.455,9.111-3.793
		c2.331-2.336,3.777-5.566,3.777-9.115c0-3.551-1.447-6.773-3.779-9.102C72.944,19.098,69.717,17.652,66.165,17.652z M68.025,34.979
		l3.259,3.254c-0.959,0.639-2.064,1.096-3.259,1.322V34.979z M68.025,21.539c1.821,0.357,3.442,1.242,4.701,2.494
		c1.258,1.256,2.15,2.873,2.51,4.703h-7.211V21.539z M73.844,35.635l-3.231-3.248h4.609C74.974,33.568,74.497,34.658,73.844,35.635z
		 M64.34,39.549c-1.96-0.391-3.69-1.398-4.983-2.816c-1.488-1.637-2.393-3.805-2.394-6.205c0.001-2.402,0.904-4.562,2.389-6.189
		c1.295-1.416,3.028-2.42,4.988-2.805V39.549z"/>
	<path fill="#FFFFFF" d="M88.109,12.998c-1.145-1.154-2.733-1.885-4.478-1.885H15.359c-1.745,0-3.334,0.73-4.479,1.885
		s-1.862,2.748-1.862,4.488v51.059c0,1.74,0.719,3.328,1.866,4.473c1.146,1.146,2.735,1.863,4.476,1.863h17.488L24.37,88.246
		l0.003,0.002c-0.228,0.312-0.332,0.678-0.331,1.02c0.001,0.303,0.071,0.594,0.205,0.861s0.332,0.514,0.6,0.699l0.02,0.014
		l0.02,0.012c0.298,0.184,0.625,0.258,0.937,0.258c0.327,0,0.646-0.08,0.937-0.24c0.268-0.146,0.511-0.373,0.681-0.672l0.002,0.002
		l9.733-15.314l0.003-0.008h10.491v14.344c0,0.254,0.055,0.494,0.147,0.711c0.139,0.324,0.359,0.6,0.643,0.805
		s0.641,0.342,1.035,0.342c0.263,0,0.512-0.061,0.729-0.162c0.328-0.154,0.592-0.391,0.783-0.68c0.19-0.287,0.311-0.635,0.312-1.016
		v-14.34h10.456l0.002,0.004l9.735,15.316l0.003-0.002c0.168,0.299,0.412,0.525,0.679,0.672c0.291,0.16,0.609,0.24,0.937,0.24
		c0.312,0,0.638-0.076,0.935-0.256l0.022-0.014l0.02-0.014c0.268-0.186,0.467-0.432,0.601-0.697
		c0.133-0.268,0.204-0.561,0.204-0.863c0.001-0.342-0.103-0.705-0.331-1.018l0.003-0.004l-8.475-13.365h17.523
		c1.741,0,3.329-0.719,4.476-1.863c1.147-1.146,1.867-2.732,1.866-4.473V17.486C89.974,15.746,89.256,14.152,88.109,12.998z
		 M83.632,71.232H15.359c-0.756,0-1.422-0.299-1.908-0.783c-0.486-0.486-0.783-1.15-0.784-1.904V17.486
		c0.001-0.754,0.301-1.432,0.789-1.928c0.489-0.494,1.154-0.795,1.903-0.797h68.272c0.749,0.002,1.414,0.303,1.903,0.797
		c0.488,0.496,0.788,1.174,0.788,1.928v51.059c0,0.754-0.298,1.418-0.783,1.904C85.053,70.934,84.387,71.232,83.632,71.232z"/>
	<path fill="#FFFFFF" d="M77.229,52.545H21.728c-0.035,0-0.106,0-0.178,0c-0.036,0-0.071,0-0.106,0h-0.06l-0.058,0.008
		c-0.232,0.033-0.445,0.115-0.632,0.225c-0.279,0.164-0.505,0.393-0.671,0.664c-0.164,0.271-0.271,0.596-0.271,0.949
		c0,0.074,0.005,0.152,0.016,0.232c0.064,0.471,0.312,0.865,0.637,1.137c0.326,0.271,0.741,0.439,1.196,0.439
		c0.044,0,0.085-0.004,0.127-0.008h55.501l0,0c0.018,0,0.035,0.002,0.054,0.002c0.258,0,0.504-0.062,0.717-0.164
		c0.321-0.152,0.576-0.389,0.759-0.672c0.182-0.283,0.294-0.623,0.295-0.99c-0.002-0.51-0.218-0.961-0.54-1.283
		C78.189,52.762,77.739,52.545,77.229,52.545z"/>
	<polygon fill="#FFFFFF" points="19.769,54.625 19.769,54.623 19.769,54.619 	"/>
</g>
</svg>
