<?xml version="1.0" encoding="utf-8"?>
<!-- Generator: Adobe Illustrator 16.0.0, SVG Export Plug-In . SVG Version: 6.00 Build 0)  -->
<!DOCTYPE svg PUBLIC "-//W3C//DTD SVG 1.1//EN" "http://www.w3.org/Graphics/SVG/1.1/DTD/svg11.dtd">
<svg version="1.1" id="Layer_1" xmlns="http://www.w3.org/2000/svg" xmlns:xlink="http://www.w3.org/1999/xlink" x="0px" y="0px"
	 width="100px" height="100px" viewBox="0 0 100 100" enable-background="new 0 0 100 100" xml:space="preserve">
<g>
	<path fill="#424447" d="M16.062,31.608l0.004,0.023c0.072,0.539,0.342,1,0.713,1.331c0.37,0.33,0.863,0.548,1.412,0.548
		c0.027,0,0.052-0.002,0.076-0.002h19.496c0.289,0,0.563-0.063,0.812-0.167c0.37-0.156,0.686-0.408,0.922-0.732
		c0.235-0.324,0.394-0.732,0.394-1.186c0-0.29-0.065-0.562-0.172-0.806c-0.162-0.365-0.412-0.67-0.732-0.896
		c-0.317-0.228-0.716-0.382-1.161-0.382c-0.022,0-0.053,0-0.087,0.002H18.447c-0.07-0.019-0.147-0.028-0.238-0.028
		c-0.016,0-0.034,0.002-0.051,0.005c-0.012-0.003-0.023-0.005-0.035-0.005c-0.112-0.003-0.216,0.023-0.312,0.056
		c-0.218,0.035-0.422,0.107-0.604,0.204c-0.352,0.185-0.627,0.452-0.825,0.77c-0.198,0.316-0.325,0.688-0.326,1.099
		c0,0.042,0.001,0.092,0.006,0.143L16.062,31.608z"/>
	<path fill="#424447" d="M18.183,40.466L18.183,40.466c-0.301,0-0.582,0.073-0.825,0.188c-0.366,0.174-0.655,0.438-0.87,0.752
		c-0.211,0.316-0.353,0.694-0.354,1.125c0,0.018,0.002,0.039,0.003,0.061l0,0v0.002c0.001,0.023,0,0.045,0.003,0.07h0.001
		c0.01,0.264,0.07,0.514,0.171,0.737c0.167,0.364,0.427,0.663,0.746,0.882c0.32,0.216,0.712,0.354,1.141,0.354
		c0.026,0,0.046-0.002,0.067-0.002h34.832c0.289,0,0.565-0.062,0.812-0.167c0.371-0.158,0.686-0.41,0.922-0.734
		c0.234-0.323,0.391-0.732,0.391-1.183c0-0.3-0.07-0.585-0.186-0.833c-0.175-0.375-0.446-0.677-0.776-0.896
		c-0.328-0.218-0.727-0.355-1.162-0.356H18.264C18.224,40.466,18.224,40.466,18.183,40.466z"/>
	<path fill="#424447" d="M82.872,63.146c-0.322-0.229-0.729-0.386-1.179-0.386H18.265c-0.04,0-0.121,0-0.203,0
		c-0.041,0-0.081,0-0.121,0h-0.069l-0.067,0.009c-0.276,0.04-0.522,0.141-0.735,0.271c-0.319,0.198-0.569,0.458-0.754,0.768
		c-0.184,0.308-0.307,0.667-0.308,1.071c0,0.08,0.005,0.165,0.019,0.252h-0.002c0.002,0.005,0.003,0.007,0.003,0.007
		c0.001,0.008,0,0.008,0.001,0.01l0,0c0.076,0.534,0.35,0.977,0.713,1.297c0.368,0.321,0.849,0.535,1.39,0.537
		c0.046,0,0.091-0.008,0.134-0.01l0,0H81.69c0.302,0,0.586-0.07,0.835-0.188c0.374-0.173,0.676-0.446,0.895-0.777
		c0.215-0.328,0.355-0.727,0.355-1.161c0-0.29-0.066-0.56-0.172-0.802C83.443,63.683,83.19,63.377,82.872,63.146z"/>
	<path fill="#424447" d="M69.047,11.76c-4.041,0-7.717,1.651-10.375,4.312c-2.66,2.66-4.312,6.344-4.312,10.402
		c0,4.056,1.652,7.747,4.312,10.417c2.656,2.672,6.333,4.334,10.376,4.334c4.062,0,7.749-1.662,10.412-4.334
		c2.665-2.67,4.316-6.361,4.316-10.417c0-4.059-1.653-7.74-4.318-10.402C76.794,13.412,73.106,11.76,69.047,11.76z M71.174,31.562
		l3.724,3.719c-1.096,0.73-2.358,1.252-3.724,1.511V31.562z M71.174,16.202c2.08,0.407,3.933,1.419,5.372,2.85
		c1.438,1.436,2.456,3.284,2.868,5.375h-8.24V16.202z M77.822,32.311L74.131,28.6h5.268C79.115,29.948,78.569,31.194,77.822,32.311z
		 M66.962,36.784c-2.24-0.447-4.217-1.598-5.694-3.219c-1.701-1.87-2.735-4.349-2.736-7.091c0.001-2.745,1.033-5.214,2.729-7.073
		c1.479-1.618,3.461-2.766,5.701-3.205V36.784z"/>
	<path fill="#424447" d="M94.126,6.441c-1.31-1.319-3.124-2.155-5.118-2.155H10.986c-1.994,0-3.811,0.835-5.119,2.155
		C4.559,7.761,3.74,9.582,3.74,11.569v58.352c0,1.989,0.821,3.804,2.132,5.111c1.31,1.311,3.126,2.13,5.115,2.13h19.985
		l-9.688,15.273l0.004,0.003c-0.261,0.356-0.38,0.774-0.379,1.165c0.001,0.346,0.081,0.679,0.234,0.984s0.38,0.587,0.686,0.799
		l0.023,0.016l0.022,0.014c0.341,0.211,0.715,0.294,1.071,0.294c0.373,0,0.738-0.09,1.07-0.273c0.306-0.166,0.584-0.426,0.778-0.768
		l0.002,0.002l11.124-17.5l0.003-0.01h11.989v16.393c0,0.291,0.062,0.564,0.168,0.812c0.159,0.37,0.41,0.686,0.734,0.92
		c0.325,0.234,0.732,0.391,1.184,0.391c0.3,0,0.584-0.069,0.833-0.186c0.373-0.176,0.675-0.446,0.894-0.776
		c0.217-0.328,0.354-0.726,0.357-1.161V77.165h11.948l0.002,0.006L75.16,94.674l0.002-0.003c0.192,0.342,0.471,0.6,0.776,0.769
		c0.333,0.183,0.696,0.274,1.07,0.274c0.356,0,0.729-0.087,1.068-0.294l0.025-0.016l0.023-0.016
		c0.306-0.212,0.534-0.493,0.687-0.797c0.152-0.306,0.233-0.641,0.233-0.986c0.001-0.391-0.118-0.806-0.378-1.163l0.003-0.004
		l-9.685-15.274h20.024c1.99,0,3.805-0.821,5.115-2.129c1.311-1.31,2.134-3.122,2.134-5.112V11.569
		C96.257,9.582,95.436,7.76,94.126,6.441z M89.009,72.992H10.986c-0.864,0-1.625-0.341-2.181-0.895
		c-0.556-0.556-0.895-1.315-0.896-2.177V11.569c0.001-0.861,0.344-1.636,0.901-2.202c0.559-0.565,1.318-0.909,2.175-0.912h78.021
		c0.855,0.003,1.616,0.347,2.175,0.912c0.557,0.566,0.9,1.341,0.9,2.202v58.352c0,0.861-0.341,1.621-0.895,2.177
		C90.633,72.651,89.871,72.992,89.009,72.992z"/>
	<path fill="#424447" d="M81.69,51.636H18.265c-0.04,0-0.121,0-0.203,0c-0.041,0-0.081,0-0.121,0h-0.069l-0.065,0.009
		c-0.265,0.038-0.509,0.132-0.723,0.257c-0.318,0.188-0.577,0.45-0.767,0.759c-0.188,0.311-0.31,0.683-0.31,1.085
		c0,0.085,0.005,0.175,0.019,0.266c0.072,0.538,0.356,0.989,0.728,1.299c0.372,0.311,0.847,0.503,1.367,0.503
		c0.05,0,0.097-0.005,0.145-0.009H81.69l0,0c0.021,0,0.041,0.002,0.062,0.002c0.295,0,0.576-0.071,0.819-0.188
		c0.366-0.174,0.659-0.444,0.867-0.768c0.209-0.324,0.336-0.712,0.339-1.132c-0.003-0.583-0.25-1.099-0.619-1.467
		C82.789,51.884,82.273,51.636,81.69,51.636z"/>
	<polygon fill="#424447" points="16.026,54.014 16.026,54.011 16.026,54.007 	"/>
</g>
<line fill="none" stroke="#AD272C" stroke-width="4" stroke-miterlimit="10" x1="351.517" y1="561.821" x2="271.559" y2="641.821"/>
<line fill="none" stroke="#AD272C" stroke-width="4" stroke-miterlimit="10" x1="96.26" y1="3.716" x2="3.74" y2="96.284"/>
</svg>
