<?xml version="1.0" encoding="utf-8"?>
<!-- Generator: Adobe Illustrator 19.0.0, SVG Export Plug-In . SVG Version: 6.00 Build 0)  -->
<svg version="1.1" id="Layer_1" xmlns="http://www.w3.org/2000/svg" xmlns:xlink="http://www.w3.org/1999/xlink" x="0px" y="0px"
	 viewBox="0 0 60.8 62.9" style="enable-background:new 0 0 60.8 62.9;" xml:space="preserve">
<style type="text/css">
	.st0{fill:#FFFFFF;}
</style>
<g id="XMLID_2_">
	<g id="XMLID_19_">
		<g id="XMLID_20_">
			<path id="XMLID_21_" class="st0" d="M18,39.8c-4.7,0-8.4-3.7-8.4-8.4c0-4.7,3.7-8.4,8.4-8.4c4.7,0,8.4,3.7,8.4,8.4
				C26.4,36.1,22.5,39.8,18,39.8z M18,26.5c-2.7,0-4.9,2.2-4.9,4.9c0,2.7,2.2,4.9,4.9,4.9c2.7,0,4.9-2.2,4.9-4.9
				C22.9,28.7,20.6,26.5,18,26.5z"/>
		</g>
	</g>
	<g id="XMLID_8_">
		<g id="XMLID_14_">
			<g id="XMLID_15_">
				<path id="XMLID_16_" class="st0" d="M42.9,16.8c-4.7,0-8.4-3.7-8.4-8.4c0-4.7,3.7-8.4,8.4-8.4c4.7,0,8.4,3.7,8.4,8.4
					C51.3,13.1,47.4,16.8,42.9,16.8z M42.9,3.5c-2.7,0-4.9,2.2-4.9,4.9c0,2.7,2.2,4.9,4.9,4.9c2.7,0,4.9-2.2,4.9-4.9
					C47.8,5.7,45.6,3.5,42.9,3.5z"/>
			</g>
		</g>
		<g id="XMLID_9_">
			<g id="XMLID_10_">
				<path id="XMLID_11_" class="st0" d="M42.9,62.9c-4.7,0-8.4-3.7-8.4-8.4c0-4.7,3.7-8.4,8.4-8.4c4.7,0,8.4,3.7,8.4,8.4
					C51.3,59.1,47.4,62.9,42.9,62.9z M42.9,49.6c-2.7,0-4.9,2.2-4.9,4.9c0,2.7,2.2,4.9,4.9,4.9c2.7,0,4.9-2.2,4.9-4.9
					C47.8,51.8,45.6,49.6,42.9,49.6z"/>
			</g>
		</g>
	</g>
	<g id="XMLID_3_">
		<g id="XMLID_6_">
			
				<rect id="XMLID_7_" x="28.6" y="9.4" transform="matrix(0.7073 0.707 -0.707 0.7073 22.8845 -15.3884)" class="st0" width="2.9" height="21"/>
		</g>
		<g id="XMLID_4_">
			
				<rect id="XMLID_5_" x="19.5" y="41.5" transform="matrix(0.7071 0.7071 -0.7071 0.7071 39.1462 -8.6578)" class="st0" width="21" height="2.9"/>
		</g>
	</g>
</g>
</svg>
