<?xml version="1.0" encoding="utf-8"?>
<!-- Generator: Adobe Illustrator 16.0.0, SVG Export Plug-In . SVG Version: 6.00 Build 0)  -->
<!DOCTYPE svg PUBLIC "-//W3C//DTD SVG 1.1//EN" "http://www.w3.org/Graphics/SVG/1.1/DTD/svg11.dtd">
<svg version="1.1" id="Layer_1" xmlns="http://www.w3.org/2000/svg" xmlns:xlink="http://www.w3.org/1999/xlink" x="0px" y="0px"
	 width="100px" height="100px" viewBox="0 0 100 100" enable-background="new 0 0 100 100" xml:space="preserve">
<g>
	<g>
		<path fill="#231F20" d="M36.957,59.793c-4.828,0-8.69-3.863-8.69-8.688c0-4.828,3.862-8.689,8.69-8.689
			c4.827,0,8.688,3.861,8.688,8.689C45.646,55.93,41.664,59.793,36.957,59.793z M36.957,46.033c-2.776,0-5.069,2.293-5.069,5.072
			c0,2.773,2.293,5.066,5.069,5.066c2.775,0,5.068-2.293,5.068-5.066C42.025,48.326,39.732,46.033,36.957,46.033z"/>
	</g>
</g>
<g>
	<g>
		<g>
			<path fill="#231F20" d="M62.729,35.982c-4.827,0-8.688-3.863-8.688-8.689c0-4.828,3.861-8.689,8.688-8.689
				c4.826,0,8.69,3.861,8.69,8.689C71.419,32.119,67.436,35.982,62.729,35.982z M62.729,22.225c-2.775,0-5.069,2.293-5.069,5.068
				s2.294,5.068,5.069,5.068c2.776,0,5.069-2.293,5.069-5.068S65.505,22.225,62.729,22.225z"/>
		</g>
	</g>
	<g>
		<g>
			<path fill="#231F20" d="M62.729,83.604c-4.827,0-8.688-3.861-8.688-8.688c0-4.83,3.861-8.691,8.688-8.691
				c4.826,0,8.69,3.861,8.69,8.691C71.419,79.742,67.436,83.604,62.729,83.604z M62.729,69.846c-2.775,0-5.069,2.293-5.069,5.07
				c0,2.773,2.294,5.066,5.069,5.066c2.776,0,5.069-2.293,5.069-5.066C67.798,72.139,65.505,69.846,62.729,69.846z"/>
		</g>
	</g>
</g>
<g>
	<g>
		
			<rect x="47.942" y="28.356" transform="matrix(0.7073 0.7069 -0.7069 0.7073 42.1972 -23.465)" fill="#231F20" width="2.981" height="21.729"/>
	</g>
	<g>
		
			<rect x="38.567" y="61.497" transform="matrix(0.707 0.7072 -0.7072 0.707 59.0248 -16.5047)" fill="#231F20" width="21.73" height="2.981"/>
	</g>
</g>
</svg>
