<?xml version="1.0" encoding="utf-8"?>
<!-- Generator: Adobe Illustrator 16.0.0, SVG Export Plug-In . SVG Version: 6.00 Build 0)  -->
<!DOCTYPE svg PUBLIC "-//W3C//DTD SVG 1.1//EN" "http://www.w3.org/Graphics/SVG/1.1/DTD/svg11.dtd">
<svg version="1.1" id="Layer_1" xmlns="http://www.w3.org/2000/svg" xmlns:xlink="http://www.w3.org/1999/xlink" x="0px" y="0px"
	 width="100px" height="100px" viewBox="0 0 100 100" enable-background="new 0 0 100 100" xml:space="preserve">
<g>
	<path fill="#FFFFFF" d="M29.069,34.559H10.033c-3.469,0-6.293,2.82-6.293,6.291v25.114c0,3.47,2.823,6.294,6.293,6.294h1.049
		v19.036h3.751V68.388h-4.8c-1.359,0-2.426-1.065-2.426-2.424V40.849c0-1.357,1.066-2.424,2.426-2.424h19.151
		c1.358,0,2.424,1.066,2.424,2.424v25.115c0,1.357-1.065,2.424-2.424,2.424h-5.027v22.789h3.75v-18.92h1.277
		c3.469,0,6.291-2.823,6.291-6.293V40.833C35.353,37.313,32.536,34.559,29.069,34.559z"/>
	<path fill="#FFFFFF" d="M19.553,30.741c6.378,0,11.567-5.191,11.567-11.567c0-6.271-5.299-11.567-11.567-11.567
		c-6.274,0-11.567,5.297-11.567,11.567C7.985,25.441,13.279,30.741,19.553,30.741z M19.553,11.357c4.308,0,7.811,3.507,7.811,7.816
		c0,4.305-3.503,7.814-7.811,7.814c-4.312,0-7.816-3.51-7.816-7.814C11.736,14.864,15.241,11.357,19.553,11.357z"/>
	<path fill="#FFFFFF" d="M33.101,7.606v3.751h55.734v45.316c0,1.357-1.062,2.426-2.42,2.426H40.554v3.867h45.745
		c3.47,0,6.293-2.823,6.293-6.294V11.357h3.668V7.606H33.101z"/>
	<polygon fill="#FFFFFF" points="57.037,66.897 53.286,66.897 53.286,73.806 37.272,89.703 39.963,92.394 53.286,79.186 
		53.286,91.868 57.037,91.868 57.037,79.186 70.359,92.394 73.051,89.703 57.037,73.806 	"/>
</g>
</svg>
