<?xml version="1.0" encoding="utf-8"?>
<!-- Generator: Adobe Illustrator 19.0.0, SVG Export Plug-In . SVG Version: 6.00 Build 0)  -->
<svg version="1.1" id="Layer_1" xmlns="http://www.w3.org/2000/svg" xmlns:xlink="http://www.w3.org/1999/xlink" x="0px" y="0px"
	 viewBox="-230.1 373.4 50 50" style="enable-background:new -230.1 373.4 50 50;" xml:space="preserve">
<style type="text/css">
	.st0{fill:#1197CA;}
	.st1{fill:#231F20;}
</style>
<polyline class="st0" points="-230.1,423.4 -230.1,373.4 -180.1,373.4 "/>
<path class="st1" d="M-189.7,388c-1.2,0.5-2.5,0.9-3.9,1.1c1.4-0.8,2.5-2.2,3-3.8c-1.3,0.8-2.8,1.4-4.3,1.7c-1.2-1.3-3-2.2-5-2.2
	c-3.8,0-6.8,3.1-6.8,6.8c0,0.5,0.1,1.1,0.2,1.6c-5.7-0.3-10.7-3-14.1-7.1c-0.6,1-0.9,2.2-0.9,3.4c0,2.4,1.2,4.5,3,5.7
	c-1.1,0-2.2-0.3-3.1-0.9v0.1c0,3.3,2.4,6.1,5.5,6.7c-0.6,0.2-1.2,0.2-1.8,0.2c-0.4,0-0.9,0-1.3-0.1c0.9,2.7,3.4,4.7,6.4,4.7
	c-2.3,1.8-5.3,2.9-8.5,2.9c-0.6,0-1.1,0-1.6-0.1c3,1.9,6.6,3.1,10.5,3.1c12.6,0,19.5-10.4,19.5-19.5c0-0.3,0-0.6,0-0.9
	C-191.8,390.6-190.6,389.4-189.7,388z"/>
</svg>
