<?xml version="1.0" encoding="utf-8"?>
<!-- Generator: Adobe Illustrator 16.0.0, SVG Export Plug-In . SVG Version: 6.00 Build 0)  -->
<!DOCTYPE svg PUBLIC "-//W3C//DTD SVG 1.1//EN" "http://www.w3.org/Graphics/SVG/1.1/DTD/svg11.dtd">
<svg version="1.1" id="Layer_1" xmlns="http://www.w3.org/2000/svg" xmlns:xlink="http://www.w3.org/1999/xlink" x="0px" y="0px"
	 width="100px" height="100px" viewBox="0 0 100 100" enable-background="new 0 0 100 100" xml:space="preserve">
<g>
	<path fill="#231F20" d="M63.568,53.459h-4.736V42.711c0-5.101-4.149-9.25-9.251-9.25c-5.1,0-9.25,4.149-9.25,9.25v10.748h-4.736
		 M17.092,53.459h-2.495H4.994c-0.925,0-1.672,0.748-1.672,1.673c0,0.923,0.748,1.671,1.672,1.671h7.931v27.834
		c0,0.925,0.748,1.673,1.672,1.673h69.968c0.925,0,1.673-0.748,1.673-1.673V56.803h7.931c0.925,0,1.673-0.748,1.673-1.671
		c0-0.925-0.748-1.673-1.673-1.673h-9.604H82.07 M78.727,53.46H66.913 M43.675,42.713c0-3.257,2.65-5.906,5.906-5.906
		c3.257,0,5.907,2.649,5.907,5.906V53.46H43.675V42.713z M32.25,53.46H20.437 M82.894,82.965H16.269V56.803h2.496h15.157h8.081
		h15.158h8.081h15.157h2.496v26.162H82.894z"/>
	<path fill="#231F20" d="M49.581,31.181c4.101,0,7.436-3.336,7.436-7.436s-3.335-7.436-7.436-7.436c-4.1,0-7.435,3.336-7.435,7.436
		S45.481,31.181,49.581,31.181z M49.581,19.654c2.257,0,4.091,1.835,4.091,4.091c0,2.254-1.834,4.091-4.091,4.091
		c-2.254,0-4.09-1.835-4.09-4.091S47.327,19.654,49.581,19.654z"/>
</g>
</svg>
