<?xml version="1.0" encoding="utf-8"?>
<!-- Generator: Adobe Illustrator 16.0.0, SVG Export Plug-In . SVG Version: 6.00 Build 0)  -->
<!DOCTYPE svg PUBLIC "-//W3C//DTD SVG 1.1//EN" "http://www.w3.org/Graphics/SVG/1.1/DTD/svg11.dtd">
<svg version="1.1" id="Layer_1" xmlns="http://www.w3.org/2000/svg" xmlns:xlink="http://www.w3.org/1999/xlink" x="0px" y="0px"
	 width="100px" height="100px" viewBox="0 0 100 100" enable-background="new 0 0 100 100" xml:space="preserve">
<g>
	<path fill="#424447" d="M94.586,52.148h-9.603h-2.495h-1.379v-6.535c0-4.211-3.427-7.636-7.636-7.636
		c-4.211,0-7.64,3.425-7.64,7.636v6.535h-1.848h-4.735V41.402c0-5.102-4.151-9.251-9.253-9.251c-5.1,0-9.25,4.149-9.25,9.251v10.746
		h-4.736h-1.496v-6.535c0-4.211-3.426-7.636-7.637-7.636s-7.637,3.425-7.637,7.636v6.535h-1.731h-2.495H5.412
		c-0.925,0-1.672,0.748-1.672,1.673c0,0.923,0.747,1.672,1.672,1.672h7.931v27.834c0,0.925,0.748,1.673,1.673,1.673h69.968
		c0.925,0,1.673-0.748,1.673-1.673V55.493h7.93c0.927,0,1.674-0.749,1.674-1.672C96.26,52.896,95.513,52.148,94.586,52.148z
		 M68.596,45.613c0-2.688,2.188-4.876,4.878-4.876c2.687,0,4.874,2.188,4.874,4.876v6.535h-9.752V45.613z M44.094,41.404
		c0-3.258,2.649-5.906,5.904-5.906c3.258,0,5.907,2.648,5.907,5.906v10.747H44.094V41.404z M22.004,45.613
		c0-2.688,2.188-4.876,4.875-4.876s4.875,2.188,4.875,4.876v6.535h-9.75V45.613z M83.313,81.655L83.313,81.655H16.688V55.493h2.494
		H34.34h8.081H57.58h8.08h15.158h2.495V81.655z"/>
	<path fill="#424447" d="M49.998,29.872c4.103,0,7.437-3.336,7.437-7.437c0-4.1-3.334-7.436-7.437-7.436
		c-4.099,0-7.434,3.336-7.434,7.436C42.564,26.536,45.899,29.872,49.998,29.872z M49.998,18.345c2.258,0,4.092,1.835,4.092,4.091
		c0,2.255-1.834,4.092-4.092,4.092c-2.254,0-4.089-1.836-4.089-4.092S47.744,18.345,49.998,18.345z"/>
	<path fill="#424447" d="M26.879,36.094c3.385,0,6.139-2.753,6.139-6.137c0-3.386-2.754-6.139-6.139-6.139s-6.139,2.753-6.139,6.139
		C20.74,33.341,23.494,36.094,26.879,36.094z M26.879,26.58c1.863,0,3.377,1.515,3.377,3.377c0,1.861-1.514,3.375-3.377,3.375
		c-1.861,0-3.377-1.514-3.377-3.375C23.502,28.095,25.018,26.58,26.879,26.58z"/>
	<path fill="#424447" d="M73.474,36.094c3.384,0,6.137-2.753,6.137-6.137c0-3.386-2.753-6.139-6.137-6.139
		c-3.386,0-6.139,2.753-6.139,6.139C67.335,33.341,70.088,36.094,73.474,36.094z M73.474,26.58c1.862,0,3.377,1.515,3.377,3.377
		c0,1.861-1.515,3.375-3.377,3.375c-1.863,0-3.379-1.514-3.379-3.375C70.095,28.095,71.61,26.58,73.474,26.58z"/>
</g>
</svg>
